<?xml version="1.0" encoding="us-ascii" standalone="no"?><svg xmlns="http://www.w3.org/2000/svg" xmlns:xlink="http://www.w3.org/1999/xlink" contentStyleType="text/css" height="385px" preserveAspectRatio="none" style="width:1006px;height:385px;background:#FFFFFF;" version="1.1" viewBox="0 0 1006 385" width="1006px" zoomAndPan="magnify"><defs/><g><!--class users--><g id="elem_users"><rect codeLine="7" fill="#F8F9FA" height="166.875" id="users" rx="5" ry="5" style="stroke:#2C3E50;stroke-width:0.5;" width="243" x="7" y="86"/><text fill="#000000" font-family="Helvetica" font-size="14" lengthAdjust="spacing" textLength="36" x="110.5" y="105.5332">Users</text><line style="stroke:#2C3E50;stroke-width:0.5;" x1="8" x2="249" y1="113.6094" y2="113.6094"/><ellipse cx="18" cy="127.9141" fill="#000000" rx="3" ry="3" style="stroke:#000000;stroke-width:1.0;"/><text fill="#000000" font-family="Helvetica" font-size="14" font-weight="bold" lengthAdjust="spacing" textLength="13" x="27" y="132.1426">id</text><text fill="#000000" font-family="Helvetica" font-size="14" lengthAdjust="spacing" textLength="106" x="44" y="132.1426">: INTEGER &#171;PK&#187;</text><line style="stroke:#2C3E50;stroke-width:1.0;" x1="8" x2="249" y1="139.2188" y2="139.2188"/><ellipse cx="18" cy="153.5234" fill="#000000" rx="3" ry="3" style="stroke:#000000;stroke-width:1.0;"/><text fill="#000000" font-family="Helvetica" font-size="14" lengthAdjust="spacing" textLength="166" x="27" y="157.752">email : STRING &#171;UNIQUE&#187;</text><ellipse cx="18" cy="171.1328" fill="#000000" rx="3" ry="3" style="stroke:#000000;stroke-width:1.0;"/><text fill="#000000" font-family="Helvetica" font-size="14" lengthAdjust="spacing" textLength="217" x="27" y="175.3613">password : STRING &#171;bcrypt hash&#187;</text><ellipse cx="18" cy="188.7422" fill="#000000" rx="3" ry="3" style="stroke:#000000;stroke-width:1.0;"/><text fill="#000000" font-family="Helvetica" font-size="14" lengthAdjust="spacing" textLength="184" x="27" y="192.9707">role : STRING &#171;user | admin&#187;</text><ellipse cx="18" cy="206.3516" fill="#000000" rx="3" ry="3" style="stroke:#000000;stroke-width:1.0;"/><text fill="#000000" font-family="Helvetica" font-size="14" lengthAdjust="spacing" textLength="152" x="27" y="210.5801">tokens : DECIMAL(10,3)</text><text fill="#000000" font-family="Helvetica" font-size="14" lengthAdjust="spacing" textLength="152" x="27" y="228.1895">createdAt : TIMESTAMP</text><text fill="#000000" font-family="Helvetica" font-size="14" lengthAdjust="spacing" textLength="156" x="27" y="245.7988">updatedAt : TIMESTAMP</text></g><!--class games--><g id="elem_games"><rect codeLine="18" fill="#F8F9FA" height="325.3594" id="games" rx="5" ry="5" style="stroke:#2C3E50;stroke-width:0.5;" width="324" x="310" y="7"/><text fill="#000000" font-family="Helvetica" font-size="14" lengthAdjust="spacing" textLength="45" x="449.5" y="26.5332">Games</text><line style="stroke:#2C3E50;stroke-width:0.5;" x1="311" x2="633" y1="34.6094" y2="34.6094"/><ellipse cx="321" cy="48.9141" fill="#000000" rx="3" ry="3" style="stroke:#000000;stroke-width:1.0;"/><text fill="#000000" font-family="Helvetica" font-size="14" font-weight="bold" lengthAdjust="spacing" textLength="13" x="330" y="53.1426">id</text><text fill="#000000" font-family="Helvetica" font-size="14" lengthAdjust="spacing" textLength="106" x="347" y="53.1426">: INTEGER &#171;PK&#187;</text><line style="stroke:#2C3E50;stroke-width:1.0;" x1="311" x2="633" y1="60.2188" y2="60.2188"/><ellipse cx="321" cy="74.5234" fill="#000000" rx="3" ry="3" style="stroke:#000000;stroke-width:1.0;"/><text fill="#000000" font-family="Helvetica" font-size="14" lengthAdjust="spacing" textLength="174" x="330" y="78.752">type : STRING &#171;PvP | PvAI&#187;</text><ellipse cx="321" cy="92.1328" fill="#000000" rx="3" ry="3" style="stroke:#000000;stroke-width:1.0;"/><text fill="#000000" font-family="Helvetica" font-size="14" lengthAdjust="spacing" textLength="272" x="330" y="96.3613">status : STRING &#171;in_progress | completed&#187;</text><ellipse cx="321" cy="109.7422" fill="#000000" rx="3" ry="3" style="stroke:#000000;stroke-width:1.0;"/><text fill="#000000" font-family="Helvetica" font-size="14" lengthAdjust="spacing" textLength="122" x="330" y="113.9707">gridSize : INTEGER</text><ellipse cx="321" cy="127.3516" fill="#000000" rx="3" ry="3" style="stroke:#000000;stroke-width:1.0;"/><text fill="#000000" font-family="Helvetica" font-size="14" lengthAdjust="spacing" textLength="222" x="330" y="131.5801">player1Id : INTEGER &#171;FK users.id&#187;</text><text fill="#000000" font-family="Helvetica" font-size="14" lengthAdjust="spacing" textLength="298" x="330" y="149.1895">player2Id : INTEGER &#171;FK users.id (NULL = IA)&#187;</text><ellipse cx="321" cy="162.5703" fill="#000000" rx="3" ry="3" style="stroke:#000000;stroke-width:1.0;"/><text fill="#000000" font-family="Helvetica" font-size="14" lengthAdjust="spacing" textLength="263" x="330" y="166.7988">currentTurn : STRING &#171;player1 | player2&#187;</text><text fill="#000000" font-family="Helvetica" font-size="14" lengthAdjust="spacing" textLength="274" x="330" y="184.4082">winner : STRING &#171;player1 | player2 | NULL&#187;</text><text fill="#000000" font-family="Helvetica" font-size="14" lengthAdjust="spacing" textLength="193" x="330" y="202.0176">boardPlayer1 : JSONB &#171;Fleet&#187;</text><text fill="#000000" font-family="Helvetica" font-size="14" lengthAdjust="spacing" textLength="193" x="330" y="219.627">boardPlayer2 : JSONB &#171;Fleet&#187;</text><ellipse cx="321" cy="233.0078" fill="#000000" rx="3" ry="3" style="stroke:#000000;stroke-width:1.0;"/><text fill="#000000" font-family="Helvetica" font-size="14" lengthAdjust="spacing" textLength="205" x="330" y="237.2363">silencePlayer1 : INTEGER &#171;0-5&#187;</text><ellipse cx="321" cy="250.6172" fill="#000000" rx="3" ry="3" style="stroke:#000000;stroke-width:1.0;"/><text fill="#000000" font-family="Helvetica" font-size="14" lengthAdjust="spacing" textLength="205" x="330" y="254.8457">silencePlayer2 : INTEGER &#171;0-5&#187;</text><ellipse cx="321" cy="268.2266" fill="#000000" rx="3" ry="3" style="stroke:#000000;stroke-width:1.0;"/><text fill="#000000" font-family="Helvetica" font-size="14" lengthAdjust="spacing" textLength="211" x="330" y="272.4551">silenceArmedPlayer1 : BOOLEAN</text><ellipse cx="321" cy="285.8359" fill="#000000" rx="3" ry="3" style="stroke:#000000;stroke-width:1.0;"/><text fill="#000000" font-family="Helvetica" font-size="14" lengthAdjust="spacing" textLength="211" x="330" y="290.0645">silenceArmedPlayer2 : BOOLEAN</text><text fill="#000000" font-family="Helvetica" font-size="14" lengthAdjust="spacing" textLength="152" x="330" y="307.6738">createdAt : TIMESTAMP</text><text fill="#000000" font-family="Helvetica" font-size="14" lengthAdjust="spacing" textLength="156" x="330" y="325.2832">updatedAt : TIMESTAMP</text></g><!--class moves--><g id="elem_moves"><rect codeLine="38" fill="#F8F9FA" height="202.0938" id="moves" rx="5" ry="5" style="stroke:#2C3E50;stroke-width:0.5;" width="305" x="694" y="176.5"/><text fill="#000000" font-family="Helvetica" font-size="14" lengthAdjust="spacing" textLength="41" x="826" y="196.0332">Moves</text><line style="stroke:#2C3E50;stroke-width:0.5;" x1="695" x2="998" y1="204.1094" y2="204.1094"/><ellipse cx="705" cy="218.4141" fill="#000000" rx="3" ry="3" style="stroke:#000000;stroke-width:1.0;"/><text fill="#000000" font-family="Helvetica" font-size="14" font-weight="bold" lengthAdjust="spacing" textLength="13" x="714" y="222.6426">id</text><text fill="#000000" font-family="Helvetica" font-size="14" lengthAdjust="spacing" textLength="106" x="731" y="222.6426">: INTEGER &#171;PK&#187;</text><line style="stroke:#2C3E50;stroke-width:1.0;" x1="695" x2="998" y1="229.7188" y2="229.7188"/><ellipse cx="705" cy="244.0234" fill="#000000" rx="3" ry="3" style="stroke:#000000;stroke-width:1.0;"/><text fill="#000000" font-family="Helvetica" font-size="14" lengthAdjust="spacing" textLength="217" x="714" y="248.252">gameId : INTEGER &#171;FK games.id&#187;</text><text fill="#000000" font-family="Helvetica" font-size="14" lengthAdjust="spacing" textLength="279" x="714" y="265.8613">userId : INTEGER &#171;FK users.id (NULL = IA)&#187;</text><ellipse cx="705" cy="279.2422" fill="#000000" rx="3" ry="3" style="stroke:#000000;stroke-width:1.0;"/><text fill="#000000" font-family="Helvetica" font-size="14" lengthAdjust="spacing" textLength="94" x="714" y="283.4707">row : INTEGER</text><ellipse cx="705" cy="296.8516" fill="#000000" rx="3" ry="3" style="stroke:#000000;stroke-width:1.0;"/><text fill="#000000" font-family="Helvetica" font-size="14" lengthAdjust="spacing" textLength="90" x="714" y="301.0801">col : INTEGER</text><ellipse cx="705" cy="314.4609" fill="#000000" rx="3" ry="3" style="stroke:#000000;stroke-width:1.0;"/><text fill="#000000" font-family="Helvetica" font-size="14" lengthAdjust="spacing" textLength="172" x="714" y="318.6895">result : STRING &#171;hit | miss&#187;</text><ellipse cx="705" cy="332.0703" fill="#000000" rx="3" ry="3" style="stroke:#000000;stroke-width:1.0;"/><text fill="#000000" font-family="Helvetica" font-size="14" lengthAdjust="spacing" textLength="130" x="714" y="336.2988">silenced : BOOLEAN</text><text fill="#000000" font-family="Helvetica" font-size="14" lengthAdjust="spacing" textLength="152" x="714" y="353.9082">createdAt : TIMESTAMP</text><text fill="#000000" font-family="Helvetica" font-size="14" lengthAdjust="spacing" textLength="156" x="714" y="371.5176">updatedAt : TIMESTAMP</text></g><!--link users to games--><g id="link_users_games"><path codeLine="52" d="M258.09,141.67 C277.48,141.67 271.82,141.67 291.97,141.67 " fill="none" id="users-games" style="stroke:#2C3E50;stroke-width:1.0;"/><line style="stroke:#2C3E50;stroke-width:1.0;" x1="254.09" x2="254.09" y1="145.67" y2="137.67"/><line style="stroke:#2C3E50;stroke-width:1.0;" x1="257.09" x2="257.09" y1="145.67" y2="137.67"/><line style="stroke:#2C3E50;stroke-width:1.0;" x1="258.09" x2="250.09" y1="141.67" y2="141.67"/><line style="stroke:#2C3E50;stroke-width:1.0;" x1="301.97" x2="309.97" y1="141.67" y2="135.67"/><line style="stroke:#2C3E50;stroke-width:1.0;" x1="301.97" x2="309.97" y1="141.67" y2="147.67"/><line style="stroke:#2C3E50;stroke-width:1.0;" x1="301.97" x2="309.97" y1="141.67" y2="141.67"/><ellipse cx="295.97" cy="141.67" fill="none" rx="4" ry="4" style="stroke:#2C3E50;stroke-width:1.0;"/></g><!--link users to games--><g id="link_users_games"><path codeLine="53" d="M265.09,197.33 C284.48,197.33 271.82,197.33 291.97,197.33 " fill="none" id="users-games-1" style="stroke:#2C3E50;stroke-width:1.0;"/><line style="stroke:#2C3E50;stroke-width:1.0;" x1="261.09" x2="250.09" y1="197.33" y2="197.33"/><ellipse cx="261.09" cy="197.33" fill="none" rx="4" ry="4" style="stroke:#2C3E50;stroke-width:1.0;"/><line style="stroke:#2C3E50;stroke-width:1.0;" x1="254.09" x2="254.09" y1="201.33" y2="193.33"/><line style="stroke:#2C3E50;stroke-width:1.0;" x1="301.97" x2="309.97" y1="197.33" y2="191.33"/><line style="stroke:#2C3E50;stroke-width:1.0;" x1="301.97" x2="309.97" y1="197.33" y2="203.33"/><line style="stroke:#2C3E50;stroke-width:1.0;" x1="301.97" x2="309.97" y1="197.33" y2="197.33"/><ellipse cx="295.97" cy="197.33" fill="none" rx="4" ry="4" style="stroke:#2C3E50;stroke-width:1.0;"/></g><!--link games to moves--><g id="link_games_moves"><path codeLine="54" d="M642.08,254.25 C661.95,254.25 656.2,254.25 675.92,254.25 " fill="none" id="games-moves" style="stroke:#2C3E50;stroke-width:1.0;"/><line style="stroke:#2C3E50;stroke-width:1.0;" x1="638.08" x2="638.08" y1="258.25" y2="250.25"/><line style="stroke:#2C3E50;stroke-width:1.0;" x1="641.08" x2="641.08" y1="258.25" y2="250.25"/><line style="stroke:#2C3E50;stroke-width:1.0;" x1="642.08" x2="634.08" y1="254.25" y2="254.25"/><line style="stroke:#2C3E50;stroke-width:1.0;" x1="685.92" x2="693.92" y1="254.25" y2="248.25"/><line style="stroke:#2C3E50;stroke-width:1.0;" x1="685.92" x2="693.92" y1="254.25" y2="260.25"/><line style="stroke:#2C3E50;stroke-width:1.0;" x1="685.92" x2="693.92" y1="254.25" y2="254.25"/><ellipse cx="679.92" cy="254.25" fill="none" rx="4" ry="4" style="stroke:#2C3E50;stroke-width:1.0;"/></g><!--link users to moves--><g id="link_users_moves"><path codeLine="55" d="M129,268.14 C129,317.44 129,355.25 129,355.25 C129,355.25 465.23,355.25 675.9,355.25 " fill="none" id="users-moves" style="stroke:#2C3E50;stroke-width:1.0;"/><line style="stroke:#2C3E50;stroke-width:1.0;" x1="129" x2="129" y1="264.14" y2="253.14"/><ellipse cx="129" cy="264.14" fill="none" rx="4" ry="4" style="stroke:#2C3E50;stroke-width:1.0;"/><line style="stroke:#2C3E50;stroke-width:1.0;" x1="125" x2="133" y1="257.14" y2="257.14"/><line style="stroke:#2C3E50;stroke-width:1.0;" x1="685.9" x2="693.9" y1="355.25" y2="349.25"/><line style="stroke:#2C3E50;stroke-width:1.0;" x1="685.9" x2="693.9" y1="355.25" y2="361.25"/><line style="stroke:#2C3E50;stroke-width:1.0;" x1="685.9" x2="693.9" y1="355.25" y2="355.25"/><ellipse cx="679.9" cy="355.25" fill="none" rx="4" ry="4" style="stroke:#2C3E50;stroke-width:1.0;"/></g><!--SRC=[fPJVRvim4CVV-IjkVMhHgDfCUwcwIdHZ4Mj2M4EUAnVVWbLZ8ziaofhzxpC_0hHfDaNb1UlkO_jxTr_um4JAIuhmeCs6utbHvjnnEFuoO2GejimCKAOmDKmA9sEMJ9bAEJhwYOc2A983PmBDfa2GocJISL0OPZPmij2ez0aG3MMrWcS7xEE2wpBgkd05OPG4u-0Uhg_ZkvkREkjvBOGvOTmoy-G-ZCOMMKJXpqNGOYuKHEkrL7I8FAPgKnZ8YCuwJacEGwQI0biWD6UYWunyGg4jzYtu6axzoUdbnSTFPtKoLKWCKj_OR19EWtdYJ-CwKnRqZSoVllunoR6fVrcjZgk_RkX0TxoAhUnuvOUTQcs8AVKGOkAXK7AfK6iBfp8lE5g9tOwbOdJEVcD_zwwRd6nGNORqXQhlTytapjdkY8OR7URWD5fC9l05Gl-ikpOjbR9DIKebXchRIwtIzjXsmve9OOVqBzAkgdlQ3O-IA1gtp1NycC-YsqeMHpJxoEW0OXlAE8eK-vFw4Y-ypszZe_zXlifn8EvsDfi4VdIG6RrYtk6_gLor_ikhrN7-gooxF-RQoBqTggaVwGKbrtlkIoNVYraFbzmCJP0nOyUUCwrVjvY-lsTEyulQRZrFFhVVwoucXx7crN9DNrzoJUml]--></g></svg>