<?xml version="1.0" encoding="us-ascii" standalone="no"?><svg xmlns="http://www.w3.org/2000/svg" xmlns:xlink="http://www.w3.org/1999/xlink" contentStyleType="text/css" height="1042px" preserveAspectRatio="none" style="width:1378px;height:1042px;background:#FFFFFF;" version="1.1" viewBox="0 0 1378 1042" width="1378px" zoomAndPan="magnify"><defs/><g><text fill="#000000" font-family="Helvetica" font-size="14" font-weight="bold" lengthAdjust="spacing" textLength="194" x="593" y="29.5332">Autenticazione (JWT RS256)</text><rect fill="#E8EDF2" height="780.4609" style="stroke:#2C3E50;stroke-width:1.0;" width="10" x="172" y="169.9219"/><rect fill="#E8EDF2" height="132.2422" style="stroke:#2C3E50;stroke-width:1.0;" width="10" x="275" y="200.2734"/><rect fill="#E8EDF2" height="565.5156" style="stroke:#2C3E50;stroke-width:1.0;" width="10" x="385" y="362.8672"/><rect fill="#E8EDF2" height="504.8125" style="stroke:#2C3E50;stroke-width:1.0;" width="10" x="543" y="393.2188"/><rect fill="#E8EDF2" height="91.0547" style="stroke:#2C3E50;stroke-width:1.0;" width="10" x="680" y="423.5703"/><rect fill="#E8EDF2" height="30.3516" style="stroke:#2C3E50;stroke-width:1.0;" width="10" x="1040" y="570.3281"/><rect fill="#E8EDF2" height="30.3516" style="stroke:#2C3E50;stroke-width:1.0;" width="10" x="1040" y="723.9219"/><rect fill="#E8EDF2" height="83.0547" style="stroke:#2C3E50;stroke-width:1.0;" width="10" x="1132" y="784.625"/><rect fill="#E8EDF2" height="30.3516" style="stroke:#2C3E50;stroke-width:1.0;" width="10" x="1239.5" y="647.3828"/><rect fill="none" height="728.1094" rx="5" ry="5" style="stroke:#2C3E50;stroke-width:1.5;" width="1361" x="10" y="215.2734"/><rect fill="none" height="406.7578" rx="5" ry="5" style="stroke:#2C3E50;stroke-width:1.5;" width="1341" x="20" y="529.625"/><line style="stroke:#2C3E50;stroke-width:0.5;stroke-dasharray:5.0,5.0;" x1="51" x2="51" y1="121.2188" y2="960.3828"/><line style="stroke:#2C3E50;stroke-width:0.5;stroke-dasharray:5.0,5.0;" x1="176.5" x2="176.5" y1="121.2188" y2="960.3828"/><line style="stroke:#2C3E50;stroke-width:0.5;stroke-dasharray:5.0,5.0;" x1="279.5" x2="279.5" y1="121.2188" y2="960.3828"/><line style="stroke:#2C3E50;stroke-width:0.5;stroke-dasharray:5.0,5.0;" x1="389.5" x2="389.5" y1="121.2188" y2="960.3828"/><line style="stroke:#2C3E50;stroke-width:0.5;stroke-dasharray:5.0,5.0;" x1="548" x2="548" y1="121.2188" y2="960.3828"/><line style="stroke:#2C3E50;stroke-width:0.5;stroke-dasharray:5.0,5.0;" x1="684.5" x2="684.5" y1="121.2188" y2="960.3828"/><line style="stroke:#2C3E50;stroke-width:0.5;stroke-dasharray:5.0,5.0;" x1="961.5" x2="961.5" y1="121.2188" y2="960.3828"/><line style="stroke:#2C3E50;stroke-width:0.5;stroke-dasharray:5.0,5.0;" x1="1044.5" x2="1044.5" y1="121.2188" y2="960.3828"/><line style="stroke:#2C3E50;stroke-width:0.5;stroke-dasharray:5.0,5.0;" x1="1136.5" x2="1136.5" y1="121.2188" y2="960.3828"/><line style="stroke:#2C3E50;stroke-width:0.5;stroke-dasharray:5.0,5.0;" x1="1244.5" x2="1244.5" y1="121.2188" y2="960.3828"/><text fill="#000000" font-family="Helvetica" font-size="14" lengthAdjust="spacing" textLength="36" x="30" y="118.1426">Client</text><ellipse cx="51" cy="52.1094" fill="#F8F9FA" rx="8" ry="8" style="stroke:#2C3E50;stroke-width:0.5;"/><path d="M51,60.1094 L51,87.1094 M38,68.1094 L64,68.1094 M51,87.1094 L38,102.1094 M51,87.1094 L64,102.1094 " fill="none" style="stroke:#2C3E50;stroke-width:0.5;"/><text fill="#000000" font-family="Helvetica" font-size="14" lengthAdjust="spacing" textLength="36" x="30" y="973.916">Client</text><ellipse cx="51" cy="985.4922" fill="#F8F9FA" rx="8" ry="8" style="stroke:#2C3E50;stroke-width:0.5;"/><path d="M51,993.4922 L51,1020.4922 M38,1001.4922 L64,1001.4922 M51,1020.4922 L38,1035.4922 M51,1020.4922 L64,1035.4922 " fill="none" style="stroke:#2C3E50;stroke-width:0.5;"/><rect fill="#F8F9FA" height="31.6094" rx="5" ry="5" style="stroke:#2C3E50;stroke-width:0.5;" width="87" x="133.5" y="88.6094"/><text fill="#2C3E50" font-family="Helvetica" font-size="14" lengthAdjust="spacing" textLength="73" x="140.5" y="110.1426">authRoutes</text><rect fill="#F8F9FA" height="31.6094" rx="5" ry="5" style="stroke:#2C3E50;stroke-width:0.5;" width="87" x="133.5" y="959.3828"/><text fill="#2C3E50" font-family="Helvetica" font-size="14" lengthAdjust="spacing" textLength="73" x="140.5" y="980.916">authRoutes</text><rect fill="#F8F9FA" height="49.2188" rx="5" ry="5" style="stroke:#2C3E50;stroke-width:0.5;" width="95" x="232.5" y="71"/><text fill="#2C3E50" font-family="Helvetica" font-size="14" lengthAdjust="spacing" textLength="81" x="239.5" y="92.5332">validateBody</text><text fill="#2C3E50" font-family="Helvetica" font-size="14" lengthAdjust="spacing" textLength="32" x="264" y="110.1426">(zod)</text><rect fill="#F8F9FA" height="49.2188" rx="5" ry="5" style="stroke:#2C3E50;stroke-width:0.5;" width="95" x="232.5" y="959.3828"/><text fill="#2C3E50" font-family="Helvetica" font-size="14" lengthAdjust="spacing" textLength="81" x="239.5" y="980.916">validateBody</text><text fill="#2C3E50" font-family="Helvetica" font-size="14" lengthAdjust="spacing" textLength="32" x="264" y="998.5254">(zod)</text><rect fill="#F8F9FA" height="31.6094" rx="5" ry="5" style="stroke:#2C3E50;stroke-width:0.5;" width="105" x="337.5" y="88.6094"/><text fill="#2C3E50" font-family="Helvetica" font-size="14" lengthAdjust="spacing" textLength="91" x="344.5" y="110.1426">AuthController</text><rect fill="#F8F9FA" height="31.6094" rx="5" ry="5" style="stroke:#2C3E50;stroke-width:0.5;" width="105" x="337.5" y="959.3828"/><text fill="#2C3E50" font-family="Helvetica" font-size="14" lengthAdjust="spacing" textLength="91" x="344.5" y="980.916">AuthController</text><rect fill="#F8F9FA" height="31.6094" rx="5" ry="5" style="stroke:#2C3E50;stroke-width:0.5;" width="90" x="503" y="88.6094"/><text fill="#2C3E50" font-family="Helvetica" font-size="14" lengthAdjust="spacing" textLength="76" x="510" y="110.1426">AuthService</text><rect fill="#F8F9FA" height="31.6094" rx="5" ry="5" style="stroke:#2C3E50;stroke-width:0.5;" width="90" x="503" y="959.3828"/><text fill="#2C3E50" font-family="Helvetica" font-size="14" lengthAdjust="spacing" textLength="76" x="510" y="980.916">AuthService</text><rect fill="#F8F9FA" height="31.6094" rx="5" ry="5" style="stroke:#2C3E50;stroke-width:0.5;" width="73" x="648.5" y="88.6094"/><text fill="#2C3E50" font-family="Helvetica" font-size="14" lengthAdjust="spacing" textLength="59" x="655.5" y="110.1426">UserDAO</text><rect fill="#F8F9FA" height="31.6094" rx="5" ry="5" style="stroke:#2C3E50;stroke-width:0.5;" width="73" x="648.5" y="959.3828"/><text fill="#2C3E50" font-family="Helvetica" font-size="14" lengthAdjust="spacing" textLength="59" x="655.5" y="980.916">UserDAO</text><text fill="#000000" font-family="Helvetica" font-size="14" lengthAdjust="spacing" textLength="77" x="920.5" y="118.1426">PostgreSQL</text><path d="M944,67.6094 C944,57.6094 962,57.6094 962,57.6094 C962,57.6094 980,57.6094 980,67.6094 L980,93.6094 C980,103.6094 962,103.6094 962,103.6094 C962,103.6094 944,103.6094 944,93.6094 L944,67.6094 " fill="#F8F9FA" style="stroke:#2C3E50;stroke-width:1.5;"/><path d="M944,67.6094 C944,77.6094 962,77.6094 962,77.6094 C962,77.6094 980,77.6094 980,67.6094 " fill="none" style="stroke:#2C3E50;stroke-width:1.5;"/><text fill="#000000" font-family="Helvetica" font-size="14" lengthAdjust="spacing" textLength="77" x="920.5" y="973.916">PostgreSQL</text><path d="M944,986.9922 C944,976.9922 962,976.9922 962,976.9922 C962,976.9922 980,976.9922 980,986.9922 L980,1012.9922 C980,1022.9922 962,1022.9922 962,1022.9922 C962,1022.9922 944,1022.9922 944,1012.9922 L944,986.9922 " fill="#F8F9FA" style="stroke:#2C3E50;stroke-width:1.5;"/><path d="M944,986.9922 C944,996.9922 962,996.9922 962,996.9922 C962,996.9922 980,996.9922 980,986.9922 " fill="none" style="stroke:#2C3E50;stroke-width:1.5;"/><rect fill="#F8F9FA" height="31.6094" rx="5" ry="5" style="stroke:#2C3E50;stroke-width:0.5;" width="63" x="1013.5" y="88.6094"/><text fill="#2C3E50" font-family="Helvetica" font-size="14" lengthAdjust="spacing" textLength="49" x="1020.5" y="110.1426">bcryptjs</text><rect fill="#F8F9FA" height="31.6094" rx="5" ry="5" style="stroke:#2C3E50;stroke-width:0.5;" width="63" x="1013.5" y="959.3828"/><text fill="#2C3E50" font-family="Helvetica" font-size="14" lengthAdjust="spacing" textLength="49" x="1020.5" y="980.916">bcryptjs</text><rect fill="#F8F9FA" height="31.6094" rx="5" ry="5" style="stroke:#2C3E50;stroke-width:0.5;" width="101" x="1086.5" y="88.6094"/><text fill="#2C3E50" font-family="Helvetica" font-size="14" lengthAdjust="spacing" textLength="87" x="1093.5" y="110.1426">TokenService</text><rect fill="#F8F9FA" height="31.6094" rx="5" ry="5" style="stroke:#2C3E50;stroke-width:0.5;" width="101" x="1086.5" y="959.3828"/><text fill="#2C3E50" font-family="Helvetica" font-size="14" lengthAdjust="spacing" textLength="87" x="1093.5" y="980.916">TokenService</text><rect fill="#F8F9FA" height="31.6094" rx="5" ry="5" style="stroke:#2C3E50;stroke-width:0.5;" width="94" x="1197.5" y="88.6094"/><text fill="#2C3E50" font-family="Helvetica" font-size="14" lengthAdjust="spacing" textLength="80" x="1204.5" y="110.1426">errorHandler</text><rect fill="#F8F9FA" height="31.6094" rx="5" ry="5" style="stroke:#2C3E50;stroke-width:0.5;" width="94" x="1197.5" y="959.3828"/><text fill="#2C3E50" font-family="Helvetica" font-size="14" lengthAdjust="spacing" textLength="80" x="1204.5" y="980.916">errorHandler</text><rect fill="#E8EDF2" height="780.4609" style="stroke:#2C3E50;stroke-width:1.0;" width="10" x="172" y="169.9219"/><rect fill="#E8EDF2" height="132.2422" style="stroke:#2C3E50;stroke-width:1.0;" width="10" x="275" y="200.2734"/><rect fill="#E8EDF2" height="565.5156" style="stroke:#2C3E50;stroke-width:1.0;" width="10" x="385" y="362.8672"/><rect fill="#E8EDF2" height="504.8125" style="stroke:#2C3E50;stroke-width:1.0;" width="10" x="543" y="393.2188"/><rect fill="#E8EDF2" height="91.0547" style="stroke:#2C3E50;stroke-width:1.0;" width="10" x="680" y="423.5703"/><rect fill="#E8EDF2" height="30.3516" style="stroke:#2C3E50;stroke-width:1.0;" width="10" x="1040" y="570.3281"/><rect fill="#E8EDF2" height="30.3516" style="stroke:#2C3E50;stroke-width:1.0;" width="10" x="1040" y="723.9219"/><rect fill="#E8EDF2" height="83.0547" style="stroke:#2C3E50;stroke-width:1.0;" width="10" x="1132" y="784.625"/><rect fill="#E8EDF2" height="30.3516" style="stroke:#2C3E50;stroke-width:1.0;" width="10" x="1239.5" y="647.3828"/><polygon fill="#2C3E50" points="160,165.9219,170,169.9219,160,173.9219,164,169.9219" style="stroke:#2C3E50;stroke-width:1.0;"/><line style="stroke:#2C3E50;stroke-width:1.0;" x1="51" x2="166" y1="169.9219" y2="169.9219"/><text fill="#2C3E50" font-family="Helvetica" font-size="13" lengthAdjust="spacing" textLength="70" x="58" y="148.7139">POST /login</text><text fill="#2C3E50" font-family="Helvetica" font-size="13" lengthAdjust="spacing" textLength="102" x="58" y="165.0654">{email, password}</text><polygon fill="#2C3E50" points="263,196.2734,273,200.2734,263,204.2734,267,200.2734" style="stroke:#2C3E50;stroke-width:1.0;"/><line style="stroke:#2C3E50;stroke-width:1.0;" x1="182" x2="269" y1="200.2734" y2="200.2734"/><text fill="#2C3E50" font-family="Helvetica" font-size="13" lengthAdjust="spacing" textLength="74" x="189" y="195.417">valida il body</text><path d="M15,215.2734 L71,215.2734 L71,223.625 L61,233.625 L10,233.625 L10,220.2734 A5,5 0 0 1 15,215.2734 " fill="#E8EDF2" style="stroke:#2C3E50;stroke-width:1.5;"/><rect fill="none" height="728.1094" rx="5" ry="5" style="stroke:#2C3E50;stroke-width:1.5;" width="1361" x="10" y="215.2734"/><text fill="#2C3E50" font-family="Helvetica" font-size="13" font-weight="bold" lengthAdjust="spacing" textLength="16" x="25" y="229.7686">alt</text><text fill="#000000" font-family="Helvetica" font-size="11" font-weight="bold" lengthAdjust="spacing" textLength="94" x="86" y="228.6924">[body non valido]</text><line style="stroke:#2C3E50;stroke-width:1.0;" x1="1242.5" x2="1232.5" y1="255.9766" y2="251.9766"/><line style="stroke:#2C3E50;stroke-width:1.0;" x1="1242.5" x2="1232.5" y1="255.9766" y2="259.9766"/><line style="stroke:#2C3E50;stroke-width:1.0;stroke-dasharray:2.0,2.0;" x1="285" x2="1243.5" y1="255.9766" y2="255.9766"/><text fill="#2C3E50" font-family="Helvetica" font-size="13" lengthAdjust="spacing" textLength="132" x="292" y="251.1201">next(BadRequestError)</text><line style="stroke:#2C3E50;stroke-width:1.0;" x1="52" x2="62" y1="286.3281" y2="282.3281"/><line style="stroke:#2C3E50;stroke-width:1.0;" x1="52" x2="62" y1="286.3281" y2="290.3281"/><line style="stroke:#2C3E50;stroke-width:1.0;stroke-dasharray:2.0,2.0;" x1="51" x2="1243.5" y1="286.3281" y2="286.3281"/><text fill="#2C3E50" font-family="Helvetica" font-size="13" lengthAdjust="spacing" textLength="59" x="68" y="281.4717">400 {error}</text><line style="stroke:#2C3E50;stroke-width:1.0;stroke-dasharray:2.0,2.0;" x1="10" x2="1371" y1="295.3281" y2="295.3281"/><text fill="#000000" font-family="Helvetica" font-size="11" font-weight="bold" lengthAdjust="spacing" textLength="70" x="15" y="306.7471">[body valido]</text><polygon fill="#2C3E50" points="193,328.5156,183,332.5156,193,336.5156,189,332.5156" style="stroke:#2C3E50;stroke-width:1.0;"/><line style="stroke:#2C3E50;stroke-width:1.0;stroke-dasharray:2.0,2.0;" x1="187" x2="279" y1="332.5156" y2="332.5156"/><text fill="#2C3E50" font-family="Helvetica" font-size="13" lengthAdjust="spacing" textLength="14" x="199" y="327.6592">ok</text><polygon fill="#2C3E50" points="373,358.8672,383,362.8672,373,366.8672,377,362.8672" style="stroke:#2C3E50;stroke-width:1.0;"/><line style="stroke:#2C3E50;stroke-width:1.0;" x1="182" x2="379" y1="362.8672" y2="362.8672"/><text fill="#2C3E50" font-family="Helvetica" font-size="13" lengthAdjust="spacing" textLength="79" x="189" y="358.0107">login(req, res)</text><polygon fill="#2C3E50" points="531,389.2188,541,393.2188,531,397.2188,535,393.2188" style="stroke:#2C3E50;stroke-width:1.0;"/><line style="stroke:#2C3E50;stroke-width:1.0;" x1="395" x2="537" y1="393.2188" y2="393.2188"/><text fill="#2C3E50" font-family="Helvetica" font-size="13" lengthAdjust="spacing" textLength="129" x="402" y="388.3623">login(email, password)</text><polygon fill="#2C3E50" points="668,419.5703,678,423.5703,668,427.5703,672,423.5703" style="stroke:#2C3E50;stroke-width:1.0;"/><line style="stroke:#2C3E50;stroke-width:1.0;" x1="553" x2="674" y1="423.5703" y2="423.5703"/><text fill="#2C3E50" font-family="Helvetica" font-size="13" lengthAdjust="spacing" textLength="108" x="560" y="418.7139">findByEmail(email)</text><polygon fill="#2C3E50" points="950,449.9219,960,453.9219,950,457.9219,954,453.9219" style="stroke:#2C3E50;stroke-width:1.0;"/><line style="stroke:#2C3E50;stroke-width:1.0;" x1="690" x2="956" y1="453.9219" y2="453.9219"/><text fill="#2C3E50" font-family="Helvetica" font-size="13" lengthAdjust="spacing" textLength="248" x="697" y="449.0654">SELECT * FROM users WHERE email = ?</text><polygon fill="#2C3E50" points="701,480.2734,691,484.2734,701,488.2734,697,484.2734" style="stroke:#2C3E50;stroke-width:1.0;"/><line style="stroke:#2C3E50;stroke-width:1.0;stroke-dasharray:2.0,2.0;" x1="695" x2="961" y1="484.2734" y2="484.2734"/><text fill="#2C3E50" font-family="Helvetica" font-size="13" lengthAdjust="spacing" textLength="79" x="707" y="479.417">utente (o null)</text><polygon fill="#2C3E50" points="564,510.625,554,514.625,564,518.625,560,514.625" style="stroke:#2C3E50;stroke-width:1.0;"/><line style="stroke:#2C3E50;stroke-width:1.0;stroke-dasharray:2.0,2.0;" x1="558" x2="684" y1="514.625" y2="514.625"/><text fill="#2C3E50" font-family="Helvetica" font-size="13" lengthAdjust="spacing" textLength="58" x="570" y="509.7686">User | null</text><path d="M25,529.625 L81,529.625 L81,537.9766 L71,547.9766 L20,547.9766 L20,534.625 A5,5 0 0 1 25,529.625 " fill="#E8EDF2" style="stroke:#2C3E50;stroke-width:1.5;"/><rect fill="none" height="406.7578" rx="5" ry="5" style="stroke:#2C3E50;stroke-width:1.5;" width="1341" x="20" y="529.625"/><text fill="#2C3E50" font-family="Helvetica" font-size="13" font-weight="bold" lengthAdjust="spacing" textLength="16" x="35" y="544.1201">alt</text><text fill="#000000" font-family="Helvetica" font-size="11" font-weight="bold" lengthAdjust="spacing" textLength="215" x="96" y="543.0439">[utente inesistente o password errata]</text><polygon fill="#2C3E50" points="1028,566.3281,1038,570.3281,1028,574.3281,1032,570.3281" style="stroke:#2C3E50;stroke-width:1.0;"/><line style="stroke:#2C3E50;stroke-width:1.0;" x1="553" x2="1034" y1="570.3281" y2="570.3281"/><text fill="#2C3E50" font-family="Helvetica" font-size="13" lengthAdjust="spacing" textLength="205" x="560" y="565.4717">compare(password, user.password)</text><polygon fill="#2C3E50" points="564,596.6797,554,600.6797,564,604.6797,560,600.6797" style="stroke:#2C3E50;stroke-width:1.0;"/><line style="stroke:#2C3E50;stroke-width:1.0;stroke-dasharray:2.0,2.0;" x1="558" x2="1044" y1="600.6797" y2="600.6797"/><text fill="#2C3E50" font-family="Helvetica" font-size="13" lengthAdjust="spacing" textLength="27" x="570" y="595.8232">false</text><line style="stroke:#2C3E50;stroke-width:1.0;" x1="1237.5" x2="1227.5" y1="647.3828" y2="643.3828"/><line style="stroke:#2C3E50;stroke-width:1.0;" x1="1237.5" x2="1227.5" y1="647.3828" y2="651.3828"/><line style="stroke:#2C3E50;stroke-width:1.0;stroke-dasharray:2.0,2.0;" x1="553" x2="1238.5" y1="647.3828" y2="647.3828"/><text fill="#2C3E50" font-family="Helvetica" font-size="13" lengthAdjust="spacing" textLength="139" x="560" y="626.1748">throw UnauthorizedError</text><text fill="#2C3E50" font-family="Helvetica" font-size="13" lengthAdjust="spacing" textLength="143" x="560" y="642.5264">("Credenziali non valide")</text><line style="stroke:#2C3E50;stroke-width:1.0;" x1="52" x2="62" y1="677.7344" y2="673.7344"/><line style="stroke:#2C3E50;stroke-width:1.0;" x1="52" x2="62" y1="677.7344" y2="681.7344"/><line style="stroke:#2C3E50;stroke-width:1.0;stroke-dasharray:2.0,2.0;" x1="51" x2="1243.5" y1="677.7344" y2="677.7344"/><text fill="#2C3E50" font-family="Helvetica" font-size="13" lengthAdjust="spacing" textLength="59" x="68" y="672.8779">401 {error}</text><line style="stroke:#2C3E50;stroke-width:1.0;stroke-dasharray:2.0,2.0;" x1="20" x2="1361" y1="686.7344" y2="686.7344"/><text fill="#000000" font-family="Helvetica" font-size="11" font-weight="bold" lengthAdjust="spacing" textLength="116" x="25" y="698.1533">[credenziali corrette]</text><polygon fill="#2C3E50" points="1028,719.9219,1038,723.9219,1028,727.9219,1032,723.9219" style="stroke:#2C3E50;stroke-width:1.0;"/><line style="stroke:#2C3E50;stroke-width:1.0;" x1="553" x2="1034" y1="723.9219" y2="723.9219"/><text fill="#2C3E50" font-family="Helvetica" font-size="13" lengthAdjust="spacing" textLength="205" x="560" y="719.0654">compare(password, user.password)</text><polygon fill="#2C3E50" points="564,750.2734,554,754.2734,564,758.2734,560,754.2734" style="stroke:#2C3E50;stroke-width:1.0;"/><line style="stroke:#2C3E50;stroke-width:1.0;stroke-dasharray:2.0,2.0;" x1="558" x2="1044" y1="754.2734" y2="754.2734"/><text fill="#2C3E50" font-family="Helvetica" font-size="13" lengthAdjust="spacing" textLength="22" x="570" y="749.417">true</text><polygon fill="#2C3E50" points="1120,780.625,1130,784.625,1120,788.625,1124,784.625" style="stroke:#2C3E50;stroke-width:1.0;"/><line style="stroke:#2C3E50;stroke-width:1.0;" x1="553" x2="1126" y1="784.625" y2="784.625"/><text fill="#2C3E50" font-family="Helvetica" font-size="13" lengthAdjust="spacing" textLength="118" x="560" y="779.7686">sign({id, email, role})</text><path d="M1147,802.625 L1147,834.625 A5,5 0 0 0 1152,839.625 L1346,839.625 A5,5 0 0 0 1351,834.625 L1351,807.625 L1341,797.625 L1152,797.625 A5,5 0 0 0 1147,802.625 " fill="#FFF8DC" style="stroke:#B8A160;stroke-width:0.5;"/><path d="M1341,797.625 L1341,805.125 A2.5,2.5 0 0 0 1343.5,807.625 L1351,807.625 L1341,797.625 " fill="#FFF8DC" style="stroke:#B8A160;stroke-width:0.5;"/><text fill="#4A4030" font-family="Helvetica" font-size="13" lengthAdjust="spacing" textLength="183" x="1153" y="816.1201">Firma con Private Key (RS256).</text><text fill="#4A4030" font-family="Helvetica" font-size="13" lengthAdjust="spacing" textLength="145" x="1153" y="832.4717">(Payload = soli metadati)</text><polygon fill="#2C3E50" points="564,863.6797,554,867.6797,564,871.6797,560,867.6797" style="stroke:#2C3E50;stroke-width:1.0;"/><line style="stroke:#2C3E50;stroke-width:1.0;stroke-dasharray:2.0,2.0;" x1="558" x2="1136" y1="867.6797" y2="867.6797"/><text fill="#2C3E50" font-family="Helvetica" font-size="13" lengthAdjust="spacing" textLength="26" x="570" y="862.8232">JWT</text><polygon fill="#2C3E50" points="406,894.0313,396,898.0313,406,902.0313,402,898.0313" style="stroke:#2C3E50;stroke-width:1.0;"/><line style="stroke:#2C3E50;stroke-width:1.0;stroke-dasharray:2.0,2.0;" x1="400" x2="547" y1="898.0313" y2="898.0313"/><text fill="#2C3E50" font-family="Helvetica" font-size="13" lengthAdjust="spacing" textLength="32" x="412" y="893.1748">token</text><polygon fill="#2C3E50" points="62,924.3828,52,928.3828,62,932.3828,58,928.3828" style="stroke:#2C3E50;stroke-width:1.0;"/><line style="stroke:#2C3E50;stroke-width:1.0;stroke-dasharray:2.0,2.0;" x1="56" x2="389" y1="928.3828" y2="928.3828"/><text fill="#2C3E50" font-family="Helvetica" font-size="13" lengthAdjust="spacing" textLength="65" x="68" y="923.5264">200 {token}</text><!--SRC=[hLHHJzim47xFhxZrAKp06DhsWBHE92j26nDT4k05QJB9qNguTh6TifRnttU-jA49sziUgkPytzrzT_VPhwGkLLqX_71-gN1_NizKvALN2CUrH-rbALRIQ8JuorK1MNxu_iDE58dI6mkfaeI8vi8IJCw5zZ0GjPzcXaBT08I3hEjT22KhuJ4nrV9QnojJxJ3iiWkZqjFKQ6-DKcWPaRv4v6WNiaHsvrttXKFx-VYSNVGVKKrn8np2O6oSdrZClvyrpgGRU5FQvTp_RCZtV8MvGxrTjEZwqLfZJuMkDfn7fr7Kp0ZsXf314OpFymBUA3EH-be_uan8jGjpuTo3iTLJ6AjSq7XeR5a8kQIGPcGW5TpGq9uXbv5Gdiz06zt0J0GKixSt759jYjNuoyU9g3Ayhz7vKI2uGnXoCcXDxWZU7Hp08_D_Yb3Hd3XlDoStOEx8h72B1G1JJSd9VSKMxtV1eWk5MbnAHXfmUOlhTT-1vsJa0KxBeu1RgQjaEGe1JLW771OCZ0m12U7pqTaeBU0rd6Jdtw0cCJYuEXrb8-1e-0YVGaJ2RJKbMEoaSWEwLfoV4wuP1pt1RtPr-m-r0nTQnJg3rEYaQxvDsntGS4c315qt5cYMPaO2mdW3scMg-ziJsMepOJDfETqAMXIVRV59DXLQ3VYfDGzmeSF5D5Qki68PqEqRf1Ohr2j9QtxM40vwTKd5mVwBPjwsckcnu13MKRbLeZJMelVuFuVWRVtl6GoX88YJ4nq_IagyLXozAlZKorkmgGrzMZcPUZ2twpE04sbdWdXg6Di6_HMN43TluVuQ58_5KXbHaRQSeMPdw0MzEhAfWxhYv6mKBNjwKllaY-S5yftouT7fWt8-I1lGPX-7uGup_CK-mkqZ2b7uRHrdVm00]--></g></svg>