<?xml version="1.0" encoding="us-ascii" standalone="no"?><svg xmlns="http://www.w3.org/2000/svg" xmlns:xlink="http://www.w3.org/1999/xlink" contentStyleType="text/css" height="2106px" preserveAspectRatio="none" style="width:1923px;height:2106px;background:#FFFFFF;" version="1.1" viewBox="0 0 1923 2106" width="1923px" zoomAndPan="magnify"><defs/><g><text fill="#000000" font-family="Helvetica" font-size="14" font-weight="bold" lengthAdjust="spacing" textLength="329" x="793" y="29.5332">Creazione partita PvP (Transazione + Addebito)</text><rect fill="#E8EDF2" height="1827.7656" style="stroke:#2C3E50;stroke-width:1.0;" width="10" x="340" y="186.2734"/><rect fill="#E8EDF2" height="30.3516" style="stroke:#2C3E50;stroke-width:1.0;" width="10" x="474" y="260.9766"/><rect fill="#E8EDF2" height="261.1641" style="stroke:#2C3E50;stroke-width:1.0;" width="10" x="574.5" y="321.6797"/><rect fill="#E8EDF2" height="30.3516" style="stroke:#2C3E50;stroke-width:1.0;" width="10" x="676.5" y="613.1953"/><rect fill="#E8EDF2" height="1273.7891" style="stroke:#2C3E50;stroke-width:1.0;" width="10" x="791" y="718.25"/><rect fill="#E8EDF2" height="1117.0313" style="stroke:#2C3E50;stroke-width:1.0;" width="10" x="1063" y="748.6016"/><rect fill="#E8EDF2" height="83.0547" style="stroke:#2C3E50;stroke-width:1.0;" width="10" x="1288" y="1539.7656"/><rect fill="#E8EDF2" height="1056.3281" style="stroke:#2C3E50;stroke-width:1.0;" width="10" x="1735.5" y="778.9531"/><rect fill="none" height="95.4063" rx="5" ry="5" style="stroke:#2C3E50;stroke-width:1.5;" width="1876" x="20" y="458.0859"/><rect fill="none" height="1022.625" rx="5" ry="5" style="stroke:#2C3E50;stroke-width:1.5;" width="1896" x="10" y="984.4141"/><rect fill="none" height="745.625" rx="5" ry="5" style="stroke:#2C3E50;stroke-width:1.5;" width="1876" x="20" y="1254.4141"/><line style="stroke:#2C3E50;stroke-width:0.5;stroke-dasharray:5.0,5.0;" x1="51" x2="51" y1="121.2188" y2="2024.0391"/><line style="stroke:#2C3E50;stroke-width:0.5;stroke-dasharray:5.0,5.0;" x1="345" x2="345" y1="121.2188" y2="2024.0391"/><line style="stroke:#2C3E50;stroke-width:0.5;stroke-dasharray:5.0,5.0;" x1="479" x2="479" y1="121.2188" y2="2024.0391"/><line style="stroke:#2C3E50;stroke-width:0.5;stroke-dasharray:5.0,5.0;" x1="579" x2="579" y1="121.2188" y2="2024.0391"/><line style="stroke:#2C3E50;stroke-width:0.5;stroke-dasharray:5.0,5.0;" x1="681" x2="681" y1="121.2188" y2="2024.0391"/><line style="stroke:#2C3E50;stroke-width:0.5;stroke-dasharray:5.0,5.0;" x1="796" x2="796" y1="121.2188" y2="2024.0391"/><line style="stroke:#2C3E50;stroke-width:0.5;stroke-dasharray:5.0,5.0;" x1="1067.5" x2="1067.5" y1="121.2188" y2="2024.0391"/><line style="stroke:#2C3E50;stroke-width:0.5;stroke-dasharray:5.0,5.0;" x1="1293" x2="1293" y1="121.2188" y2="2024.0391"/><line style="stroke:#2C3E50;stroke-width:0.5;stroke-dasharray:5.0,5.0;" x1="1372" x2="1372" y1="121.2188" y2="2024.0391"/><line style="stroke:#2C3E50;stroke-width:0.5;stroke-dasharray:5.0,5.0;" x1="1459" x2="1459" y1="121.2188" y2="2024.0391"/><line style="stroke:#2C3E50;stroke-width:0.5;stroke-dasharray:5.0,5.0;" x1="1740" x2="1740" y1="121.2188" y2="2024.0391"/><line style="stroke:#2C3E50;stroke-width:0.5;stroke-dasharray:5.0,5.0;" x1="1839" x2="1839" y1="121.2188" y2="2024.0391"/><text fill="#000000" font-family="Helvetica" font-size="14" lengthAdjust="spacing" textLength="36" x="30" y="118.1426">Client</text><ellipse cx="51" cy="52.1094" fill="#F8F9FA" rx="8" ry="8" style="stroke:#2C3E50;stroke-width:0.5;"/><path d="M51,60.1094 L51,87.1094 M38,68.1094 L64,68.1094 M51,87.1094 L38,102.1094 M51,87.1094 L64,102.1094 " fill="none" style="stroke:#2C3E50;stroke-width:0.5;"/><text fill="#000000" font-family="Helvetica" font-size="14" lengthAdjust="spacing" textLength="36" x="30" y="2037.5723">Client</text><ellipse cx="51" cy="2049.1484" fill="#F8F9FA" rx="8" ry="8" style="stroke:#2C3E50;stroke-width:0.5;"/><path d="M51,2057.1484 L51,2084.1484 M38,2065.1484 L64,2065.1484 M51,2084.1484 L38,2099.1484 M51,2084.1484 L64,2099.1484 " fill="none" style="stroke:#2C3E50;stroke-width:0.5;"/><rect fill="#F8F9FA" height="31.6094" rx="5" ry="5" style="stroke:#2C3E50;stroke-width:0.5;" width="94" x="298" y="88.6094"/><text fill="#2C3E50" font-family="Helvetica" font-size="14" lengthAdjust="spacing" textLength="80" x="305" y="110.1426">gameRoutes</text><rect fill="#F8F9FA" height="31.6094" rx="5" ry="5" style="stroke:#2C3E50;stroke-width:0.5;" width="94" x="298" y="2023.0391"/><text fill="#2C3E50" font-family="Helvetica" font-size="14" lengthAdjust="spacing" textLength="80" x="305" y="2044.5723">gameRoutes</text><rect fill="#F8F9FA" height="31.6094" rx="5" ry="5" style="stroke:#2C3E50;stroke-width:0.5;" width="92" x="433" y="88.6094"/><text fill="#2C3E50" font-family="Helvetica" font-size="14" lengthAdjust="spacing" textLength="78" x="440" y="110.1426">authenticate</text><rect fill="#F8F9FA" height="31.6094" rx="5" ry="5" style="stroke:#2C3E50;stroke-width:0.5;" width="92" x="433" y="2023.0391"/><text fill="#2C3E50" font-family="Helvetica" font-size="14" lengthAdjust="spacing" textLength="78" x="440" y="2044.5723">authenticate</text><rect fill="#F8F9FA" height="31.6094" rx="5" ry="5" style="stroke:#2C3E50;stroke-width:0.5;" width="89" x="535" y="88.6094"/><text fill="#2C3E50" font-family="Helvetica" font-size="14" lengthAdjust="spacing" textLength="75" x="542" y="110.1426">checkCredit</text><rect fill="#F8F9FA" height="31.6094" rx="5" ry="5" style="stroke:#2C3E50;stroke-width:0.5;" width="89" x="535" y="2023.0391"/><text fill="#2C3E50" font-family="Helvetica" font-size="14" lengthAdjust="spacing" textLength="75" x="542" y="2044.5723">checkCredit</text><rect fill="#F8F9FA" height="49.2188" rx="5" ry="5" style="stroke:#2C3E50;stroke-width:0.5;" width="95" x="634" y="71"/><text fill="#2C3E50" font-family="Helvetica" font-size="14" lengthAdjust="spacing" textLength="81" x="641" y="92.5332">validateBody</text><text fill="#2C3E50" font-family="Helvetica" font-size="14" lengthAdjust="spacing" textLength="32" x="665.5" y="110.1426">(zod)</text><rect fill="#F8F9FA" height="49.2188" rx="5" ry="5" style="stroke:#2C3E50;stroke-width:0.5;" width="95" x="634" y="2023.0391"/><text fill="#2C3E50" font-family="Helvetica" font-size="14" lengthAdjust="spacing" textLength="81" x="641" y="2044.5723">validateBody</text><text fill="#2C3E50" font-family="Helvetica" font-size="14" lengthAdjust="spacing" textLength="32" x="665.5" y="2062.1816">(zod)</text><rect fill="#F8F9FA" height="31.6094" rx="5" ry="5" style="stroke:#2C3E50;stroke-width:0.5;" width="114" x="739" y="88.6094"/><text fill="#2C3E50" font-family="Helvetica" font-size="14" lengthAdjust="spacing" textLength="100" x="746" y="110.1426">GameController</text><rect fill="#F8F9FA" height="31.6094" rx="5" ry="5" style="stroke:#2C3E50;stroke-width:0.5;" width="114" x="739" y="2023.0391"/><text fill="#2C3E50" font-family="Helvetica" font-size="14" lengthAdjust="spacing" textLength="100" x="746" y="2044.5723">GameController</text><rect fill="#F8F9FA" height="31.6094" rx="5" ry="5" style="stroke:#2C3E50;stroke-width:0.5;" width="99" x="1018.5" y="88.6094"/><text fill="#2C3E50" font-family="Helvetica" font-size="14" lengthAdjust="spacing" textLength="85" x="1025.5" y="110.1426">GameService</text><rect fill="#F8F9FA" height="31.6094" rx="5" ry="5" style="stroke:#2C3E50;stroke-width:0.5;" width="99" x="1018.5" y="2023.0391"/><text fill="#2C3E50" font-family="Helvetica" font-size="14" lengthAdjust="spacing" textLength="85" x="1025.5" y="2044.5723">GameService</text><rect fill="#F8F9FA" height="31.6094" rx="5" ry="5" style="stroke:#2C3E50;stroke-width:0.5;" width="56" x="1265" y="88.6094"/><text fill="#2C3E50" font-family="Helvetica" font-size="14" lengthAdjust="spacing" textLength="42" x="1272" y="110.1426">fleet.ts</text><rect fill="#F8F9FA" height="31.6094" rx="5" ry="5" style="stroke:#2C3E50;stroke-width:0.5;" width="56" x="1265" y="2023.0391"/><text fill="#2C3E50" font-family="Helvetica" font-size="14" lengthAdjust="spacing" textLength="42" x="1272" y="2044.5723">fleet.ts</text><rect fill="#F8F9FA" height="31.6094" rx="5" ry="5" style="stroke:#2C3E50;stroke-width:0.5;" width="82" x="1331" y="88.6094"/><text fill="#2C3E50" font-family="Helvetica" font-size="14" lengthAdjust="spacing" textLength="68" x="1338" y="110.1426">GameDAO</text><rect fill="#F8F9FA" height="31.6094" rx="5" ry="5" style="stroke:#2C3E50;stroke-width:0.5;" width="82" x="1331" y="2023.0391"/><text fill="#2C3E50" font-family="Helvetica" font-size="14" lengthAdjust="spacing" textLength="68" x="1338" y="2044.5723">GameDAO</text><rect fill="#F8F9FA" height="31.6094" rx="5" ry="5" style="stroke:#2C3E50;stroke-width:0.5;" width="73" x="1423" y="88.6094"/><text fill="#2C3E50" font-family="Helvetica" font-size="14" lengthAdjust="spacing" textLength="59" x="1430" y="110.1426">UserDAO</text><rect fill="#F8F9FA" height="31.6094" rx="5" ry="5" style="stroke:#2C3E50;stroke-width:0.5;" width="73" x="1423" y="2023.0391"/><text fill="#2C3E50" font-family="Helvetica" font-size="14" lengthAdjust="spacing" textLength="59" x="1430" y="2044.5723">UserDAO</text><text fill="#000000" font-family="Helvetica" font-size="14" lengthAdjust="spacing" textLength="77" x="1699" y="118.1426">PostgreSQL</text><path d="M1722.5,67.6094 C1722.5,57.6094 1740.5,57.6094 1740.5,57.6094 C1740.5,57.6094 1758.5,57.6094 1758.5,67.6094 L1758.5,93.6094 C1758.5,103.6094 1740.5,103.6094 1740.5,103.6094 C1740.5,103.6094 1722.5,103.6094 1722.5,93.6094 L1722.5,67.6094 " fill="#F8F9FA" style="stroke:#2C3E50;stroke-width:1.5;"/><path d="M1722.5,67.6094 C1722.5,77.6094 1740.5,77.6094 1740.5,77.6094 C1740.5,77.6094 1758.5,77.6094 1758.5,67.6094 " fill="none" style="stroke:#2C3E50;stroke-width:1.5;"/><text fill="#000000" font-family="Helvetica" font-size="14" lengthAdjust="spacing" textLength="77" x="1699" y="2037.5723">PostgreSQL</text><path d="M1722.5,2050.6484 C1722.5,2040.6484 1740.5,2040.6484 1740.5,2040.6484 C1740.5,2040.6484 1758.5,2040.6484 1758.5,2050.6484 L1758.5,2076.6484 C1758.5,2086.6484 1740.5,2086.6484 1740.5,2086.6484 C1740.5,2086.6484 1722.5,2086.6484 1722.5,2076.6484 L1722.5,2050.6484 " fill="#F8F9FA" style="stroke:#2C3E50;stroke-width:1.5;"/><path d="M1722.5,2050.6484 C1722.5,2060.6484 1740.5,2060.6484 1740.5,2060.6484 C1740.5,2060.6484 1758.5,2060.6484 1758.5,2050.6484 " fill="none" style="stroke:#2C3E50;stroke-width:1.5;"/><rect fill="#F8F9FA" height="31.6094" rx="5" ry="5" style="stroke:#2C3E50;stroke-width:0.5;" width="94" x="1792" y="88.6094"/><text fill="#2C3E50" font-family="Helvetica" font-size="14" lengthAdjust="spacing" textLength="80" x="1799" y="110.1426">errorHandler</text><rect fill="#F8F9FA" height="31.6094" rx="5" ry="5" style="stroke:#2C3E50;stroke-width:0.5;" width="94" x="1792" y="2023.0391"/><text fill="#2C3E50" font-family="Helvetica" font-size="14" lengthAdjust="spacing" textLength="80" x="1799" y="2044.5723">errorHandler</text><rect fill="#E8EDF2" height="1827.7656" style="stroke:#2C3E50;stroke-width:1.0;" width="10" x="340" y="186.2734"/><rect fill="#E8EDF2" height="30.3516" style="stroke:#2C3E50;stroke-width:1.0;" width="10" x="474" y="260.9766"/><rect fill="#E8EDF2" height="261.1641" style="stroke:#2C3E50;stroke-width:1.0;" width="10" x="574.5" y="321.6797"/><rect fill="#E8EDF2" height="30.3516" style="stroke:#2C3E50;stroke-width:1.0;" width="10" x="676.5" y="613.1953"/><rect fill="#E8EDF2" height="1273.7891" style="stroke:#2C3E50;stroke-width:1.0;" width="10" x="791" y="718.25"/><rect fill="#E8EDF2" height="1117.0313" style="stroke:#2C3E50;stroke-width:1.0;" width="10" x="1063" y="748.6016"/><rect fill="#E8EDF2" height="83.0547" style="stroke:#2C3E50;stroke-width:1.0;" width="10" x="1288" y="1539.7656"/><rect fill="#E8EDF2" height="1056.3281" style="stroke:#2C3E50;stroke-width:1.0;" width="10" x="1735.5" y="778.9531"/><polygon fill="#2C3E50" points="328,182.2734,338,186.2734,328,190.2734,332,186.2734" style="stroke:#2C3E50;stroke-width:1.0;"/><line style="stroke:#2C3E50;stroke-width:1.0;" x1="51" x2="334" y1="186.2734" y2="186.2734"/><text fill="#2C3E50" font-family="Helvetica" font-size="13" lengthAdjust="spacing" textLength="82" x="58" y="148.7139">POST /games</text><text fill="#2C3E50" font-family="Helvetica" font-size="13" lengthAdjust="spacing" textLength="84" x="58" y="165.0654">Bearer &lt;JWT&gt;</text><text fill="#2C3E50" font-family="Helvetica" font-size="13" lengthAdjust="spacing" textLength="270" x="58" y="181.417">{type, gridSize, ships, opponentEmail, silence}</text><rect fill="#E8EDF2" height="3" rx="5" ry="5" style="stroke:#E8EDF2;stroke-width:1.0;" width="1916" x="0" y="215.4492"/><line style="stroke:#2C3E50;stroke-width:1.0;" x1="0" x2="1916" y1="215.4492" y2="215.4492"/><line style="stroke:#2C3E50;stroke-width:1.0;" x1="0" x2="1916" y1="218.4492" y2="218.4492"/><rect fill="#E8EDF2" height="24.3516" rx="5" ry="5" style="stroke:#2C3E50;stroke-width:2.0;" width="158" x="879" y="204.2734"/><text fill="#000000" font-family="Helvetica" font-size="13" font-weight="bold" lengthAdjust="spacing" textLength="140" x="885" y="221.7686">Catena di Middleware</text><polygon fill="#2C3E50" points="462,256.9766,472,260.9766,462,264.9766,466,260.9766" style="stroke:#2C3E50;stroke-width:1.0;"/><line style="stroke:#2C3E50;stroke-width:1.0;" x1="350" x2="468" y1="260.9766" y2="260.9766"/><text fill="#2C3E50" font-family="Helvetica" font-size="13" lengthAdjust="spacing" textLength="53" x="357" y="256.1201">autentica</text><polygon fill="#2C3E50" points="361,287.3281,351,291.3281,361,295.3281,357,291.3281" style="stroke:#2C3E50;stroke-width:1.0;"/><line style="stroke:#2C3E50;stroke-width:1.0;stroke-dasharray:2.0,2.0;" x1="355" x2="478" y1="291.3281" y2="291.3281"/><text fill="#2C3E50" font-family="Helvetica" font-size="13" lengthAdjust="spacing" textLength="100" x="367" y="286.4717">req.user popolato</text><polygon fill="#2C3E50" points="562.5,317.6797,572.5,321.6797,562.5,325.6797,566.5,321.6797" style="stroke:#2C3E50;stroke-width:1.0;"/><line style="stroke:#2C3E50;stroke-width:1.0;" x1="350" x2="568.5" y1="321.6797" y2="321.6797"/><text fill="#2C3E50" font-family="Helvetica" font-size="13" lengthAdjust="spacing" textLength="82" x="357" y="316.8232">verifica credito</text><polygon fill="#2C3E50" points="1447.5,348.0313,1457.5,352.0313,1447.5,356.0313,1451.5,352.0313" style="stroke:#2C3E50;stroke-width:1.0;"/><line style="stroke:#2C3E50;stroke-width:1.0;" x1="584.5" x2="1453.5" y1="352.0313" y2="352.0313"/><text fill="#2C3E50" font-family="Helvetica" font-size="13" lengthAdjust="spacing" textLength="121" x="591.5" y="347.1748">findByPk(req.user.id)</text><polygon fill="#2C3E50" points="1728.5,378.3828,1738.5,382.3828,1728.5,386.3828,1732.5,382.3828" style="stroke:#2C3E50;stroke-width:1.0;"/><line style="stroke:#2C3E50;stroke-width:1.0;" x1="1459.5" x2="1734.5" y1="382.3828" y2="382.3828"/><text fill="#2C3E50" font-family="Helvetica" font-size="13" lengthAdjust="spacing" textLength="93" x="1466.5" y="377.5264">SELECT tokens</text><polygon fill="#2C3E50" points="1470.5,408.7344,1460.5,412.7344,1470.5,416.7344,1466.5,412.7344" style="stroke:#2C3E50;stroke-width:1.0;"/><line style="stroke:#2C3E50;stroke-width:1.0;stroke-dasharray:2.0,2.0;" x1="1464.5" x2="1739.5" y1="412.7344" y2="412.7344"/><text fill="#2C3E50" font-family="Helvetica" font-size="13" lengthAdjust="spacing" textLength="39" x="1476.5" y="407.8779">tokens</text><polygon fill="#2C3E50" points="595.5,439.0859,585.5,443.0859,595.5,447.0859,591.5,443.0859" style="stroke:#2C3E50;stroke-width:1.0;"/><line style="stroke:#2C3E50;stroke-width:1.0;stroke-dasharray:2.0,2.0;" x1="589.5" x2="1458.5" y1="443.0859" y2="443.0859"/><text fill="#2C3E50" font-family="Helvetica" font-size="13" lengthAdjust="spacing" textLength="27" x="601.5" y="438.2295">User</text><path d="M25,458.0859 L81,458.0859 L81,466.4375 L71,476.4375 L20,476.4375 L20,463.0859 A5,5 0 0 1 25,458.0859 " fill="#E8EDF2" style="stroke:#2C3E50;stroke-width:1.5;"/><rect fill="none" height="95.4063" rx="5" ry="5" style="stroke:#2C3E50;stroke-width:1.5;" width="1876" x="20" y="458.0859"/><text fill="#2C3E50" font-family="Helvetica" font-size="13" font-weight="bold" lengthAdjust="spacing" textLength="16" x="35" y="472.5811">alt</text><text fill="#000000" font-family="Helvetica" font-size="11" font-weight="bold" lengthAdjust="spacing" textLength="71" x="96" y="471.5049">[tokens &lt;= 0]</text><line style="stroke:#2C3E50;stroke-width:1.0;" x1="1837" x2="1827" y1="515.1406" y2="511.1406"/><line style="stroke:#2C3E50;stroke-width:1.0;" x1="1837" x2="1827" y1="515.1406" y2="519.1406"/><line style="stroke:#2C3E50;stroke-width:1.0;stroke-dasharray:2.0,2.0;" x1="584.5" x2="1838" y1="515.1406" y2="515.1406"/><text fill="#2C3E50" font-family="Helvetica" font-size="13" lengthAdjust="spacing" textLength="133" x="591.5" y="493.9326">next(UnauthorizedError</text><text fill="#2C3E50" font-family="Helvetica" font-size="13" lengthAdjust="spacing" textLength="105" x="591.5" y="510.2842">"Credito esaurito")</text><line style="stroke:#2C3E50;stroke-width:1.0;" x1="52" x2="62" y1="545.4922" y2="541.4922"/><line style="stroke:#2C3E50;stroke-width:1.0;" x1="52" x2="62" y1="545.4922" y2="549.4922"/><line style="stroke:#2C3E50;stroke-width:1.0;stroke-dasharray:2.0,2.0;" x1="51" x2="1838" y1="545.4922" y2="545.4922"/><text fill="#2C3E50" font-family="Helvetica" font-size="13" lengthAdjust="spacing" textLength="59" x="68" y="540.6357">401 {error}</text><polygon fill="#2C3E50" points="361,578.8438,351,582.8438,361,586.8438,357,582.8438" style="stroke:#2C3E50;stroke-width:1.0;"/><line style="stroke:#2C3E50;stroke-width:1.0;stroke-dasharray:2.0,2.0;" x1="355" x2="578.5" y1="582.8438" y2="582.8438"/><text fill="#2C3E50" font-family="Helvetica" font-size="13" lengthAdjust="spacing" textLength="14" x="367" y="577.9873">ok</text><polygon fill="#2C3E50" points="664.5,609.1953,674.5,613.1953,664.5,617.1953,668.5,613.1953" style="stroke:#2C3E50;stroke-width:1.0;"/><line style="stroke:#2C3E50;stroke-width:1.0;" x1="350" x2="670.5" y1="613.1953" y2="613.1953"/><text fill="#2C3E50" font-family="Helvetica" font-size="13" lengthAdjust="spacing" textLength="74" x="357" y="608.3389">valida il body</text><polygon fill="#2C3E50" points="361,639.5469,351,643.5469,361,647.5469,357,643.5469" style="stroke:#2C3E50;stroke-width:1.0;"/><line style="stroke:#2C3E50;stroke-width:1.0;stroke-dasharray:2.0,2.0;" x1="355" x2="680.5" y1="643.5469" y2="643.5469"/><text fill="#2C3E50" font-family="Helvetica" font-size="13" lengthAdjust="spacing" textLength="139" x="367" y="638.6904">dati validati (con default)</text><rect fill="#E8EDF2" height="3" rx="5" ry="5" style="stroke:#E8EDF2;stroke-width:1.0;" width="1916" x="0" y="672.7227"/><line style="stroke:#2C3E50;stroke-width:1.0;" x1="0" x2="1916" y1="672.7227" y2="672.7227"/><line style="stroke:#2C3E50;stroke-width:1.0;" x1="0" x2="1916" y1="675.7227" y2="675.7227"/><rect fill="#E8EDF2" height="24.3516" rx="5" ry="5" style="stroke:#2C3E50;stroke-width:2.0;" width="136" x="890" y="661.5469"/><text fill="#000000" font-family="Helvetica" font-size="13" font-weight="bold" lengthAdjust="spacing" textLength="118" x="896" y="679.042">Controller e logica</text><polygon fill="#2C3E50" points="779,714.25,789,718.25,779,722.25,783,718.25" style="stroke:#2C3E50;stroke-width:1.0;"/><line style="stroke:#2C3E50;stroke-width:1.0;" x1="350" x2="785" y1="718.25" y2="718.25"/><text fill="#2C3E50" font-family="Helvetica" font-size="13" lengthAdjust="spacing" textLength="88" x="357" y="713.3936">create(req, res)</text><polygon fill="#2C3E50" points="1051,744.6016,1061,748.6016,1051,752.6016,1055,748.6016" style="stroke:#2C3E50;stroke-width:1.0;"/><line style="stroke:#2C3E50;stroke-width:1.0;" x1="801" x2="1057" y1="748.6016" y2="748.6016"/><text fill="#2C3E50" font-family="Helvetica" font-size="13" lengthAdjust="spacing" textLength="243" x="808" y="743.7451">createGame({creatorId, type, ...,  silence})</text><polygon fill="#2C3E50" points="1723.5,774.9531,1733.5,778.9531,1723.5,782.9531,1727.5,778.9531" style="stroke:#2C3E50;stroke-width:1.0;"/><line style="stroke:#2C3E50;stroke-width:1.0;" x1="1073" x2="1729.5" y1="778.9531" y2="778.9531"/><text fill="#2C3E50" font-family="Helvetica" font-size="13" lengthAdjust="spacing" textLength="134" x="1080" y="774.0967">BEGIN TRANSACTION</text><polygon fill="#2C3E50" points="1447.5,805.3047,1457.5,809.3047,1447.5,813.3047,1451.5,809.3047" style="stroke:#2C3E50;stroke-width:1.0;"/><line style="stroke:#2C3E50;stroke-width:1.0;" x1="1073" x2="1453.5" y1="809.3047" y2="809.3047"/><text fill="#2C3E50" font-family="Helvetica" font-size="13" lengthAdjust="spacing" textLength="180" x="1080" y="804.4482">findByPk(creatorId, {lock: true})</text><polygon fill="#2C3E50" points="1723.5,835.6563,1733.5,839.6563,1723.5,843.6563,1727.5,839.6563" style="stroke:#2C3E50;stroke-width:1.0;"/><line style="stroke:#2C3E50;stroke-width:1.0;" x1="1459.5" x2="1729.5" y1="839.6563" y2="839.6563"/><text fill="#2C3E50" font-family="Helvetica" font-size="13" lengthAdjust="spacing" textLength="153" x="1466.5" y="834.7998">SELECT ... FOR UPDATE</text><path d="M1464,857.6563 L1464,906.6563 A5,5 0 0 0 1469,911.6563 L1658,911.6563 A5,5 0 0 0 1663,906.6563 L1663,862.6563 L1653,852.6563 L1469,852.6563 A5,5 0 0 0 1464,857.6563 " fill="#FFF8DC" style="stroke:#B8A160;stroke-width:0.5;"/><path d="M1653,852.6563 L1653,860.1563 A2.5,2.5 0 0 0 1655.5,862.6563 L1663,862.6563 L1653,852.6563 " fill="#FFF8DC" style="stroke:#B8A160;stroke-width:0.5;"/><text fill="#4A4030" font-family="Helvetica" font-size="13" lengthAdjust="spacing" textLength="172" x="1470" y="871.1514">Row lock: serializza creazioni</text><text fill="#4A4030" font-family="Helvetica" font-size="13" lengthAdjust="spacing" textLength="178" x="1470" y="887.5029">concorrenti dello stesso utente</text><text fill="#4A4030" font-family="Helvetica" font-size="13" lengthAdjust="spacing" textLength="142" x="1470" y="903.8545">(niente doppio addebito).</text><polygon fill="#2C3E50" points="1470.5,935.0625,1460.5,939.0625,1470.5,943.0625,1466.5,939.0625" style="stroke:#2C3E50;stroke-width:1.0;"/><line style="stroke:#2C3E50;stroke-width:1.0;stroke-dasharray:2.0,2.0;" x1="1464.5" x2="1734.5" y1="939.0625" y2="939.0625"/><text fill="#2C3E50" font-family="Helvetica" font-size="13" lengthAdjust="spacing" textLength="47" x="1476.5" y="934.2061">creatore</text><polygon fill="#2C3E50" points="1084,965.4141,1074,969.4141,1084,973.4141,1080,969.4141" style="stroke:#2C3E50;stroke-width:1.0;"/><line style="stroke:#2C3E50;stroke-width:1.0;stroke-dasharray:2.0,2.0;" x1="1078" x2="1458.5" y1="969.4141" y2="969.4141"/><text fill="#2C3E50" font-family="Helvetica" font-size="13" lengthAdjust="spacing" textLength="27" x="1090" y="964.5576">User</text><path d="M15,984.4141 L71,984.4141 L71,992.7656 L61,1002.7656 L10,1002.7656 L10,989.4141 A5,5 0 0 1 15,984.4141 " fill="#E8EDF2" style="stroke:#2C3E50;stroke-width:1.5;"/><rect fill="none" height="1022.625" rx="5" ry="5" style="stroke:#2C3E50;stroke-width:1.5;" width="1896" x="10" y="984.4141"/><text fill="#2C3E50" font-family="Helvetica" font-size="13" font-weight="bold" lengthAdjust="spacing" textLength="16" x="25" y="998.9092">alt</text><text fill="#000000" font-family="Helvetica" font-size="11" font-weight="bold" lengthAdjust="spacing" textLength="80" x="86" y="997.833">[credito &lt; 0.35]</text><polygon fill="#2C3E50" points="1723.5,1021.1172,1733.5,1025.1172,1723.5,1029.1172,1727.5,1025.1172" style="stroke:#2C3E50;stroke-width:1.0;"/><line style="stroke:#2C3E50;stroke-width:1.0;" x1="1073" x2="1729.5" y1="1025.1172" y2="1025.1172"/><text fill="#2C3E50" font-family="Helvetica" font-size="13" lengthAdjust="spacing" textLength="69" x="1080" y="1020.2607">ROLLBACK</text><line style="stroke:#2C3E50;stroke-width:1.0;" x1="1837" x2="1827" y1="1071.8203" y2="1067.8203"/><line style="stroke:#2C3E50;stroke-width:1.0;" x1="1837" x2="1827" y1="1071.8203" y2="1075.8203"/><line style="stroke:#2C3E50;stroke-width:1.0;stroke-dasharray:2.0,2.0;" x1="1073" x2="1838" y1="1071.8203" y2="1071.8203"/><text fill="#2C3E50" font-family="Helvetica" font-size="13" lengthAdjust="spacing" textLength="139" x="1080" y="1050.6123">throw UnauthorizedError</text><text fill="#2C3E50" font-family="Helvetica" font-size="13" lengthAdjust="spacing" textLength="131" x="1080" y="1066.9639">("Credito insufficiente")</text><line style="stroke:#2C3E50;stroke-width:1.0;" x1="52" x2="62" y1="1102.1719" y2="1098.1719"/><line style="stroke:#2C3E50;stroke-width:1.0;" x1="52" x2="62" y1="1102.1719" y2="1106.1719"/><line style="stroke:#2C3E50;stroke-width:1.0;stroke-dasharray:2.0,2.0;" x1="51" x2="1838" y1="1102.1719" y2="1102.1719"/><text fill="#2C3E50" font-family="Helvetica" font-size="13" lengthAdjust="spacing" textLength="59" x="68" y="1097.3154">401 {error}</text><line style="stroke:#2C3E50;stroke-width:1.0;stroke-dasharray:2.0,2.0;" x1="10" x2="1906" y1="1111.1719" y2="1111.1719"/><text fill="#000000" font-family="Helvetica" font-size="11" font-weight="bold" lengthAdjust="spacing" textLength="109" x="15" y="1122.5908">[credito sufficiente]</text><polygon fill="#2C3E50" points="1360,1144.3594,1370,1148.3594,1360,1152.3594,1364,1148.3594" style="stroke:#2C3E50;stroke-width:1.0;"/><line style="stroke:#2C3E50;stroke-width:1.0;" x1="1073" x2="1366" y1="1148.3594" y2="1148.3594"/><text fill="#2C3E50" font-family="Helvetica" font-size="13" lengthAdjust="spacing" textLength="194" x="1080" y="1143.5029">findActiveGameForUser(creatorId)</text><polygon fill="#2C3E50" points="1723.5,1174.7109,1733.5,1178.7109,1723.5,1182.7109,1727.5,1178.7109" style="stroke:#2C3E50;stroke-width:1.0;"/><line style="stroke:#2C3E50;stroke-width:1.0;" x1="1372" x2="1729.5" y1="1178.7109" y2="1178.7109"/><text fill="#2C3E50" font-family="Helvetica" font-size="13" lengthAdjust="spacing" textLength="124" x="1379" y="1173.8545">SELECT partita attiva</text><polygon fill="#2C3E50" points="1383,1205.0625,1373,1209.0625,1383,1213.0625,1379,1209.0625" style="stroke:#2C3E50;stroke-width:1.0;"/><line style="stroke:#2C3E50;stroke-width:1.0;stroke-dasharray:2.0,2.0;" x1="1377" x2="1734.5" y1="1209.0625" y2="1209.0625"/><text fill="#2C3E50" font-family="Helvetica" font-size="13" lengthAdjust="spacing" textLength="68" x="1389" y="1204.2061">null / partita</text><polygon fill="#2C3E50" points="1084,1235.4141,1074,1239.4141,1084,1243.4141,1080,1239.4141" style="stroke:#2C3E50;stroke-width:1.0;"/><line style="stroke:#2C3E50;stroke-width:1.0;stroke-dasharray:2.0,2.0;" x1="1078" x2="1371" y1="1239.4141" y2="1239.4141"/><text fill="#2C3E50" font-family="Helvetica" font-size="13" lengthAdjust="spacing" textLength="66" x="1090" y="1234.5576">Game | null</text><path d="M25,1254.4141 L81,1254.4141 L81,1262.7656 L71,1272.7656 L20,1272.7656 L20,1259.4141 A5,5 0 0 1 25,1254.4141 " fill="#E8EDF2" style="stroke:#2C3E50;stroke-width:1.5;"/><rect fill="none" height="745.625" rx="5" ry="5" style="stroke:#2C3E50;stroke-width:1.5;" width="1876" x="20" y="1254.4141"/><text fill="#2C3E50" font-family="Helvetica" font-size="13" font-weight="bold" lengthAdjust="spacing" textLength="16" x="35" y="1268.9092">alt</text><text fill="#000000" font-family="Helvetica" font-size="11" font-weight="bold" lengthAdjust="spacing" textLength="136" x="96" y="1267.833">[ha gia' una partita attiva]</text><polygon fill="#2C3E50" points="1723.5,1291.1172,1733.5,1295.1172,1723.5,1299.1172,1727.5,1295.1172" style="stroke:#2C3E50;stroke-width:1.0;"/><line style="stroke:#2C3E50;stroke-width:1.0;" x1="1073" x2="1729.5" y1="1295.1172" y2="1295.1172"/><text fill="#2C3E50" font-family="Helvetica" font-size="13" lengthAdjust="spacing" textLength="69" x="1080" y="1290.2607">ROLLBACK</text><line style="stroke:#2C3E50;stroke-width:1.0;" x1="1837" x2="1827" y1="1341.8203" y2="1337.8203"/><line style="stroke:#2C3E50;stroke-width:1.0;" x1="1837" x2="1827" y1="1341.8203" y2="1345.8203"/><line style="stroke:#2C3E50;stroke-width:1.0;stroke-dasharray:2.0,2.0;" x1="1073" x2="1838" y1="1341.8203" y2="1341.8203"/><text fill="#2C3E50" font-family="Helvetica" font-size="13" lengthAdjust="spacing" textLength="106" x="1080" y="1320.6123">throw ConflictError</text><text fill="#2C3E50" font-family="Helvetica" font-size="13" lengthAdjust="spacing" textLength="159" x="1080" y="1336.9639">("Hai gia' una partita attiva")</text><line style="stroke:#2C3E50;stroke-width:1.0;" x1="52" x2="62" y1="1372.1719" y2="1368.1719"/><line style="stroke:#2C3E50;stroke-width:1.0;" x1="52" x2="62" y1="1372.1719" y2="1376.1719"/><line style="stroke:#2C3E50;stroke-width:1.0;stroke-dasharray:2.0,2.0;" x1="51" x2="1838" y1="1372.1719" y2="1372.1719"/><text fill="#2C3E50" font-family="Helvetica" font-size="13" lengthAdjust="spacing" textLength="59" x="68" y="1367.3154">409 {error}</text><line style="stroke:#2C3E50;stroke-width:1.0;stroke-dasharray:2.0,2.0;" x1="20" x2="1896" y1="1381.1719" y2="1381.1719"/><text fill="#000000" font-family="Helvetica" font-size="11" font-weight="bold" lengthAdjust="spacing" textLength="126" x="25" y="1392.5908">[nessuna partita attiva]</text><polygon fill="#2C3E50" points="1447.5,1414.3594,1457.5,1418.3594,1447.5,1422.3594,1451.5,1418.3594" style="stroke:#2C3E50;stroke-width:1.0;"/><line style="stroke:#2C3E50;stroke-width:1.0;" x1="1073" x2="1453.5" y1="1418.3594" y2="1418.3594"/><text fill="#2C3E50" font-family="Helvetica" font-size="13" lengthAdjust="spacing" textLength="233" x="1080" y="1413.5029">findByEmail(opponentEmail, {lock: true})</text><polygon fill="#2C3E50" points="1084,1444.7109,1074,1448.7109,1084,1452.7109,1080,1448.7109" style="stroke:#2C3E50;stroke-width:1.0;"/><line style="stroke:#2C3E50;stroke-width:1.0;stroke-dasharray:2.0,2.0;" x1="1078" x2="1458.5" y1="1448.7109" y2="1448.7109"/><text fill="#2C3E50" font-family="Helvetica" font-size="13" lengthAdjust="spacing" textLength="56" x="1090" y="1443.8545">avversario</text><polygon fill="#2C3E50" points="1360,1475.0625,1370,1479.0625,1360,1483.0625,1364,1479.0625" style="stroke:#2C3E50;stroke-width:1.0;"/><line style="stroke:#2C3E50;stroke-width:1.0;" x1="1073" x2="1366" y1="1479.0625" y2="1479.0625"/><text fill="#2C3E50" font-family="Helvetica" font-size="13" lengthAdjust="spacing" textLength="214" x="1080" y="1474.2061">findActiveGameForUser(avversario.id)</text><polygon fill="#2C3E50" points="1084,1505.4141,1074,1509.4141,1084,1513.4141,1080,1509.4141" style="stroke:#2C3E50;stroke-width:1.0;"/><line style="stroke:#2C3E50;stroke-width:1.0;stroke-dasharray:2.0,2.0;" x1="1078" x2="1371" y1="1509.4141" y2="1509.4141"/><text fill="#2C3E50" font-family="Helvetica" font-size="13" lengthAdjust="spacing" textLength="20" x="1090" y="1504.5576">null</text><polygon fill="#2C3E50" points="1276,1535.7656,1286,1539.7656,1276,1543.7656,1280,1539.7656" style="stroke:#2C3E50;stroke-width:1.0;"/><line style="stroke:#2C3E50;stroke-width:1.0;" x1="1073" x2="1282" y1="1539.7656" y2="1539.7656"/><text fill="#2C3E50" font-family="Helvetica" font-size="13" lengthAdjust="spacing" textLength="196" x="1080" y="1534.9092">generateBoard(gridSize, ships) x2</text><path d="M1303,1557.7656 L1303,1589.7656 A5,5 0 0 0 1308,1594.7656 L1548,1594.7656 A5,5 0 0 0 1553,1589.7656 L1553,1562.7656 L1543,1552.7656 L1308,1552.7656 A5,5 0 0 0 1303,1557.7656 " fill="#FFF8DC" style="stroke:#B8A160;stroke-width:0.5;"/><path d="M1543,1552.7656 L1543,1560.2656 A2.5,2.5 0 0 0 1545.5,1562.7656 L1553,1562.7656 L1543,1552.7656 " fill="#FFF8DC" style="stroke:#B8A160;stroke-width:0.5;"/><text fill="#4A4030" font-family="Helvetica" font-size="13" lengthAdjust="spacing" textLength="212" x="1309" y="1571.2607">Allocazione RANDOMICA delle flotte</text><text fill="#4A4030" font-family="Helvetica" font-size="13" lengthAdjust="spacing" textLength="229" x="1309" y="1587.6123">(una per giocatore), fatta alla creazione.</text><polygon fill="#2C3E50" points="1084,1618.8203,1074,1622.8203,1084,1626.8203,1080,1622.8203" style="stroke:#2C3E50;stroke-width:1.0;"/><line style="stroke:#2C3E50;stroke-width:1.0;stroke-dasharray:2.0,2.0;" x1="1078" x2="1292" y1="1622.8203" y2="1622.8203"/><text fill="#2C3E50" font-family="Helvetica" font-size="13" lengthAdjust="spacing" textLength="160" x="1090" y="1617.9639">boardPlayer1, boardPlayer2</text><polygon fill="#2C3E50" points="1360,1649.1719,1370,1653.1719,1360,1657.1719,1364,1653.1719" style="stroke:#2C3E50;stroke-width:1.0;"/><line style="stroke:#2C3E50;stroke-width:1.0;" x1="1073" x2="1366" y1="1653.1719" y2="1653.1719"/><text fill="#2C3E50" font-family="Helvetica" font-size="13" lengthAdjust="spacing" textLength="215" x="1080" y="1648.3154">create({..., boards, silencePlayer1/2})</text><polygon fill="#2C3E50" points="1723.5,1679.5234,1733.5,1683.5234,1723.5,1687.5234,1727.5,1683.5234" style="stroke:#2C3E50;stroke-width:1.0;"/><line style="stroke:#2C3E50;stroke-width:1.0;" x1="1372" x2="1729.5" y1="1683.5234" y2="1683.5234"/><text fill="#2C3E50" font-family="Helvetica" font-size="13" lengthAdjust="spacing" textLength="122" x="1379" y="1678.667">INSERT INTO games</text><polygon fill="#2C3E50" points="1383,1709.875,1373,1713.875,1383,1717.875,1379,1713.875" style="stroke:#2C3E50;stroke-width:1.0;"/><line style="stroke:#2C3E50;stroke-width:1.0;stroke-dasharray:2.0,2.0;" x1="1377" x2="1734.5" y1="1713.875" y2="1713.875"/><text fill="#2C3E50" font-family="Helvetica" font-size="13" lengthAdjust="spacing" textLength="76" x="1389" y="1709.0186">partita creata</text><polygon fill="#2C3E50" points="1084,1740.2266,1074,1744.2266,1084,1748.2266,1080,1744.2266" style="stroke:#2C3E50;stroke-width:1.0;"/><line style="stroke:#2C3E50;stroke-width:1.0;stroke-dasharray:2.0,2.0;" x1="1078" x2="1371" y1="1744.2266" y2="1744.2266"/><text fill="#2C3E50" font-family="Helvetica" font-size="13" lengthAdjust="spacing" textLength="35" x="1090" y="1739.3701">Game</text><polygon fill="#2C3E50" points="1447.5,1770.5781,1457.5,1774.5781,1447.5,1778.5781,1451.5,1774.5781" style="stroke:#2C3E50;stroke-width:1.0;"/><line style="stroke:#2C3E50;stroke-width:1.0;" x1="1073" x2="1453.5" y1="1774.5781" y2="1774.5781"/><text fill="#2C3E50" font-family="Helvetica" font-size="13" lengthAdjust="spacing" textLength="194" x="1080" y="1769.7217">decrementTokens(creatorId, 0.35)</text><polygon fill="#2C3E50" points="1723.5,1800.9297,1733.5,1804.9297,1723.5,1808.9297,1727.5,1804.9297" style="stroke:#2C3E50;stroke-width:1.0;"/><line style="stroke:#2C3E50;stroke-width:1.0;" x1="1459.5" x2="1729.5" y1="1804.9297" y2="1804.9297"/><text fill="#2C3E50" font-family="Helvetica" font-size="13" lengthAdjust="spacing" textLength="252" x="1466.5" y="1800.0732">UPDATE users SET tokens = tokens - 0.35</text><polygon fill="#2C3E50" points="1728.5,1831.2813,1738.5,1835.2813,1728.5,1839.2813,1732.5,1835.2813" style="stroke:#2C3E50;stroke-width:1.0;"/><line style="stroke:#2C3E50;stroke-width:1.0;" x1="1073" x2="1734.5" y1="1835.2813" y2="1835.2813"/><text fill="#2C3E50" font-family="Helvetica" font-size="13" lengthAdjust="spacing" textLength="51" x="1080" y="1830.4248">COMMIT</text><polygon fill="#2C3E50" points="812,1861.6328,802,1865.6328,812,1869.6328,808,1865.6328" style="stroke:#2C3E50;stroke-width:1.0;"/><line style="stroke:#2C3E50;stroke-width:1.0;stroke-dasharray:2.0,2.0;" x1="806" x2="1067" y1="1865.6328" y2="1865.6328"/><text fill="#2C3E50" font-family="Helvetica" font-size="13" lengthAdjust="spacing" textLength="35" x="818" y="1860.7764">Game</text><line style="stroke:#2C3E50;stroke-width:1.0;" x1="801" x2="843" y1="1895.9844" y2="1895.9844"/><line style="stroke:#2C3E50;stroke-width:1.0;" x1="843" x2="843" y1="1895.9844" y2="1908.9844"/><line style="stroke:#2C3E50;stroke-width:1.0;" x1="802" x2="843" y1="1908.9844" y2="1908.9844"/><polygon fill="#2C3E50" points="812,1904.9844,802,1908.9844,812,1912.9844,808,1908.9844" style="stroke:#2C3E50;stroke-width:1.0;"/><text fill="#2C3E50" font-family="Helvetica" font-size="13" lengthAdjust="spacing" textLength="122" x="808" y="1891.1279">toPublicGame(game)</text><path d="M806,1926.9844 L806,1958.9844 A5,5 0 0 0 811,1963.9844 L1012,1963.9844 A5,5 0 0 0 1017,1958.9844 L1017,1931.9844 L1007,1921.9844 L811,1921.9844 A5,5 0 0 0 806,1926.9844 " fill="#FFF8DC" style="stroke:#B8A160;stroke-width:0.5;"/><path d="M1007,1921.9844 L1007,1929.4844 A2.5,2.5 0 0 0 1009.5,1931.9844 L1017,1931.9844 L1007,1921.9844 " fill="#FFF8DC" style="stroke:#B8A160;stroke-width:0.5;"/><text fill="#4A4030" font-family="Helvetica" font-size="13" lengthAdjust="spacing" textLength="170" x="812" y="1940.4795">DTO: esclude boardPlayer1/2</text><text fill="#4A4030" font-family="Helvetica" font-size="13" lengthAdjust="spacing" textLength="190" x="812" y="1956.8311">(anti-cheat: le flotte non escono).</text><polygon fill="#2C3E50" points="62,1988.0391,52,1992.0391,62,1996.0391,58,1992.0391" style="stroke:#2C3E50;stroke-width:1.0;"/><line style="stroke:#2C3E50;stroke-width:1.0;stroke-dasharray:2.0,2.0;" x1="56" x2="795" y1="1992.0391" y2="1992.0391"/><text fill="#2C3E50" font-family="Helvetica" font-size="13" lengthAdjust="spacing" textLength="65" x="68" y="1987.1826">201 {game}</text><!--SRC=[ZLPjJoCt4FxkNp6b7vge8N2qbLf4a3QR1D82IRCB_O9KcLqdM1WxzNfp1vJ_tl7iQnBkr9FGRJmlddsUPsRsEwaJbQS2_ixSYnBzTVwic9DE2GYjuA_IQ05hRl68mtmpXqvikSvAmuyGfAbuaCvq6UE9CnP29OLsZ48IkURQmS6AFuk5oPt83e1diDYsyjmzOeXCk1Da3xRjoQD8dh2OL3eoX-6sVSELJ35sQDANUzrvDMcN_EwstIwmYD1ePurImXQPzZqYOJSoAUg8jirB9OJhk-8T9lkXes16felHjkqs4xQotOuObieVU2RWO6uojx8Y-lEARAFXTfomrjXBhjEgtF4bOmMyS7WE2pY5-IoAuSZ3cztheU1MM3Zx_Q_u_5w_kPUrwC7AoZIIh_YKFSfrrWEpNYDpsesVkLHuAfNGYNZtxCaDeeZiiC40GdpK7589rpB52ZvZRXWCsC9V7U3Lo5f1MXCPi00Eoygi-AUVuul3sgoDuiwmLBGSAKqOekD6MBd4D90GmwP9XpoZ1_hTZj1lANKwV9a_TQhCVPbs6PhGOJH4XsXyDGvZSEP9w8pXqM4LMXvvt-fMpmdZofKsE1l0CGDlGvTpH1fzjFZYEhVQozDOX30TUqBkzK6XHGCYuxd5XuCkXc88XPO4dSBFnv_WZJXyPqAdhCXDu9YdDXhudWJ7dKU3j0nImGEgkS7YZjtLqIWWMJhYGoSn6bAnvBbotNRQkuB7Ml4WG9cLHxgYqGE1gAEp1xM7d6NT5loCm8zg9w_npXiz6pjDUr0ehD_lzw3MKIj1n5XKipCSNqnl85u4Dr4GnjFPJUE7zk_7luv7avCoO9llreLloYHFoAVD_KNxt6CfC9aju7O-2k8nqmQpMxbwT62MllK05kOp54bG018nV7qbvT4ya-Y0Q2R6MYzjH5Kf0ncEhSm0oLsWHqTxWWMas4dI0Ay6OD-p3FxEBV6LvOjAVb6bFf9VANeuW-F-JxzWzWQnnUpgQXY4VnI7jIhTeyLt-42MdLgNKcVv4dkAwlmVubGuZAf2Mf5LDHSL7O5dZ6GmCTQ_GyEDl-HYZuzgRt3dgKQN4XZAg7EbuAZoAUDBWFmTy2-veC43zSXX9VaFaEDGsalx5TW-0WxxOQbauchGBhdyMcQ2xaFmVgl10o3uD6haMwMr94s3jxCpXhULxSDQSk4R798Pjz8q2Rz1IkDE8zA7jA0bJ9iy4pnQ2IqiBL1kqyxEnkZ2bnDoh_jrGZ-tcwiu0mYmOvBoum1xVJIxdeO1DPA0fJAELEN_TGWjd4ehYG6-GRezM29iY9rIJK-AFWNKhUL_JEgNUV0LpnL_4VPJh_shABar3ITi1xjoyBtH-AB8hDw6PSQZa_S6lb9Uqvjel8ZnltW6j7V9eQthIW9q0T-5tnF5TdIH2lHzHZ74j8pQ4yzFXKOFPGt5U0E_1F4ZPLpjF1XK3uV5DDdfZ71sVJsDTu71huwwKsWZK8KxJX4TXDNIS6QUFs0NqKRmA7G_a4HOCZsAPwUuAeklp3PXHoUL5l1pHnxYPnvtfr0B1TDf7sUqdwrx8YYsQTsJ9twW-LBUTsltTVZzw_zQnul_0000]--></g></svg>