<?xml version="1.0" encoding="us-ascii" standalone="no"?><svg xmlns="http://www.w3.org/2000/svg" xmlns:xlink="http://www.w3.org/1999/xlink" contentStyleType="text/css" height="1737px" preserveAspectRatio="none" style="width:1540px;height:1737px;background:#FFFFFF;" version="1.1" viewBox="0 0 1540 1737" width="1540px" zoomAndPan="magnify"><defs/><g><text fill="#000000" font-family="Helvetica" font-size="14" font-weight="bold" lengthAdjust="spacing" textLength="208" x="662.25" y="29.5332">Mossa PvAI (Pattern Strategy)</text><rect fill="#E8EDF2" height="1416.0078" style="stroke:#2C3E50;stroke-width:1.0;" width="10" x="314.5" y="203.8828"/><rect fill="#E8EDF2" height="1355.3047" style="stroke:#2C3E50;stroke-width:1.0;" width="10" x="573.5" y="234.2344"/><rect fill="#E8EDF2" height="115.7578" style="stroke:#2C3E50;stroke-width:1.0;" width="10" x="826.5" y="1013.8594"/><rect fill="#E8EDF2" height="1294.6016" style="stroke:#2C3E50;stroke-width:1.0;" width="10" x="1467" y="264.5859"/><rect fill="none" height="894.0313" rx="5" ry="5" style="stroke:#2C3E50;stroke-width:1.5;" width="1012.5" x="511" y="635.8047"/><rect fill="none" height="107.0547" rx="5" ry="5" style="stroke:#2C3E50;stroke-width:1.5;" width="288.5" x="521" y="1415.7813"/><line style="stroke:#2C3E50;stroke-width:0.5;stroke-dasharray:5.0,5.0;" x1="36" x2="36" y1="138.8281" y2="1637.8906"/><line style="stroke:#2C3E50;stroke-width:0.5;stroke-dasharray:5.0,5.0;" x1="319.5" x2="319.5" y1="138.8281" y2="1637.8906"/><line style="stroke:#2C3E50;stroke-width:0.5;stroke-dasharray:5.0,5.0;" x1="578" x2="578" y1="138.8281" y2="1637.8906"/><line style="stroke:#2C3E50;stroke-width:0.5;stroke-dasharray:5.0,5.0;" x1="831.5" x2="831.5" y1="138.8281" y2="1637.8906"/><line style="stroke:#2C3E50;stroke-width:0.5;stroke-dasharray:5.0,5.0;" x1="929.5" x2="929.5" y1="138.8281" y2="1637.8906"/><line style="stroke:#2C3E50;stroke-width:0.5;stroke-dasharray:5.0,5.0;" x1="1008.5" x2="1008.5" y1="138.8281" y2="1637.8906"/><line style="stroke:#2C3E50;stroke-width:0.5;stroke-dasharray:5.0,5.0;" x1="1098.5" x2="1098.5" y1="138.8281" y2="1637.8906"/><line style="stroke:#2C3E50;stroke-width:0.5;stroke-dasharray:5.0,5.0;" x1="1183.5" x2="1183.5" y1="138.8281" y2="1637.8906"/><line style="stroke:#2C3E50;stroke-width:0.5;stroke-dasharray:5.0,5.0;" x1="1471.5" x2="1471.5" y1="138.8281" y2="1637.8906"/><text fill="#000000" font-family="Helvetica" font-size="14" lengthAdjust="spacing" textLength="41" x="13" y="118.1426">Utente</text><text fill="#000000" font-family="Helvetica" font-size="14" lengthAdjust="spacing" textLength="57" x="5" y="135.752">(player1)</text><ellipse cx="36.5" cy="52.1094" fill="#F8F9FA" rx="8" ry="8" style="stroke:#2C3E50;stroke-width:0.5;"/><path d="M36.5,60.1094 L36.5,87.1094 M23.5,68.1094 L49.5,68.1094 M36.5,87.1094 L23.5,102.1094 M36.5,87.1094 L49.5,102.1094 " fill="none" style="stroke:#2C3E50;stroke-width:0.5;"/><text fill="#000000" font-family="Helvetica" font-size="14" lengthAdjust="spacing" textLength="41" x="13" y="1651.4238">Utente</text><text fill="#000000" font-family="Helvetica" font-size="14" lengthAdjust="spacing" textLength="57" x="5" y="1669.0332">(player1)</text><ellipse cx="36.5" cy="1680.6094" fill="#F8F9FA" rx="8" ry="8" style="stroke:#2C3E50;stroke-width:0.5;"/><path d="M36.5,1688.6094 L36.5,1715.6094 M23.5,1696.6094 L49.5,1696.6094 M36.5,1715.6094 L23.5,1730.6094 M36.5,1715.6094 L49.5,1730.6094 " fill="none" style="stroke:#2C3E50;stroke-width:0.5;"/><rect fill="#F8F9FA" height="31.6094" rx="5" ry="5" style="stroke:#2C3E50;stroke-width:0.5;" width="94" x="272.5" y="106.2188"/><text fill="#2C3E50" font-family="Helvetica" font-size="14" lengthAdjust="spacing" textLength="80" x="279.5" y="127.752">gameRoutes</text><rect fill="#F8F9FA" height="31.6094" rx="5" ry="5" style="stroke:#2C3E50;stroke-width:0.5;" width="94" x="272.5" y="1636.8906"/><text fill="#2C3E50" font-family="Helvetica" font-size="14" lengthAdjust="spacing" textLength="80" x="279.5" y="1658.4238">gameRoutes</text><rect fill="#F8F9FA" height="31.6094" rx="5" ry="5" style="stroke:#2C3E50;stroke-width:0.5;" width="95" x="531" y="106.2188"/><text fill="#2C3E50" font-family="Helvetica" font-size="14" lengthAdjust="spacing" textLength="81" x="538" y="127.752">MoveService</text><rect fill="#F8F9FA" height="31.6094" rx="5" ry="5" style="stroke:#2C3E50;stroke-width:0.5;" width="95" x="531" y="1636.8906"/><text fill="#2C3E50" font-family="Helvetica" font-size="14" lengthAdjust="spacing" textLength="81" x="538" y="1658.4238">MoveService</text><rect fill="#F8F9FA" height="49.2188" rx="5" ry="5" style="stroke:#2C3E50;stroke-width:0.5;" width="120" x="771.5" y="88.6094"/><text fill="#2C3E50" font-family="Helvetica" font-size="14" lengthAdjust="spacing" textLength="106" x="778.5" y="110.1426">RandomStrategy</text><text fill="#2C3E50" font-family="Helvetica" font-size="14" lengthAdjust="spacing" textLength="103" x="780" y="127.752">&#171;MoveStrategy&#187;</text><rect fill="#F8F9FA" height="49.2188" rx="5" ry="5" style="stroke:#2C3E50;stroke-width:0.5;" width="120" x="771.5" y="1636.8906"/><text fill="#2C3E50" font-family="Helvetica" font-size="14" lengthAdjust="spacing" textLength="106" x="778.5" y="1658.4238">RandomStrategy</text><text fill="#2C3E50" font-family="Helvetica" font-size="14" lengthAdjust="spacing" textLength="103" x="780" y="1676.0332">&#171;MoveStrategy&#187;</text><rect fill="#F8F9FA" height="31.6094" rx="5" ry="5" style="stroke:#2C3E50;stroke-width:0.5;" width="56" x="901.5" y="106.2188"/><text fill="#2C3E50" font-family="Helvetica" font-size="14" lengthAdjust="spacing" textLength="42" x="908.5" y="127.752">fleet.ts</text><rect fill="#F8F9FA" height="31.6094" rx="5" ry="5" style="stroke:#2C3E50;stroke-width:0.5;" width="56" x="901.5" y="1636.8906"/><text fill="#2C3E50" font-family="Helvetica" font-size="14" lengthAdjust="spacing" textLength="42" x="908.5" y="1658.4238">fleet.ts</text><rect fill="#F8F9FA" height="31.6094" rx="5" ry="5" style="stroke:#2C3E50;stroke-width:0.5;" width="82" x="967.5" y="106.2188"/><text fill="#2C3E50" font-family="Helvetica" font-size="14" lengthAdjust="spacing" textLength="68" x="974.5" y="127.752">GameDAO</text><rect fill="#F8F9FA" height="31.6094" rx="5" ry="5" style="stroke:#2C3E50;stroke-width:0.5;" width="82" x="967.5" y="1636.8906"/><text fill="#2C3E50" font-family="Helvetica" font-size="14" lengthAdjust="spacing" textLength="68" x="974.5" y="1658.4238">GameDAO</text><rect fill="#F8F9FA" height="31.6094" rx="5" ry="5" style="stroke:#2C3E50;stroke-width:0.5;" width="78" x="1059.5" y="106.2188"/><text fill="#2C3E50" font-family="Helvetica" font-size="14" lengthAdjust="spacing" textLength="64" x="1066.5" y="127.752">MoveDAO</text><rect fill="#F8F9FA" height="31.6094" rx="5" ry="5" style="stroke:#2C3E50;stroke-width:0.5;" width="78" x="1059.5" y="1636.8906"/><text fill="#2C3E50" font-family="Helvetica" font-size="14" lengthAdjust="spacing" textLength="64" x="1066.5" y="1658.4238">MoveDAO</text><rect fill="#F8F9FA" height="31.6094" rx="5" ry="5" style="stroke:#2C3E50;stroke-width:0.5;" width="73" x="1147.5" y="106.2188"/><text fill="#2C3E50" font-family="Helvetica" font-size="14" lengthAdjust="spacing" textLength="59" x="1154.5" y="127.752">UserDAO</text><rect fill="#F8F9FA" height="31.6094" rx="5" ry="5" style="stroke:#2C3E50;stroke-width:0.5;" width="73" x="1147.5" y="1636.8906"/><text fill="#2C3E50" font-family="Helvetica" font-size="14" lengthAdjust="spacing" textLength="59" x="1154.5" y="1658.4238">UserDAO</text><text fill="#000000" font-family="Helvetica" font-size="14" lengthAdjust="spacing" textLength="77" x="1430.5" y="135.752">PostgreSQL</text><path d="M1454,85.2188 C1454,75.2188 1472,75.2188 1472,75.2188 C1472,75.2188 1490,75.2188 1490,85.2188 L1490,111.2188 C1490,121.2188 1472,121.2188 1472,121.2188 C1472,121.2188 1454,121.2188 1454,111.2188 L1454,85.2188 " fill="#F8F9FA" style="stroke:#2C3E50;stroke-width:1.5;"/><path d="M1454,85.2188 C1454,95.2188 1472,95.2188 1472,95.2188 C1472,95.2188 1490,95.2188 1490,85.2188 " fill="none" style="stroke:#2C3E50;stroke-width:1.5;"/><text fill="#000000" font-family="Helvetica" font-size="14" lengthAdjust="spacing" textLength="77" x="1430.5" y="1651.4238">PostgreSQL</text><path d="M1454,1664.5 C1454,1654.5 1472,1654.5 1472,1654.5 C1472,1654.5 1490,1654.5 1490,1664.5 L1490,1690.5 C1490,1700.5 1472,1700.5 1472,1700.5 C1472,1700.5 1454,1700.5 1454,1690.5 L1454,1664.5 " fill="#F8F9FA" style="stroke:#2C3E50;stroke-width:1.5;"/><path d="M1454,1664.5 C1454,1674.5 1472,1674.5 1472,1674.5 C1472,1674.5 1490,1674.5 1490,1664.5 " fill="none" style="stroke:#2C3E50;stroke-width:1.5;"/><rect fill="#E8EDF2" height="1416.0078" style="stroke:#2C3E50;stroke-width:1.0;" width="10" x="314.5" y="203.8828"/><rect fill="#E8EDF2" height="1355.3047" style="stroke:#2C3E50;stroke-width:1.0;" width="10" x="573.5" y="234.2344"/><rect fill="#E8EDF2" height="115.7578" style="stroke:#2C3E50;stroke-width:1.0;" width="10" x="826.5" y="1013.8594"/><rect fill="#E8EDF2" height="1294.6016" style="stroke:#2C3E50;stroke-width:1.0;" width="10" x="1467" y="264.5859"/><polygon fill="#2C3E50" points="302.5,199.8828,312.5,203.8828,302.5,207.8828,306.5,203.8828" style="stroke:#2C3E50;stroke-width:1.0;"/><line style="stroke:#2C3E50;stroke-width:1.0;" x1="36.5" x2="308.5" y1="203.8828" y2="203.8828"/><text fill="#2C3E50" font-family="Helvetica" font-size="13" lengthAdjust="spacing" textLength="134" x="43.5" y="166.3232">POST /games/1/moves</text><text fill="#2C3E50" font-family="Helvetica" font-size="13" lengthAdjust="spacing" textLength="84" x="43.5" y="182.6748">Bearer &lt;JWT&gt;</text><text fill="#2C3E50" font-family="Helvetica" font-size="13" lengthAdjust="spacing" textLength="53" x="43.5" y="199.0264">{row, col}</text><polygon fill="#2C3E50" points="561.5,230.2344,571.5,234.2344,561.5,238.2344,565.5,234.2344" style="stroke:#2C3E50;stroke-width:1.0;"/><line style="stroke:#2C3E50;stroke-width:1.0;" x1="324.5" x2="567.5" y1="234.2344" y2="234.2344"/><text fill="#2C3E50" font-family="Helvetica" font-size="13" lengthAdjust="spacing" textLength="230" x="331.5" y="229.3779">executeMove({gameId, userId, row, col})</text><polygon fill="#2C3E50" points="1455,260.5859,1465,264.5859,1455,268.5859,1459,264.5859" style="stroke:#2C3E50;stroke-width:1.0;"/><line style="stroke:#2C3E50;stroke-width:1.0;" x1="583.5" x2="1461" y1="264.5859" y2="264.5859"/><text fill="#2C3E50" font-family="Helvetica" font-size="13" lengthAdjust="spacing" textLength="134" x="590.5" y="259.7295">BEGIN TRANSACTION</text><path d="M588,282.5859 L588,331.5859 A5,5 0 0 0 593,336.5859 L861,336.5859 A5,5 0 0 0 866,331.5859 L866,287.5859 L856,277.5859 L593,277.5859 A5,5 0 0 0 588,282.5859 " fill="#FFF8DC" style="stroke:#B8A160;stroke-width:0.5;"/><path d="M856,277.5859 L856,285.0859 A2.5,2.5 0 0 0 858.5,287.5859 L866,287.5859 L856,277.5859 " fill="#FFF8DC" style="stroke:#B8A160;stroke-width:0.5;"/><text fill="#4A4030" font-family="Helvetica" font-size="13" lengthAdjust="spacing" textLength="257" x="594" y="296.0811">Una sola transazione per l'INTERO scambio:</text><text fill="#4A4030" font-family="Helvetica" font-size="13" lengthAdjust="spacing" textLength="197" x="594" y="312.4326">o si registrano entrambe le mosse</text><text fill="#4A4030" font-family="Helvetica" font-size="13" lengthAdjust="spacing" textLength="174" x="594" y="328.7842">con i due addebiti, o nessuna.</text><polygon fill="#2C3E50" points="996.5,359.9922,1006.5,363.9922,996.5,367.9922,1000.5,363.9922" style="stroke:#2C3E50;stroke-width:1.0;"/><line style="stroke:#2C3E50;stroke-width:1.0;" x1="583.5" x2="1002.5" y1="363.9922" y2="363.9922"/><text fill="#2C3E50" font-family="Helvetica" font-size="13" lengthAdjust="spacing" textLength="172" x="590.5" y="359.1357">findByPk(gameId, {lock: true})</text><polygon fill="#2C3E50" points="594.5,390.3438,584.5,394.3438,594.5,398.3438,590.5,394.3438" style="stroke:#2C3E50;stroke-width:1.0;"/><line style="stroke:#2C3E50;stroke-width:1.0;stroke-dasharray:2.0,2.0;" x1="588.5" x2="1007.5" y1="394.3438" y2="394.3438"/><text fill="#2C3E50" font-family="Helvetica" font-size="13" lengthAdjust="spacing" textLength="114" x="600.5" y="389.4873">Game (type = 'pvai')</text><rect fill="#E8EDF2" height="3" rx="5" ry="5" style="stroke:#E8EDF2;stroke-width:1.0;" width="1533.5" x="0" y="423.5195"/><line style="stroke:#2C3E50;stroke-width:1.0;" x1="0" x2="1533.5" y1="423.5195" y2="423.5195"/><line style="stroke:#2C3E50;stroke-width:1.0;" x1="0" x2="1533.5" y1="426.5195" y2="426.5195"/><rect fill="#E8EDF2" height="24.3516" rx="5" ry="5" style="stroke:#2C3E50;stroke-width:2.0;" width="136" x="698.75" y="412.3438"/><text fill="#000000" font-family="Helvetica" font-size="13" font-weight="bold" lengthAdjust="spacing" textLength="118" x="704.75" y="429.8389">Mossa dell'UMANO</text><polygon fill="#2C3E50" points="917.5,465.0469,927.5,469.0469,917.5,473.0469,921.5,469.0469" style="stroke:#2C3E50;stroke-width:1.0;"/><line style="stroke:#2C3E50;stroke-width:1.0;" x1="583.5" x2="923.5" y1="469.0469" y2="469.0469"/><text fill="#2C3E50" font-family="Helvetica" font-size="13" lengthAdjust="spacing" textLength="131" x="590.5" y="464.1904">isHit(boardIA, row, col)</text><polygon fill="#2C3E50" points="594.5,495.3984,584.5,499.3984,594.5,503.3984,590.5,499.3984" style="stroke:#2C3E50;stroke-width:1.0;"/><line style="stroke:#2C3E50;stroke-width:1.0;stroke-dasharray:2.0,2.0;" x1="588.5" x2="928.5" y1="499.3984" y2="499.3984"/><text fill="#2C3E50" font-family="Helvetica" font-size="13" lengthAdjust="spacing" textLength="61" x="600.5" y="494.542">'hit' | 'miss'</text><polygon fill="#2C3E50" points="1086.5,525.75,1096.5,529.75,1086.5,533.75,1090.5,529.75" style="stroke:#2C3E50;stroke-width:1.0;"/><line style="stroke:#2C3E50;stroke-width:1.0;" x1="583.5" x2="1092.5" y1="529.75" y2="529.75"/><text fill="#2C3E50" font-family="Helvetica" font-size="13" lengthAdjust="spacing" textLength="180" x="590.5" y="524.8936">create({userId, row, col, result})</text><polygon fill="#2C3E50" points="1455,556.1016,1465,560.1016,1455,564.1016,1459,560.1016" style="stroke:#2C3E50;stroke-width:1.0;"/><line style="stroke:#2C3E50;stroke-width:1.0;" x1="1098.5" x2="1461" y1="560.1016" y2="560.1016"/><text fill="#2C3E50" font-family="Helvetica" font-size="13" lengthAdjust="spacing" textLength="120" x="1105.5" y="555.2451">INSERT INTO moves</text><polygon fill="#2C3E50" points="1172,586.4531,1182,590.4531,1172,594.4531,1176,590.4531" style="stroke:#2C3E50;stroke-width:1.0;"/><line style="stroke:#2C3E50;stroke-width:1.0;" x1="583.5" x2="1178" y1="590.4531" y2="590.4531"/><text fill="#2C3E50" font-family="Helvetica" font-size="13" lengthAdjust="spacing" textLength="186" x="590.5" y="585.5967">decrementTokens(userId, 0.015)</text><polygon fill="#2C3E50" points="1455,616.8047,1465,620.8047,1455,624.8047,1459,620.8047" style="stroke:#2C3E50;stroke-width:1.0;"/><line style="stroke:#2C3E50;stroke-width:1.0;" x1="1184" x2="1461" y1="620.8047" y2="620.8047"/><text fill="#2C3E50" font-family="Helvetica" font-size="13" lengthAdjust="spacing" textLength="259" x="1191" y="615.9482">UPDATE users SET tokens = tokens - 0.015</text><path d="M516,635.8047 L572,635.8047 L572,644.1563 L562,654.1563 L511,654.1563 L511,640.8047 A5,5 0 0 1 516,635.8047 " fill="#E8EDF2" style="stroke:#2C3E50;stroke-width:1.5;"/><rect fill="none" height="894.0313" rx="5" ry="5" style="stroke:#2C3E50;stroke-width:1.5;" width="1012.5" x="511" y="635.8047"/><text fill="#2C3E50" font-family="Helvetica" font-size="13" font-weight="bold" lengthAdjust="spacing" textLength="16" x="526" y="650.2998">alt</text><text fill="#000000" font-family="Helvetica" font-size="11" font-weight="bold" lengthAdjust="spacing" textLength="208" x="587" y="649.2236">[l'umano ha affondato tutta la flotta IA]</text><line style="stroke:#2C3E50;stroke-width:1.0;" x1="583.5" x2="625.5" y1="676.5078" y2="676.5078"/><line style="stroke:#2C3E50;stroke-width:1.0;" x1="625.5" x2="625.5" y1="676.5078" y2="689.5078"/><line style="stroke:#2C3E50;stroke-width:1.0;" x1="584.5" x2="625.5" y1="689.5078" y2="689.5078"/><polygon fill="#2C3E50" points="594.5,685.5078,584.5,689.5078,594.5,693.5078,590.5,689.5078" style="stroke:#2C3E50;stroke-width:1.0;"/><text fill="#2C3E50" font-family="Helvetica" font-size="13" lengthAdjust="spacing" textLength="207" x="590.5" y="671.6514">status='completed', winner='player1'</text><path d="M588,707.5078 L588,739.5078 A5,5 0 0 0 593,744.5078 L791,744.5078 A5,5 0 0 0 796,739.5078 L796,712.5078 L786,702.5078 L593,702.5078 A5,5 0 0 0 588,707.5078 " fill="#FFF8DC" style="stroke:#B8A160;stroke-width:0.5;"/><path d="M786,702.5078 L786,710.0078 A2.5,2.5 0 0 0 788.5,712.5078 L796,712.5078 L786,702.5078 " fill="#FFF8DC" style="stroke:#B8A160;stroke-width:0.5;"/><text fill="#4A4030" font-family="Helvetica" font-size="13" lengthAdjust="spacing" textLength="187" x="594" y="721.0029">L'IA non gioca: la partita e' finita.</text><text fill="#4A4030" font-family="Helvetica" font-size="13" lengthAdjust="spacing" textLength="158" x="594" y="737.3545">Costo dello scambio: 0.015</text><line style="stroke:#2C3E50;stroke-width:1.0;stroke-dasharray:2.0,2.0;" x1="511" x2="1523.5" y1="751.2109" y2="751.2109"/><text fill="#000000" font-family="Helvetica" font-size="11" font-weight="bold" lengthAdjust="spacing" textLength="131" x="516" y="762.6299">[partita ancora in corso]</text><line style="stroke:#2C3E50;stroke-width:1.0;" x1="583.5" x2="625.5" y1="788.3984" y2="788.3984"/><line style="stroke:#2C3E50;stroke-width:1.0;" x1="625.5" x2="625.5" y1="788.3984" y2="801.3984"/><line style="stroke:#2C3E50;stroke-width:1.0;" x1="584.5" x2="625.5" y1="801.3984" y2="801.3984"/><polygon fill="#2C3E50" points="594.5,797.3984,584.5,801.3984,594.5,805.3984,590.5,801.3984" style="stroke:#2C3E50;stroke-width:1.0;"/><text fill="#2C3E50" font-family="Helvetica" font-size="13" lengthAdjust="spacing" textLength="127" x="590.5" y="783.542">currentTurn = 'player2'</text><rect fill="#E8EDF2" height="3" rx="5" ry="5" style="stroke:#E8EDF2;stroke-width:1.0;" width="1533.5" x="0" y="830.5742"/><line style="stroke:#2C3E50;stroke-width:1.0;" x1="0" x2="1533.5" y1="830.5742" y2="830.5742"/><line style="stroke:#2C3E50;stroke-width:1.0;" x1="0" x2="1533.5" y1="833.5742" y2="833.5742"/><rect fill="#E8EDF2" height="24.3516" rx="5" ry="5" style="stroke:#2C3E50;stroke-width:2.0;" width="255" x="639.25" y="819.3984"/><text fill="#000000" font-family="Helvetica" font-size="13" font-weight="bold" lengthAdjust="spacing" textLength="237" x="645.25" y="836.8936">Risposta automatica dell'IA (Strategy)</text><polygon fill="#2C3E50" points="1086.5,872.1016,1096.5,876.1016,1086.5,880.1016,1090.5,876.1016" style="stroke:#2C3E50;stroke-width:1.0;"/><line style="stroke:#2C3E50;stroke-width:1.0;" x1="583.5" x2="1092.5" y1="876.1016" y2="876.1016"/><text fill="#2C3E50" font-family="Helvetica" font-size="13" lengthAdjust="spacing" textLength="119" x="590.5" y="871.2451">findAiMoves(gameId)</text><polygon fill="#2C3E50" points="1455,918.8047,1465,922.8047,1455,926.8047,1459,922.8047" style="stroke:#2C3E50;stroke-width:1.0;"/><line style="stroke:#2C3E50;stroke-width:1.0;" x1="1098.5" x2="1461" y1="922.8047" y2="922.8047"/><text fill="#2C3E50" font-family="Helvetica" font-size="13" lengthAdjust="spacing" textLength="142" x="1105.5" y="901.5967">SELECT * FROM moves</text><text fill="#2C3E50" font-family="Helvetica" font-size="13" lengthAdjust="spacing" textLength="140" x="1105.5" y="917.9482">WHERE userId IS NULL</text><polygon fill="#2C3E50" points="1109.5,949.1563,1099.5,953.1563,1109.5,957.1563,1105.5,953.1563" style="stroke:#2C3E50;stroke-width:1.0;"/><line style="stroke:#2C3E50;stroke-width:1.0;stroke-dasharray:2.0,2.0;" x1="1103.5" x2="1466" y1="953.1563" y2="953.1563"/><text fill="#2C3E50" font-family="Helvetica" font-size="13" lengthAdjust="spacing" textLength="128" x="1115.5" y="948.2998">colpi gia' tentati dall'IA</text><polygon fill="#2C3E50" points="594.5,979.5078,584.5,983.5078,594.5,987.5078,590.5,983.5078" style="stroke:#2C3E50;stroke-width:1.0;"/><line style="stroke:#2C3E50;stroke-width:1.0;stroke-dasharray:2.0,2.0;" x1="588.5" x2="1097.5" y1="983.5078" y2="983.5078"/><text fill="#2C3E50" font-family="Helvetica" font-size="13" lengthAdjust="spacing" textLength="81" x="600.5" y="978.6514">previousShots</text><polygon fill="#2C3E50" points="814.5,1009.8594,824.5,1013.8594,814.5,1017.8594,818.5,1013.8594" style="stroke:#2C3E50;stroke-width:1.0;"/><line style="stroke:#2C3E50;stroke-width:1.0;" x1="583.5" x2="820.5" y1="1013.8594" y2="1013.8594"/><text fill="#2C3E50" font-family="Helvetica" font-size="13" lengthAdjust="spacing" textLength="224" x="590.5" y="1009.0029">chooseMove({gridSize, previousShots})</text><path d="M841,1031.8594 L841,1096.8594 A5,5 0 0 0 846,1101.8594 L1079,1101.8594 A5,5 0 0 0 1084,1096.8594 L1084,1036.8594 L1074,1026.8594 L846,1026.8594 A5,5 0 0 0 841,1031.8594 " fill="#FFF8DC" style="stroke:#B8A160;stroke-width:0.5;"/><path d="M1074,1026.8594 L1074,1034.3594 A2.5,2.5 0 0 0 1076.5,1036.8594 L1084,1036.8594 L1074,1026.8594 " fill="#FFF8DC" style="stroke:#B8A160;stroke-width:0.5;"/><text fill="#4A4030" font-family="Helvetica" font-size="13" lengthAdjust="spacing" textLength="222" x="847" y="1045.3545">Pattern STRATEGY: il motore dipende</text><text fill="#4A4030" font-family="Helvetica" font-size="13" lengthAdjust="spacing" textLength="193" x="847" y="1061.7061">dall'interfaccia MoveStrategy, non</text><text fill="#4A4030" font-family="Helvetica" font-size="13" lengthAdjust="spacing" textLength="210" x="847" y="1078.0576">dall'algoritmo. Sostituire l'IA (es. con</text><text fill="#4A4030" font-family="Helvetica" font-size="13" lengthAdjust="spacing" textLength="210" x="847" y="1094.4092">un'euristica) non tocca MoveService.</text><polygon fill="#2C3E50" points="594.5,1125.6172,584.5,1129.6172,594.5,1133.6172,590.5,1129.6172" style="stroke:#2C3E50;stroke-width:1.0;"/><line style="stroke:#2C3E50;stroke-width:1.0;stroke-dasharray:2.0,2.0;" x1="588.5" x2="830.5" y1="1129.6172" y2="1129.6172"/><text fill="#2C3E50" font-family="Helvetica" font-size="13" lengthAdjust="spacing" textLength="122" x="600.5" y="1124.7607">{row, col} mai tentata</text><polygon fill="#2C3E50" points="917.5,1155.9688,927.5,1159.9688,917.5,1163.9688,921.5,1159.9688" style="stroke:#2C3E50;stroke-width:1.0;"/><line style="stroke:#2C3E50;stroke-width:1.0;" x1="583.5" x2="923.5" y1="1159.9688" y2="1159.9688"/><text fill="#2C3E50" font-family="Helvetica" font-size="13" lengthAdjust="spacing" textLength="160" x="590.5" y="1155.1123">isHit(boardUmano, row, col)</text><polygon fill="#2C3E50" points="594.5,1186.3203,584.5,1190.3203,594.5,1194.3203,590.5,1190.3203" style="stroke:#2C3E50;stroke-width:1.0;"/><line style="stroke:#2C3E50;stroke-width:1.0;stroke-dasharray:2.0,2.0;" x1="588.5" x2="928.5" y1="1190.3203" y2="1190.3203"/><text fill="#2C3E50" font-family="Helvetica" font-size="13" lengthAdjust="spacing" textLength="61" x="600.5" y="1185.4639">'hit' | 'miss'</text><polygon fill="#2C3E50" points="1086.5,1216.6719,1096.5,1220.6719,1086.5,1224.6719,1090.5,1220.6719" style="stroke:#2C3E50;stroke-width:1.0;"/><line style="stroke:#2C3E50;stroke-width:1.0;" x1="583.5" x2="1092.5" y1="1220.6719" y2="1220.6719"/><text fill="#2C3E50" font-family="Helvetica" font-size="13" lengthAdjust="spacing" textLength="220" x="590.5" y="1215.8154">create({userId: NULL, row, col, result})</text><polygon fill="#2C3E50" points="1455,1247.0234,1465,1251.0234,1455,1255.0234,1459,1251.0234" style="stroke:#2C3E50;stroke-width:1.0;"/><line style="stroke:#2C3E50;stroke-width:1.0;" x1="1098.5" x2="1461" y1="1251.0234" y2="1251.0234"/><text fill="#2C3E50" font-family="Helvetica" font-size="13" lengthAdjust="spacing" textLength="120" x="1105.5" y="1246.167">INSERT INTO moves</text><path d="M1103,1269.0234 L1103,1285.0234 A5,5 0 0 0 1108,1290.0234 L1352,1290.0234 A5,5 0 0 0 1357,1285.0234 L1357,1274.0234 L1347,1264.0234 L1108,1264.0234 A5,5 0 0 0 1103,1269.0234 " fill="#FFF8DC" style="stroke:#B8A160;stroke-width:0.5;"/><path d="M1347,1264.0234 L1347,1271.5234 A2.5,2.5 0 0 0 1349.5,1274.0234 L1357,1274.0234 L1347,1264.0234 " fill="#FFF8DC" style="stroke:#B8A160;stroke-width:0.5;"/><text fill="#4A4030" font-family="Helvetica" font-size="13" lengthAdjust="spacing" textLength="233" x="1109" y="1282.5186">userId = NULL identifica la mossa dell'IA</text><polygon fill="#2C3E50" points="1172,1313.7266,1182,1317.7266,1172,1321.7266,1176,1317.7266" style="stroke:#2C3E50;stroke-width:1.0;"/><line style="stroke:#2C3E50;stroke-width:1.0;" x1="583.5" x2="1178" y1="1317.7266" y2="1317.7266"/><text fill="#2C3E50" font-family="Helvetica" font-size="13" lengthAdjust="spacing" textLength="203" x="590.5" y="1312.8701">decrementTokens(player1Id, 0.015)</text><polygon fill="#2C3E50" points="1455,1344.0781,1465,1348.0781,1455,1352.0781,1459,1348.0781" style="stroke:#2C3E50;stroke-width:1.0;"/><line style="stroke:#2C3E50;stroke-width:1.0;" x1="1184" x2="1461" y1="1348.0781" y2="1348.0781"/><text fill="#2C3E50" font-family="Helvetica" font-size="13" lengthAdjust="spacing" textLength="259" x="1191" y="1343.2217">UPDATE users SET tokens = tokens - 0.015</text><path d="M1189,1366.0781 L1189,1398.0781 A5,5 0 0 0 1194,1403.0781 L1440,1403.0781 A5,5 0 0 0 1445,1398.0781 L1445,1371.0781 L1435,1361.0781 L1194,1361.0781 A5,5 0 0 0 1189,1366.0781 " fill="#FFF8DC" style="stroke:#B8A160;stroke-width:0.5;"/><path d="M1435,1361.0781 L1435,1368.5781 A2.5,2.5 0 0 0 1437.5,1371.0781 L1445,1371.0781 L1435,1361.0781 " fill="#FFF8DC" style="stroke:#B8A160;stroke-width:0.5;"/><text fill="#4A4030" font-family="Helvetica" font-size="13" lengthAdjust="spacing" textLength="208" x="1195" y="1379.5732">Anche la mossa dell'IA costa 0.015,</text><text fill="#4A4030" font-family="Helvetica" font-size="13" lengthAdjust="spacing" textLength="235" x="1195" y="1395.9248">addebitati all'UMANO (0.030 a scambio).</text><path d="M526,1415.7813 L582,1415.7813 L582,1424.1328 L572,1434.1328 L521,1434.1328 L521,1420.7813 A5,5 0 0 1 526,1415.7813 " fill="#E8EDF2" style="stroke:#2C3E50;stroke-width:1.5;"/><rect fill="none" height="107.0547" rx="5" ry="5" style="stroke:#2C3E50;stroke-width:1.5;" width="288.5" x="521" y="1415.7813"/><text fill="#2C3E50" font-family="Helvetica" font-size="13" font-weight="bold" lengthAdjust="spacing" textLength="16" x="536" y="1430.2764">alt</text><text fill="#000000" font-family="Helvetica" font-size="11" font-weight="bold" lengthAdjust="spacing" textLength="207" x="597" y="1429.2002">[l'IA ha affondato tutta la flotta umana]</text><line style="stroke:#2C3E50;stroke-width:1.0;" x1="583.5" x2="625.5" y1="1456.4844" y2="1456.4844"/><line style="stroke:#2C3E50;stroke-width:1.0;" x1="625.5" x2="625.5" y1="1456.4844" y2="1469.4844"/><line style="stroke:#2C3E50;stroke-width:1.0;" x1="584.5" x2="625.5" y1="1469.4844" y2="1469.4844"/><polygon fill="#2C3E50" points="594.5,1465.4844,584.5,1469.4844,594.5,1473.4844,590.5,1469.4844" style="stroke:#2C3E50;stroke-width:1.0;"/><text fill="#2C3E50" font-family="Helvetica" font-size="13" lengthAdjust="spacing" textLength="207" x="590.5" y="1451.6279">status='completed', winner='player2'</text><line style="stroke:#2C3E50;stroke-width:1.0;stroke-dasharray:2.0,2.0;" x1="521" x2="809.5" y1="1478.4844" y2="1478.4844"/><line style="stroke:#2C3E50;stroke-width:1.0;" x1="583.5" x2="625.5" y1="1501.8359" y2="1501.8359"/><line style="stroke:#2C3E50;stroke-width:1.0;" x1="625.5" x2="625.5" y1="1501.8359" y2="1514.8359"/><line style="stroke:#2C3E50;stroke-width:1.0;" x1="584.5" x2="625.5" y1="1514.8359" y2="1514.8359"/><polygon fill="#2C3E50" points="594.5,1510.8359,584.5,1514.8359,594.5,1518.8359,590.5,1514.8359" style="stroke:#2C3E50;stroke-width:1.0;"/><text fill="#2C3E50" font-family="Helvetica" font-size="13" lengthAdjust="spacing" textLength="127" x="590.5" y="1496.9795">currentTurn = 'player1'</text><polygon fill="#2C3E50" points="1460,1555.1875,1470,1559.1875,1460,1563.1875,1464,1559.1875" style="stroke:#2C3E50;stroke-width:1.0;"/><line style="stroke:#2C3E50;stroke-width:1.0;" x1="583.5" x2="1466" y1="1559.1875" y2="1559.1875"/><text fill="#2C3E50" font-family="Helvetica" font-size="13" lengthAdjust="spacing" textLength="51" x="590.5" y="1554.3311">COMMIT</text><polygon fill="#2C3E50" points="335.5,1585.5391,325.5,1589.5391,335.5,1593.5391,331.5,1589.5391" style="stroke:#2C3E50;stroke-width:1.0;"/><line style="stroke:#2C3E50;stroke-width:1.0;stroke-dasharray:2.0,2.0;" x1="329.5" x2="577.5" y1="1589.5391" y2="1589.5391"/><text fill="#2C3E50" font-family="Helvetica" font-size="13" lengthAdjust="spacing" textLength="128" x="341.5" y="1584.6826">{result, aiMove, game}</text><polygon fill="#2C3E50" points="47.5,1615.8906,37.5,1619.8906,47.5,1623.8906,43.5,1619.8906" style="stroke:#2C3E50;stroke-width:1.0;"/><line style="stroke:#2C3E50;stroke-width:1.0;stroke-dasharray:2.0,2.0;" x1="41.5" x2="318.5" y1="1619.8906" y2="1619.8906"/><text fill="#2C3E50" font-family="Helvetica" font-size="13" lengthAdjust="spacing" textLength="254" x="53.5" y="1615.0342">200 {result, aiMove: {row, col, result}, game}</text><!--SRC=[dLRRRkCs47tNLqpJ1zc5usHJ52Y2E80JArajuajrmQ90W8AHnZOHYHH8ojjicd_la9RaIz82xPDbpypXuSoP8__0HLRKES8VshmKEApgil0CDmN2L6hDOB4PXz1RC6DG2OYDOWPNBttFOvcH2avIWyBWe-XL1Nj1zQb_0an3wbLC6PxnYWa39ojMOYHhWzf5eyFeL6umHhNX6RhmD3wCHqpaicoFVXHNLwwY-NvzxOhYvB1eMI2QeTaUU7SOkoSwa_7SXUudxycqiUbHBDMesbWwyN9cs1FJ22SBgSrAOVpRWujDRZmlXTDhYE0I5lCuWJFR0NtswQmaUFqeRf0fL73rvMjo_IXUbVmsW4mMRxQhV4FteXv55c4Q4mJ-YHarprBhlLgaC1z0JMJiPrVRtnLJ1psgfFh93TNV1FVX399eF8l7jqaud-qoAVvZy6imkRlmXAJlYg_M1kJIGW2aWe6M1GFgjT3iEvS2eIBYXH_EaY2QWyvO-SJb9ILBq1mKhhYssH985ug22AIbahI4b9D90Hpo6e7bEJvnmmTK9r3hMh2XXo87IwDbVpyXzaikyfkNnNEllVbh8RFdI-9K8rsQSaxRHjd1Gi-yL0WZyAiDupufTJHgj9nZKVZfT3oRmsZK7757PLn_vgRt99dAm_6kettlRWVjhxdnuI_mIwwrtnHFBRzC8NMoztey47f2NHU6E59UEujm5WTHGX_979mO6gZKGkL8O2KrBf7FA7IlXJmVdd_wfU-bEvXqCHadWHC1QJz8mBWAkdRpSBejeZqj38shBkr8rWpOSYa5ALU2gOrXGCDT5j8-XMCQK7ClUsDjcAdroCzaMHLeCFS7y8qBWMhaDylkKyK7iW5uyCCnHGIikCpOfJt5RH8TWxwTA3qDNUOjhOvqav6Tc1hg09qUiA0rQn6OoAHYm0LrMMbvo3ghbR8DhCcjh0OSqGlVeopIGSHrHGSIHcraoMYr6rKGtLvdRbOT7MWhmJ6t-wSR5VPjmcuSSV0Gt2Rm4zn5yoaqI_xrSn05pPv26CCiVNYWCYeuxRGZYufJavWFraU94EJCqMdmssjL2ZTSrZfUIwEzZXrP2u6ifTIjEoYUn_mx3WuhtYpVRkd9Au_dvdu2w7oUp289xd-dtIZeEkJq23clQ1xeyXn9JiQlbYpBE8DzHnxOoU_IMB6IYfjI3Y6ctdDJSqBRjXprq7g2Iww5ZxKYzw2Xz9ruZCoo1dhxUXZkQmBixRi6xJmKIiQRRZ9Aod7_tbtdZlO-jVknl_e0_xpy1zeuNFzBD-KFJU10CEzjuDqcJRPTsSfdv721vtGllhIofPKgTwxc1BEppvRXXwxIBE-UiG3y7sivPfnk6Oz5jiPtzAWPTkzSvS3bDMy0gtdM-NAF4du-1zPwGNzuTA-jdH7UltgPjJlcJlbFXdPXPskzvhZqGrTnzaVSx6lhu7rxEvzEmyJRKnxz8x3nvY_1wrOJ0s3EKmPWFULjFvziD7BfAQLVd9yVb-pflLFO1p3Htm00]--></g></svg>