<?xml version="1.0" encoding="us-ascii" standalone="no"?><svg xmlns="http://www.w3.org/2000/svg" xmlns:xlink="http://www.w3.org/1999/xlink" contentStyleType="text/css" height="1825px" preserveAspectRatio="none" style="width:1592px;height:1825px;background:#FFFFFF;" version="1.1" viewBox="0 0 1592 1825" width="1592px" zoomAndPan="magnify"><defs/><g><text fill="#000000" font-family="Helvetica" font-size="14" font-weight="bold" lengthAdjust="spacing" textLength="177" x="703.5" y="29.5332">Mossa PvP con "Silence"</text><rect fill="#E8EDF2" height="398.4063" style="stroke:#2C3E50;stroke-width:1.0;" width="10" x="417" y="231.8828"/><rect fill="#E8EDF2" height="977.7891" style="stroke:#2C3E50;stroke-width:1.0;" width="10" x="417" y="729.6953"/><rect fill="#E8EDF2" height="322.7031" style="stroke:#2C3E50;stroke-width:1.0;" width="10" x="650" y="262.2344"/><rect fill="#E8EDF2" height="917.0859" style="stroke:#2C3E50;stroke-width:1.0;" width="10" x="757" y="760.0469"/><rect fill="#E8EDF2" height="30.3516" style="stroke:#2C3E50;stroke-width:1.0;" width="10" x="976" y="1031.9141"/><rect fill="#E8EDF2" height="856.3828" style="stroke:#2C3E50;stroke-width:1.0;" width="10" x="1518.5" y="790.3984"/><rect fill="none" height="224.6484" rx="5" ry="5" style="stroke:#2C3E50;stroke-width:1.5;" width="1565" x="10" y="398.6406"/><rect fill="none" height="136.4609" rx="5" ry="5" style="stroke:#2C3E50;stroke-width:1.5;" width="207" x="762" y="866.1016"/><rect fill="none" height="94.4063" rx="5" ry="5" style="stroke:#2C3E50;stroke-width:1.5;" width="249" x="704.5" y="1120.6172"/><rect fill="none" height="137.2422" rx="5" ry="5" style="stroke:#2C3E50;stroke-width:1.5;" width="208.5" x="704.5" y="1480.1875"/><line style="stroke:#2C3E50;stroke-width:0.5;stroke-dasharray:5.0,5.0;" x1="57" x2="57" y1="138.8281" y2="1725.4844"/><line style="stroke:#2C3E50;stroke-width:0.5;stroke-dasharray:5.0,5.0;" x1="146" x2="146" y1="138.8281" y2="1725.4844"/><line style="stroke:#2C3E50;stroke-width:0.5;stroke-dasharray:5.0,5.0;" x1="422" x2="422" y1="138.8281" y2="1725.4844"/><line style="stroke:#2C3E50;stroke-width:0.5;stroke-dasharray:5.0,5.0;" x1="654.5" x2="654.5" y1="138.8281" y2="1725.4844"/><line style="stroke:#2C3E50;stroke-width:0.5;stroke-dasharray:5.0,5.0;" x1="761.5" x2="761.5" y1="138.8281" y2="1725.4844"/><line style="stroke:#2C3E50;stroke-width:0.5;stroke-dasharray:5.0,5.0;" x1="981" x2="981" y1="138.8281" y2="1725.4844"/><line style="stroke:#2C3E50;stroke-width:0.5;stroke-dasharray:5.0,5.0;" x1="1060" x2="1060" y1="138.8281" y2="1725.4844"/><line style="stroke:#2C3E50;stroke-width:0.5;stroke-dasharray:5.0,5.0;" x1="1150" x2="1150" y1="138.8281" y2="1725.4844"/><line style="stroke:#2C3E50;stroke-width:0.5;stroke-dasharray:5.0,5.0;" x1="1235" x2="1235" y1="138.8281" y2="1725.4844"/><line style="stroke:#2C3E50;stroke-width:0.5;stroke-dasharray:5.0,5.0;" x1="1523" x2="1523" y1="138.8281" y2="1725.4844"/><text fill="#000000" font-family="Helvetica" font-size="14" lengthAdjust="spacing" textLength="25" x="42" y="118.1426">Bob</text><text fill="#000000" font-family="Helvetica" font-size="14" lengthAdjust="spacing" textLength="69" x="20" y="135.752">(difensore)</text><ellipse cx="57.5" cy="52.1094" fill="#F8F9FA" rx="8" ry="8" style="stroke:#2C3E50;stroke-width:0.5;"/><path d="M57.5,60.1094 L57.5,87.1094 M44.5,68.1094 L70.5,68.1094 M57.5,87.1094 L44.5,102.1094 M57.5,87.1094 L70.5,102.1094 " fill="none" style="stroke:#2C3E50;stroke-width:0.5;"/><text fill="#000000" font-family="Helvetica" font-size="14" lengthAdjust="spacing" textLength="25" x="42" y="1739.0176">Bob</text><text fill="#000000" font-family="Helvetica" font-size="14" lengthAdjust="spacing" textLength="69" x="20" y="1756.627">(difensore)</text><ellipse cx="57.5" cy="1768.2031" fill="#F8F9FA" rx="8" ry="8" style="stroke:#2C3E50;stroke-width:0.5;"/><path d="M57.5,1776.2031 L57.5,1803.2031 M44.5,1784.2031 L70.5,1784.2031 M57.5,1803.2031 L44.5,1818.2031 M57.5,1803.2031 L70.5,1818.2031 " fill="none" style="stroke:#2C3E50;stroke-width:0.5;"/><text fill="#000000" font-family="Helvetica" font-size="14" lengthAdjust="spacing" textLength="30" x="128" y="118.1426">Alice</text><text fill="#000000" font-family="Helvetica" font-size="14" lengthAdjust="spacing" textLength="76" x="105" y="135.752">(attaccante)</text><ellipse cx="146" cy="52.1094" fill="#F8F9FA" rx="8" ry="8" style="stroke:#2C3E50;stroke-width:0.5;"/><path d="M146,60.1094 L146,87.1094 M133,68.1094 L159,68.1094 M146,87.1094 L133,102.1094 M146,87.1094 L159,102.1094 " fill="none" style="stroke:#2C3E50;stroke-width:0.5;"/><text fill="#000000" font-family="Helvetica" font-size="14" lengthAdjust="spacing" textLength="30" x="128" y="1739.0176">Alice</text><text fill="#000000" font-family="Helvetica" font-size="14" lengthAdjust="spacing" textLength="76" x="105" y="1756.627">(attaccante)</text><ellipse cx="146" cy="1768.2031" fill="#F8F9FA" rx="8" ry="8" style="stroke:#2C3E50;stroke-width:0.5;"/><path d="M146,1776.2031 L146,1803.2031 M133,1784.2031 L159,1784.2031 M146,1803.2031 L133,1818.2031 M146,1803.2031 L159,1818.2031 " fill="none" style="stroke:#2C3E50;stroke-width:0.5;"/><rect fill="#F8F9FA" height="31.6094" rx="5" ry="5" style="stroke:#2C3E50;stroke-width:0.5;" width="94" x="375" y="106.2188"/><text fill="#2C3E50" font-family="Helvetica" font-size="14" lengthAdjust="spacing" textLength="80" x="382" y="127.752">gameRoutes</text><rect fill="#F8F9FA" height="31.6094" rx="5" ry="5" style="stroke:#2C3E50;stroke-width:0.5;" width="94" x="375" y="1724.4844"/><text fill="#2C3E50" font-family="Helvetica" font-size="14" lengthAdjust="spacing" textLength="80" x="382" y="1746.0176">gameRoutes</text><rect fill="#F8F9FA" height="31.6094" rx="5" ry="5" style="stroke:#2C3E50;stroke-width:0.5;" width="99" x="605.5" y="106.2188"/><text fill="#2C3E50" font-family="Helvetica" font-size="14" lengthAdjust="spacing" textLength="85" x="612.5" y="127.752">GameService</text><rect fill="#F8F9FA" height="31.6094" rx="5" ry="5" style="stroke:#2C3E50;stroke-width:0.5;" width="99" x="605.5" y="1724.4844"/><text fill="#2C3E50" font-family="Helvetica" font-size="14" lengthAdjust="spacing" textLength="85" x="612.5" y="1746.0176">GameService</text><rect fill="#F8F9FA" height="31.6094" rx="5" ry="5" style="stroke:#2C3E50;stroke-width:0.5;" width="95" x="714.5" y="106.2188"/><text fill="#2C3E50" font-family="Helvetica" font-size="14" lengthAdjust="spacing" textLength="81" x="721.5" y="127.752">MoveService</text><rect fill="#F8F9FA" height="31.6094" rx="5" ry="5" style="stroke:#2C3E50;stroke-width:0.5;" width="95" x="714.5" y="1724.4844"/><text fill="#2C3E50" font-family="Helvetica" font-size="14" lengthAdjust="spacing" textLength="81" x="721.5" y="1746.0176">MoveService</text><rect fill="#F8F9FA" height="31.6094" rx="5" ry="5" style="stroke:#2C3E50;stroke-width:0.5;" width="56" x="953" y="106.2188"/><text fill="#2C3E50" font-family="Helvetica" font-size="14" lengthAdjust="spacing" textLength="42" x="960" y="127.752">fleet.ts</text><rect fill="#F8F9FA" height="31.6094" rx="5" ry="5" style="stroke:#2C3E50;stroke-width:0.5;" width="56" x="953" y="1724.4844"/><text fill="#2C3E50" font-family="Helvetica" font-size="14" lengthAdjust="spacing" textLength="42" x="960" y="1746.0176">fleet.ts</text><rect fill="#F8F9FA" height="31.6094" rx="5" ry="5" style="stroke:#2C3E50;stroke-width:0.5;" width="82" x="1019" y="106.2188"/><text fill="#2C3E50" font-family="Helvetica" font-size="14" lengthAdjust="spacing" textLength="68" x="1026" y="127.752">GameDAO</text><rect fill="#F8F9FA" height="31.6094" rx="5" ry="5" style="stroke:#2C3E50;stroke-width:0.5;" width="82" x="1019" y="1724.4844"/><text fill="#2C3E50" font-family="Helvetica" font-size="14" lengthAdjust="spacing" textLength="68" x="1026" y="1746.0176">GameDAO</text><rect fill="#F8F9FA" height="31.6094" rx="5" ry="5" style="stroke:#2C3E50;stroke-width:0.5;" width="78" x="1111" y="106.2188"/><text fill="#2C3E50" font-family="Helvetica" font-size="14" lengthAdjust="spacing" textLength="64" x="1118" y="127.752">MoveDAO</text><rect fill="#F8F9FA" height="31.6094" rx="5" ry="5" style="stroke:#2C3E50;stroke-width:0.5;" width="78" x="1111" y="1724.4844"/><text fill="#2C3E50" font-family="Helvetica" font-size="14" lengthAdjust="spacing" textLength="64" x="1118" y="1746.0176">MoveDAO</text><rect fill="#F8F9FA" height="31.6094" rx="5" ry="5" style="stroke:#2C3E50;stroke-width:0.5;" width="73" x="1199" y="106.2188"/><text fill="#2C3E50" font-family="Helvetica" font-size="14" lengthAdjust="spacing" textLength="59" x="1206" y="127.752">UserDAO</text><rect fill="#F8F9FA" height="31.6094" rx="5" ry="5" style="stroke:#2C3E50;stroke-width:0.5;" width="73" x="1199" y="1724.4844"/><text fill="#2C3E50" font-family="Helvetica" font-size="14" lengthAdjust="spacing" textLength="59" x="1206" y="1746.0176">UserDAO</text><text fill="#000000" font-family="Helvetica" font-size="14" lengthAdjust="spacing" textLength="77" x="1482" y="135.752">PostgreSQL</text><path d="M1505.5,85.2188 C1505.5,75.2188 1523.5,75.2188 1523.5,75.2188 C1523.5,75.2188 1541.5,75.2188 1541.5,85.2188 L1541.5,111.2188 C1541.5,121.2188 1523.5,121.2188 1523.5,121.2188 C1523.5,121.2188 1505.5,121.2188 1505.5,111.2188 L1505.5,85.2188 " fill="#F8F9FA" style="stroke:#2C3E50;stroke-width:1.5;"/><path d="M1505.5,85.2188 C1505.5,95.2188 1523.5,95.2188 1523.5,95.2188 C1523.5,95.2188 1541.5,95.2188 1541.5,85.2188 " fill="none" style="stroke:#2C3E50;stroke-width:1.5;"/><text fill="#000000" font-family="Helvetica" font-size="14" lengthAdjust="spacing" textLength="77" x="1482" y="1739.0176">PostgreSQL</text><path d="M1505.5,1752.0938 C1505.5,1742.0938 1523.5,1742.0938 1523.5,1742.0938 C1523.5,1742.0938 1541.5,1742.0938 1541.5,1752.0938 L1541.5,1778.0938 C1541.5,1788.0938 1523.5,1788.0938 1523.5,1788.0938 C1523.5,1788.0938 1505.5,1788.0938 1505.5,1778.0938 L1505.5,1752.0938 " fill="#F8F9FA" style="stroke:#2C3E50;stroke-width:1.5;"/><path d="M1505.5,1752.0938 C1505.5,1762.0938 1523.5,1762.0938 1523.5,1762.0938 C1523.5,1762.0938 1541.5,1762.0938 1541.5,1752.0938 " fill="none" style="stroke:#2C3E50;stroke-width:1.5;"/><rect fill="#E8EDF2" height="398.4063" style="stroke:#2C3E50;stroke-width:1.0;" width="10" x="417" y="231.8828"/><rect fill="#E8EDF2" height="977.7891" style="stroke:#2C3E50;stroke-width:1.0;" width="10" x="417" y="729.6953"/><rect fill="#E8EDF2" height="322.7031" style="stroke:#2C3E50;stroke-width:1.0;" width="10" x="650" y="262.2344"/><rect fill="#E8EDF2" height="917.0859" style="stroke:#2C3E50;stroke-width:1.0;" width="10" x="757" y="760.0469"/><rect fill="#E8EDF2" height="30.3516" style="stroke:#2C3E50;stroke-width:1.0;" width="10" x="976" y="1031.9141"/><rect fill="#E8EDF2" height="856.3828" style="stroke:#2C3E50;stroke-width:1.0;" width="10" x="1518.5" y="790.3984"/><rect fill="#E8EDF2" height="3" rx="5" ry="5" style="stroke:#E8EDF2;stroke-width:1.0;" width="1585" x="0" y="170.0039"/><line style="stroke:#2C3E50;stroke-width:1.0;" x1="0" x2="1585" y1="170.0039" y2="170.0039"/><line style="stroke:#2C3E50;stroke-width:1.0;" x1="0" x2="1585" y1="173.0039" y2="173.0039"/><rect fill="#E8EDF2" height="24.3516" rx="5" ry="5" style="stroke:#2C3E50;stroke-width:2.0;" width="233" x="676" y="158.8281"/><text fill="#000000" font-family="Helvetica" font-size="13" font-weight="bold" lengthAdjust="spacing" textLength="215" x="682" y="176.3232">1. Il DIFENSORE "arma" il silenzio</text><polygon fill="#2C3E50" points="405,227.8828,415,231.8828,405,235.8828,409,231.8828" style="stroke:#2C3E50;stroke-width:1.0;"/><line style="stroke:#2C3E50;stroke-width:1.0;" x1="57.5" x2="411" y1="231.8828" y2="231.8828"/><text fill="#2C3E50" font-family="Helvetica" font-size="13" lengthAdjust="spacing" textLength="138" x="64.5" y="210.6748">POST /games/1/silence</text><text fill="#2C3E50" font-family="Helvetica" font-size="13" lengthAdjust="spacing" textLength="111" x="64.5" y="227.0264">Bearer &lt;JWT Bob&gt;</text><polygon fill="#2C3E50" points="638,258.2344,648,262.2344,638,266.2344,642,262.2344" style="stroke:#2C3E50;stroke-width:1.0;"/><line style="stroke:#2C3E50;stroke-width:1.0;" x1="427" x2="644" y1="262.2344" y2="262.2344"/><text fill="#2C3E50" font-family="Helvetica" font-size="13" lengthAdjust="spacing" textLength="154" x="434" y="257.3779">armSilence(gameId, bobId)</text><polygon fill="#2C3E50" points="1048,288.5859,1058,292.5859,1048,296.5859,1052,292.5859" style="stroke:#2C3E50;stroke-width:1.0;"/><line style="stroke:#2C3E50;stroke-width:1.0;" x1="660" x2="1054" y1="292.5859" y2="292.5859"/><text fill="#2C3E50" font-family="Helvetica" font-size="13" lengthAdjust="spacing" textLength="172" x="667" y="287.7295">findByPk(gameId, {lock: true})</text><polygon fill="#2C3E50" points="1511.5,318.9375,1521.5,322.9375,1511.5,326.9375,1515.5,322.9375" style="stroke:#2C3E50;stroke-width:1.0;"/><line style="stroke:#2C3E50;stroke-width:1.0;" x1="1060" x2="1517.5" y1="322.9375" y2="322.9375"/><text fill="#2C3E50" font-family="Helvetica" font-size="13" lengthAdjust="spacing" textLength="153" x="1067" y="318.0811">SELECT ... FOR UPDATE</text><polygon fill="#2C3E50" points="1071,349.2891,1061,353.2891,1071,357.2891,1067,353.2891" style="stroke:#2C3E50;stroke-width:1.0;"/><line style="stroke:#2C3E50;stroke-width:1.0;stroke-dasharray:2.0,2.0;" x1="1065" x2="1522.5" y1="353.2891" y2="353.2891"/><text fill="#2C3E50" font-family="Helvetica" font-size="13" lengthAdjust="spacing" textLength="36" x="1077" y="348.4326">partita</text><polygon fill="#2C3E50" points="671,379.6406,661,383.6406,671,387.6406,667,383.6406" style="stroke:#2C3E50;stroke-width:1.0;"/><line style="stroke:#2C3E50;stroke-width:1.0;stroke-dasharray:2.0,2.0;" x1="665" x2="1059" y1="383.6406" y2="383.6406"/><text fill="#2C3E50" font-family="Helvetica" font-size="13" lengthAdjust="spacing" textLength="35" x="677" y="378.7842">Game</text><path d="M15,398.6406 L71,398.6406 L71,406.9922 L61,416.9922 L10,416.9922 L10,403.6406 A5,5 0 0 1 15,398.6406 " fill="#E8EDF2" style="stroke:#2C3E50;stroke-width:1.5;"/><rect fill="none" height="224.6484" rx="5" ry="5" style="stroke:#2C3E50;stroke-width:1.5;" width="1565" x="10" y="398.6406"/><text fill="#2C3E50" font-family="Helvetica" font-size="13" font-weight="bold" lengthAdjust="spacing" textLength="16" x="25" y="413.1357">alt</text><text fill="#000000" font-family="Helvetica" font-size="11" font-weight="bold" lengthAdjust="spacing" textLength="173" x="86" y="412.0596">[partita PvAI oppure budget = 0]</text><line style="stroke:#2C3E50;stroke-width:1.0;" x1="58.5" x2="68.5" y1="439.3438" y2="435.3438"/><line style="stroke:#2C3E50;stroke-width:1.0;" x1="58.5" x2="68.5" y1="439.3438" y2="443.3438"/><line style="stroke:#2C3E50;stroke-width:1.0;stroke-dasharray:2.0,2.0;" x1="57.5" x2="649" y1="439.3438" y2="439.3438"/><text fill="#2C3E50" font-family="Helvetica" font-size="13" lengthAdjust="spacing" textLength="92" x="74.5" y="434.4873">400 / 409 {error}</text><line style="stroke:#2C3E50;stroke-width:1.0;stroke-dasharray:2.0,2.0;" x1="10" x2="1575" y1="448.3438" y2="448.3438"/><text fill="#000000" font-family="Helvetica" font-size="11" font-weight="bold" lengthAdjust="spacing" textLength="98" x="15" y="459.7627">[PvP e budget &gt; 0]</text><polygon fill="#2C3E50" points="1511.5,497.8828,1521.5,501.8828,1511.5,505.8828,1515.5,501.8828" style="stroke:#2C3E50;stroke-width:1.0;"/><line style="stroke:#2C3E50;stroke-width:1.0;" x1="660" x2="1517.5" y1="501.8828" y2="501.8828"/><text fill="#2C3E50" font-family="Helvetica" font-size="13" lengthAdjust="spacing" textLength="95" x="667" y="480.6748">UPDATE games</text><text fill="#2C3E50" font-family="Helvetica" font-size="13" lengthAdjust="spacing" textLength="190" x="667" y="497.0264">SET silenceArmedPlayer2 = true</text><path d="M665,519.8828 L665,551.8828 A5,5 0 0 0 670,556.8828 L939,556.8828 A5,5 0 0 0 944,551.8828 L944,524.8828 L934,514.8828 L670,514.8828 A5,5 0 0 0 665,519.8828 " fill="#FFF8DC" style="stroke:#B8A160;stroke-width:0.5;"/><path d="M934,514.8828 L934,522.3828 A2.5,2.5 0 0 0 936.5,524.8828 L944,524.8828 L934,514.8828 " fill="#FFF8DC" style="stroke:#B8A160;stroke-width:0.5;"/><text fill="#4A4030" font-family="Helvetica" font-size="13" lengthAdjust="spacing" textLength="258" x="671" y="533.3779">Il budget Silence NON ancora decrementato:</text><text fill="#4A4030" font-family="Helvetica" font-size="13" lengthAdjust="spacing" textLength="224" x="671" y="549.7295">si consuma solo quando il colpo arriva.</text><polygon fill="#2C3E50" points="438,580.9375,428,584.9375,438,588.9375,434,584.9375" style="stroke:#2C3E50;stroke-width:1.0;"/><line style="stroke:#2C3E50;stroke-width:1.0;stroke-dasharray:2.0,2.0;" x1="432" x2="654" y1="584.9375" y2="584.9375"/><text fill="#2C3E50" font-family="Helvetica" font-size="13" lengthAdjust="spacing" textLength="199" x="444" y="580.0811">{armed: true, silenceRemaining: 3}</text><polygon fill="#2C3E50" points="68.5,611.2891,58.5,615.2891,68.5,619.2891,64.5,615.2891" style="stroke:#2C3E50;stroke-width:1.0;"/><line style="stroke:#2C3E50;stroke-width:1.0;stroke-dasharray:2.0,2.0;" x1="62.5" x2="416" y1="615.2891" y2="615.2891"/><text fill="#2C3E50" font-family="Helvetica" font-size="13" lengthAdjust="spacing" textLength="21" x="74.5" y="610.4326">200</text><rect fill="#E8EDF2" height="3" rx="5" ry="5" style="stroke:#E8EDF2;stroke-width:1.0;" width="1585" x="0" y="651.4648"/><line style="stroke:#2C3E50;stroke-width:1.0;" x1="0" x2="1585" y1="651.4648" y2="651.4648"/><line style="stroke:#2C3E50;stroke-width:1.0;" x1="0" x2="1585" y1="654.4648" y2="654.4648"/><rect fill="#E8EDF2" height="24.3516" rx="5" ry="5" style="stroke:#2C3E50;stroke-width:2.0;" width="336" x="624.5" y="640.2891"/><text fill="#000000" font-family="Helvetica" font-size="13" font-weight="bold" lengthAdjust="spacing" textLength="318" x="630.5" y="657.7842">2. L'ATTACCANTE spara: il colpo viene "assorbito"</text><polygon fill="#2C3E50" points="405,725.6953,415,729.6953,405,733.6953,409,729.6953" style="stroke:#2C3E50;stroke-width:1.0;"/><line style="stroke:#2C3E50;stroke-width:1.0;" x1="146" x2="411" y1="729.6953" y2="729.6953"/><text fill="#2C3E50" font-family="Helvetica" font-size="13" lengthAdjust="spacing" textLength="134" x="153" y="692.1357">POST /games/1/moves</text><text fill="#2C3E50" font-family="Helvetica" font-size="13" lengthAdjust="spacing" textLength="117" x="153" y="708.4873">Bearer &lt;JWT Alice&gt;</text><text fill="#2C3E50" font-family="Helvetica" font-size="13" lengthAdjust="spacing" textLength="53" x="153" y="724.8389">{row, col}</text><polygon fill="#2C3E50" points="745,756.0469,755,760.0469,745,764.0469,749,760.0469" style="stroke:#2C3E50;stroke-width:1.0;"/><line style="stroke:#2C3E50;stroke-width:1.0;" x1="427" x2="751" y1="760.0469" y2="760.0469"/><text fill="#2C3E50" font-family="Helvetica" font-size="13" lengthAdjust="spacing" textLength="232" x="434" y="755.1904">executeMove({gameId, aliceId, row, col})</text><polygon fill="#2C3E50" points="1506.5,786.3984,1516.5,790.3984,1506.5,794.3984,1510.5,790.3984" style="stroke:#2C3E50;stroke-width:1.0;"/><line style="stroke:#2C3E50;stroke-width:1.0;" x1="767" x2="1512.5" y1="790.3984" y2="790.3984"/><text fill="#2C3E50" font-family="Helvetica" font-size="13" lengthAdjust="spacing" textLength="134" x="774" y="785.542">BEGIN TRANSACTION</text><polygon fill="#2C3E50" points="1048,816.75,1058,820.75,1048,824.75,1052,820.75" style="stroke:#2C3E50;stroke-width:1.0;"/><line style="stroke:#2C3E50;stroke-width:1.0;" x1="767" x2="1054" y1="820.75" y2="820.75"/><text fill="#2C3E50" font-family="Helvetica" font-size="13" lengthAdjust="spacing" textLength="172" x="774" y="815.8936">findByPk(gameId, {lock: true})</text><polygon fill="#2C3E50" points="778,847.1016,768,851.1016,778,855.1016,774,851.1016" style="stroke:#2C3E50;stroke-width:1.0;"/><line style="stroke:#2C3E50;stroke-width:1.0;stroke-dasharray:2.0,2.0;" x1="772" x2="1059" y1="851.1016" y2="851.1016"/><text fill="#2C3E50" font-family="Helvetica" font-size="13" lengthAdjust="spacing" textLength="35" x="784" y="846.2451">Game</text><path d="M767,866.1016 L964,866.1016 L964,874.4531 L954,884.4531 L762,884.4531 L762,871.1016 A5,5 0 0 1 767,866.1016 " fill="#E8EDF2" style="stroke:#2C3E50;stroke-width:1.5;"/><rect fill="none" height="136.4609" rx="5" ry="5" style="stroke:#2C3E50;stroke-width:1.5;" width="207" x="762" y="866.1016"/><text fill="#2C3E50" font-family="Helvetica" font-size="13" font-weight="bold" lengthAdjust="spacing" textLength="157" x="777" y="880.5967">Ammissibilita' (in ordine)</text><path d="M772,894.4531 L772,992.4531 A5,5 0 0 0 777,997.4531 L939,997.4531 A5,5 0 0 0 944,992.4531 L944,899.4531 L934,889.4531 L777,889.4531 A5,5 0 0 0 772,894.4531 " fill="#FFF8DC" style="stroke:#B8A160;stroke-width:0.5;"/><path d="M934,889.4531 L934,896.9531 A2.5,2.5 0 0 0 936.5,899.4531 L944,899.4531 L934,889.4531 " fill="#FFF8DC" style="stroke:#B8A160;stroke-width:0.5;"/><text fill="#4A4030" font-family="Helvetica" font-size="13" lengthAdjust="spacing" textLength="128" x="778" y="907.9482">404 partita inesistente</text><text fill="#4A4030" font-family="Helvetica" font-size="13" lengthAdjust="spacing" textLength="136" x="778" y="924.2998">409 partita non in corso</text><text fill="#4A4030" font-family="Helvetica" font-size="13" lengthAdjust="spacing" textLength="121" x="778" y="940.6514">403 non partecipante</text><text fill="#4A4030" font-family="Helvetica" font-size="13" lengthAdjust="spacing" textLength="124" x="778" y="957.0029">409 non e' il tuo turno</text><text fill="#4A4030" font-family="Helvetica" font-size="13" lengthAdjust="spacing" textLength="151" x="778" y="973.3545">400 coordinate fuori griglia</text><text fill="#4A4030" font-family="Helvetica" font-size="13" lengthAdjust="spacing" textLength="117" x="778" y="989.7061">409 cella gia' colpita</text><polygon fill="#2C3E50" points="964,1027.9141,974,1031.9141,964,1035.9141,968,1031.9141" style="stroke:#2C3E50;stroke-width:1.0;"/><line style="stroke:#2C3E50;stroke-width:1.0;" x1="767" x2="970" y1="1031.9141" y2="1031.9141"/><text fill="#2C3E50" font-family="Helvetica" font-size="13" lengthAdjust="spacing" textLength="142" x="774" y="1027.0576">isHit(boardBob, row, col)</text><polygon fill="#2C3E50" points="778,1058.2656,768,1062.2656,778,1066.2656,774,1062.2656" style="stroke:#2C3E50;stroke-width:1.0;"/><line style="stroke:#2C3E50;stroke-width:1.0;stroke-dasharray:2.0,2.0;" x1="772" x2="980" y1="1062.2656" y2="1062.2656"/><text fill="#2C3E50" font-family="Helvetica" font-size="13" lengthAdjust="spacing" textLength="142" x="784" y="1057.4092">esito VERO ('hit' | 'miss')</text><line style="stroke:#2C3E50;stroke-width:1.0;" x1="767" x2="809" y1="1092.6172" y2="1092.6172"/><line style="stroke:#2C3E50;stroke-width:1.0;" x1="809" x2="809" y1="1092.6172" y2="1105.6172"/><line style="stroke:#2C3E50;stroke-width:1.0;" x1="768" x2="809" y1="1105.6172" y2="1105.6172"/><polygon fill="#2C3E50" points="778,1101.6172,768,1105.6172,778,1109.6172,774,1105.6172" style="stroke:#2C3E50;stroke-width:1.0;"/><text fill="#2C3E50" font-family="Helvetica" font-size="13" lengthAdjust="spacing" textLength="195" x="774" y="1087.7607">difensore armato &amp;&amp; budget &gt; 0 ?</text><path d="M709.5,1120.6172 L765.5,1120.6172 L765.5,1128.9688 L755.5,1138.9688 L704.5,1138.9688 L704.5,1125.6172 A5,5 0 0 1 709.5,1120.6172 " fill="#E8EDF2" style="stroke:#2C3E50;stroke-width:1.5;"/><rect fill="none" height="94.4063" rx="5" ry="5" style="stroke:#2C3E50;stroke-width:1.5;" width="249" x="704.5" y="1120.6172"/><text fill="#2C3E50" font-family="Helvetica" font-size="13" font-weight="bold" lengthAdjust="spacing" textLength="16" x="719.5" y="1135.1123">alt</text><text fill="#000000" font-family="Helvetica" font-size="11" font-weight="bold" lengthAdjust="spacing" textLength="168" x="780.5" y="1134.0361">[SI: il silenzio viene esercitato]</text><line style="stroke:#2C3E50;stroke-width:1.0;" x1="767" x2="809" y1="1194.0234" y2="1194.0234"/><line style="stroke:#2C3E50;stroke-width:1.0;" x1="809" x2="809" y1="1194.0234" y2="1207.0234"/><line style="stroke:#2C3E50;stroke-width:1.0;" x1="768" x2="809" y1="1207.0234" y2="1207.0234"/><polygon fill="#2C3E50" points="778,1203.0234,768,1207.0234,778,1211.0234,774,1207.0234" style="stroke:#2C3E50;stroke-width:1.0;"/><text fill="#2C3E50" font-family="Helvetica" font-size="13" lengthAdjust="spacing" textLength="86" x="774" y="1156.4639">silenced = true</text><text fill="#2C3E50" font-family="Helvetica" font-size="13" lengthAdjust="spacing" textLength="112" x="774" y="1172.8154">silencePlayer2 -= 1</text><text fill="#2C3E50" font-family="Helvetica" font-size="13" lengthAdjust="spacing" textLength="166" x="774" y="1189.167">silenceArmedPlayer2 = false</text><polygon fill="#2C3E50" points="1138,1240.375,1148,1244.375,1138,1248.375,1142,1244.375" style="stroke:#2C3E50;stroke-width:1.0;"/><line style="stroke:#2C3E50;stroke-width:1.0;" x1="767" x2="1144" y1="1244.375" y2="1244.375"/><text fill="#2C3E50" font-family="Helvetica" font-size="13" lengthAdjust="spacing" textLength="254" x="774" y="1239.5186">create({row, col, result: &lt;VERO&gt;, silenced})</text><polygon fill="#2C3E50" points="1506.5,1270.7266,1516.5,1274.7266,1506.5,1278.7266,1510.5,1274.7266" style="stroke:#2C3E50;stroke-width:1.0;"/><line style="stroke:#2C3E50;stroke-width:1.0;" x1="1150" x2="1512.5" y1="1274.7266" y2="1274.7266"/><text fill="#2C3E50" font-family="Helvetica" font-size="13" lengthAdjust="spacing" textLength="120" x="1157" y="1269.8701">INSERT INTO moves</text><path d="M1155,1292.7266 L1155,1341.7266 A5,5 0 0 0 1160,1346.7266 L1413,1346.7266 A5,5 0 0 0 1418,1341.7266 L1418,1297.7266 L1408,1287.7266 L1160,1287.7266 A5,5 0 0 0 1155,1292.7266 " fill="#FFF8DC" style="stroke:#B8A160;stroke-width:0.5;"/><path d="M1408,1287.7266 L1408,1295.2266 A2.5,2.5 0 0 0 1410.5,1297.7266 L1418,1297.7266 L1408,1287.7266 " fill="#FFF8DC" style="stroke:#B8A160;stroke-width:0.5;"/><text fill="#4A4030" font-family="Helvetica" font-size="13" lengthAdjust="spacing" textLength="206" x="1161" y="1306.2217">L'esito VERO viene sempre salvato:</text><text fill="#4A4030" font-family="Helvetica" font-size="13" lengthAdjust="spacing" textLength="154" x="1161" y="1322.5732">serve per la vittoria e per la</text><text fill="#4A4030" font-family="Helvetica" font-size="13" lengthAdjust="spacing" textLength="242" x="1161" y="1338.9248">rivelazione a fine partita anche sul file .csv</text><polygon fill="#2C3E50" points="1223.5,1370.1328,1233.5,1374.1328,1223.5,1378.1328,1227.5,1374.1328" style="stroke:#2C3E50;stroke-width:1.0;"/><line style="stroke:#2C3E50;stroke-width:1.0;" x1="767" x2="1229.5" y1="1374.1328" y2="1374.1328"/><text fill="#2C3E50" font-family="Helvetica" font-size="13" lengthAdjust="spacing" textLength="188" x="774" y="1369.2764">decrementTokens(aliceId, 0.015)</text><polygon fill="#2C3E50" points="1506.5,1400.4844,1516.5,1404.4844,1506.5,1408.4844,1510.5,1404.4844" style="stroke:#2C3E50;stroke-width:1.0;"/><line style="stroke:#2C3E50;stroke-width:1.0;" x1="1235.5" x2="1512.5" y1="1404.4844" y2="1404.4844"/><text fill="#2C3E50" font-family="Helvetica" font-size="13" lengthAdjust="spacing" textLength="259" x="1242.5" y="1399.6279">UPDATE users SET tokens = tokens - 0.015</text><polygon fill="#2C3E50" points="969,1430.8359,979,1434.8359,969,1438.8359,973,1434.8359" style="stroke:#2C3E50;stroke-width:1.0;"/><line style="stroke:#2C3E50;stroke-width:1.0;" x1="767" x2="975" y1="1434.8359" y2="1434.8359"/><text fill="#2C3E50" font-family="Helvetica" font-size="13" lengthAdjust="spacing" textLength="143" x="774" y="1429.9795">totalShipCells(boardBob)</text><polygon fill="#2C3E50" points="778,1461.1875,768,1465.1875,778,1469.1875,774,1465.1875" style="stroke:#2C3E50;stroke-width:1.0;"/><line style="stroke:#2C3E50;stroke-width:1.0;stroke-dasharray:2.0,2.0;" x1="772" x2="980" y1="1465.1875" y2="1465.1875"/><text fill="#2C3E50" font-family="Helvetica" font-size="13" lengthAdjust="spacing" textLength="72" x="784" y="1460.3311">n. celle-nave</text><path d="M709.5,1480.1875 L765.5,1480.1875 L765.5,1488.5391 L755.5,1498.5391 L704.5,1498.5391 L704.5,1485.1875 A5,5 0 0 1 709.5,1480.1875 " fill="#E8EDF2" style="stroke:#2C3E50;stroke-width:1.5;"/><rect fill="none" height="137.2422" rx="5" ry="5" style="stroke:#2C3E50;stroke-width:1.5;" width="208.5" x="704.5" y="1480.1875"/><text fill="#2C3E50" font-family="Helvetica" font-size="13" font-weight="bold" lengthAdjust="spacing" textLength="16" x="719.5" y="1494.6826">alt</text><text fill="#000000" font-family="Helvetica" font-size="11" font-weight="bold" lengthAdjust="spacing" textLength="89" x="780.5" y="1493.6064">[tutte affondate]</text><line style="stroke:#2C3E50;stroke-width:1.0;" x1="767" x2="809" y1="1537.2422" y2="1537.2422"/><line style="stroke:#2C3E50;stroke-width:1.0;" x1="809" x2="809" y1="1537.2422" y2="1550.2422"/><line style="stroke:#2C3E50;stroke-width:1.0;" x1="768" x2="809" y1="1550.2422" y2="1550.2422"/><polygon fill="#2C3E50" points="778,1546.2422,768,1550.2422,778,1554.2422,774,1550.2422" style="stroke:#2C3E50;stroke-width:1.0;"/><text fill="#2C3E50" font-family="Helvetica" font-size="13" lengthAdjust="spacing" textLength="116" x="774" y="1516.0342">status = 'completed'</text><text fill="#2C3E50" font-family="Helvetica" font-size="13" lengthAdjust="spacing" textLength="99" x="774" y="1532.3857">winner = 'player1'</text><line style="stroke:#2C3E50;stroke-width:1.0;stroke-dasharray:2.0,2.0;" x1="704.5" x2="913" y1="1559.2422" y2="1559.2422"/><text fill="#000000" font-family="Helvetica" font-size="11" font-weight="bold" lengthAdjust="spacing" textLength="91" x="709.5" y="1570.6611">[partita in corso]</text><line style="stroke:#2C3E50;stroke-width:1.0;" x1="767" x2="809" y1="1596.4297" y2="1596.4297"/><line style="stroke:#2C3E50;stroke-width:1.0;" x1="809" x2="809" y1="1596.4297" y2="1609.4297"/><line style="stroke:#2C3E50;stroke-width:1.0;" x1="768" x2="809" y1="1609.4297" y2="1609.4297"/><polygon fill="#2C3E50" points="778,1605.4297,768,1609.4297,778,1613.4297,774,1609.4297" style="stroke:#2C3E50;stroke-width:1.0;"/><text fill="#2C3E50" font-family="Helvetica" font-size="13" lengthAdjust="spacing" textLength="127" x="774" y="1591.5732">currentTurn = 'player2'</text><polygon fill="#2C3E50" points="1511.5,1642.7813,1521.5,1646.7813,1511.5,1650.7813,1515.5,1646.7813" style="stroke:#2C3E50;stroke-width:1.0;"/><line style="stroke:#2C3E50;stroke-width:1.0;" x1="767" x2="1517.5" y1="1646.7813" y2="1646.7813"/><text fill="#2C3E50" font-family="Helvetica" font-size="13" lengthAdjust="spacing" textLength="51" x="774" y="1641.9248">COMMIT</text><polygon fill="#2C3E50" points="438,1673.1328,428,1677.1328,438,1681.1328,434,1677.1328" style="stroke:#2C3E50;stroke-width:1.0;"/><line style="stroke:#2C3E50;stroke-width:1.0;stroke-dasharray:2.0,2.0;" x1="432" x2="761" y1="1677.1328" y2="1677.1328"/><text fill="#2C3E50" font-family="Helvetica" font-size="13" lengthAdjust="spacing" textLength="136" x="444" y="1672.2764">{result, silenced, game}</text><polygon fill="#2C3E50" points="157,1703.4844,147,1707.4844,157,1711.4844,153,1707.4844" style="stroke:#2C3E50;stroke-width:1.0;"/><line style="stroke:#2C3E50;stroke-width:1.0;stroke-dasharray:2.0,2.0;" x1="151" x2="421" y1="1707.4844" y2="1707.4844"/><text fill="#2C3E50" font-family="Helvetica" font-size="13" lengthAdjust="spacing" textLength="247" x="163" y="1702.6279">200 {result: "hidden", silenced: true, game}</text><!--SRC=[ZLLRR-is37xth-0ou2G1sZJjwO2Tu3I3S-ioD9VPxlOIO51i9XMgI9uavwph-jz7-HOttSC2D0r4VXJvyIFr7PUno1A4Funz4TXBiuFmBBS2OQ6COR0-hY5M4beX5oXZR7aUYwtIq1gfxKPs4hv3QPJ6RWkOWL5bzGMFaUpCMXR7JDhImVTIfYsFUKfdqDgp0mOgisXoQ_3UUa_M4FMHGkNc-_2zVQ6Ex-oBC_jE8DgUBMBFFiQU-AiYxkHZtCgsEBCz6jILxN7Y9SooBJC8hRKoTgyn_FKXjqr6ddTt1zSzc0kOp6VJPRWAfj1Y-i1Qm0KOH-ZVNC7TdJU2oo44C83rAepWoh5YhgwlJC7vHewGQTJmzPVV8o3UXuvbVcGMYR70OUz30bFeiaiT5s6UNC1MRUT9z-HE39Ah0qm8iECo6RsidsltLw7Yvm5OdU5RroCVyfoCo3ESFap74VHwFPYj0dXSJ_newf7fiegLasHP3geISXnxJDZAI6hovw3IDDC8sopPeuKxw7lWt0ar17VNRRyFL_Jz1LvHQwNVF1H4i5DYZHhMg3B18YF8cTl8S1f1IPwl3vYi1Nj1VKENkT88AHMHeVd-oOBQELQ0FjIeCdn98onNIs0oLff1Wh760qhBh1haxeQxoJ3PWO5HGi6V6PE9SgsDbKWLjKCJwJtoHPdaDzQ5vhr-PIwrWksBAjq03unBBlS3-Fn6_WasUmS4T71NyKs_xr5Wh-4Hv9AxwS53suyYVppsbyI98VRPu9JNaQCalJ93OxlbLhMS0lt_Lk219i6yrry-sSEDVDNgsuKB-VP1ZGlNVFmBOnfiDqkTrqfWp87TZnhS42UDx-BKqT7qVhw4AF2NeJ-EvglboP7itqz_d4vcDoNW_wgvoYqNfhVNAal1FnouCNpB1Icq3HqkGUc4I-n-qCcYqCbj_xPMDFaPRYpf0alRbzecQMzID9AFKQNnStxe7B1OA2UKCs3RjSbcYlwqh41z2f6dv6hVPKfps5DEWhCQ7ACG3FQS2d1DTeFOa9sJISdKZAhdvcTkErl5T4BBvDIBHYjctkp45bLe5Vms3LRGQJznsuP_eEr8QtURwfjLT-IW-c5mQubc1ZvzQWml_9JlXN0-UBSA2saYhTYOkq6Z8XeXon59oZ7UoFAWckvBMhVruTdSxnZja2OH2oSP6cdAl5DBcRX0amaxWA-kt64zbWa9Q75QX_DbE0qY-XUj81yHxqme4yhyeTqWhgZCu24bHWmJntADKAb7X9I6Y_ftv9OUJywWEY47sY4e6953SEOqZhM-Q3CzKR1Cq34zsBtO7BswvsMPZwxCUdT5wfcQqgcdiD_hN__GzHudvtiqexmCk3LgSuYZlFXnMO2QUhBACX4-yNHCAZIriBfD3SbUhb6ybEnOl0asiqGPs-sKf4SKprfDtS_ShUrO7LA15fFsHdxZKX8lT9hcZRrk5q_3QHZhOMl4YZEjNUqqKIVeJJiNGsFVZ5UBnJng2fgUy4LZNHVIE4dY8dzjtfe8MX35WlQB1Ls11j1wuac2idM2Lul_Gv3WNm00]--></g></svg>