<?xml version="1.0" encoding="us-ascii" standalone="no"?><svg xmlns="http://www.w3.org/2000/svg" xmlns:xlink="http://www.w3.org/1999/xlink" contentStyleType="text/css" height="693px" preserveAspectRatio="none" style="width:1021px;height:693px;background:#FFFFFF;" version="1.1" viewBox="0 0 1021 693" width="1021px" zoomAndPan="magnify"><defs/><g><!--cluster API REST--><g id="cluster_API REST"><rect fill="none" height="569" rx="5" ry="5" style="stroke:#2C3E50;stroke-width:1.0;" width="868" x="147" y="7"/><text fill="#000000" font-family="Helvetica" font-size="14" font-weight="bold" lengthAdjust="spacing" textLength="62" x="550" y="23.5332">API REST</text></g><g id="elem_UC_LOGIN"><ellipse cx="282.6726" cy="364.9034" fill="#F8F9FA" rx="119.6726" ry="27.9034" style="stroke:#2C3E50;stroke-width:0.5;"/><text fill="#000000" font-family="Helvetica" font-size="14" lengthAdjust="spacing" textLength="74" x="245.6726" y="359.8272">Autenticarsi</text><text fill="#000000" font-family="Helvetica" font-size="14" lengthAdjust="spacing" textLength="153" x="206.1726" y="377.4366">(login email + password)</text></g><g id="elem_UC_CREATE"><ellipse cx="623.033" cy="520.9098" fill="#F8F9FA" rx="93.533" ry="27.9098" style="stroke:#2C3E50;stroke-width:0.5;"/><text fill="#000000" font-family="Helvetica" font-size="14" lengthAdjust="spacing" textLength="116" x="563.5809" y="516.2332">Creare una partita</text><text fill="#000000" font-family="Helvetica" font-size="14" lengthAdjust="spacing" textLength="79" x="582.0809" y="533.8426">(PvP o PvAI)</text></g><g id="elem_UC_MOVE"><ellipse cx="623.1163" cy="245.1233" fill="#F8F9FA" rx="86.1163" ry="19.6233" style="stroke:#2C3E50;stroke-width:0.5;"/><text fill="#000000" font-family="Helvetica" font-size="14" lengthAdjust="spacing" textLength="129" x="558.6163" y="248.8518">Eseguire una mossa</text></g><g id="elem_UC_SILENCE"><ellipse cx="623.0244" cy="70.9034" fill="#F8F9FA" rx="85.0244" ry="27.9034" style="stroke:#2C3E50;stroke-width:0.5;"/><text fill="#000000" font-family="Helvetica" font-size="14" lengthAdjust="spacing" textLength="104" x="571.0244" y="65.8272">Armare il silence</text><text fill="#000000" font-family="Helvetica" font-size="14" lengthAdjust="spacing" textLength="65" x="590.5244" y="83.4366">(solo PvP)</text></g><g id="elem_UC_STATE"><ellipse cx="623.1836" cy="161.9176" fill="#F8F9FA" rx="95.6836" ry="27.9176" style="stroke:#2C3E50;stroke-width:0.5;"/><text fill="#000000" font-family="Helvetica" font-size="14" lengthAdjust="spacing" textLength="119" x="561.4754" y="157.4351">Consultare lo stato</text><text fill="#000000" font-family="Helvetica" font-size="14" lengthAdjust="spacing" textLength="74" x="583.9754" y="175.0444">della partita</text></g><g id="elem_UC_CSV"><ellipse cx="623.124" cy="327.9243" fill="#F8F9FA" rx="97.124" ry="27.9243" style="stroke:#2C3E50;stroke-width:0.5;"/><text fill="#000000" font-family="Helvetica" font-size="14" lengthAdjust="spacing" textLength="121" x="559.9015" y="323.569">Scaricare lo storico</text><text fill="#000000" font-family="Helvetica" font-size="14" lengthAdjust="spacing" textLength="88" x="576.4015" y="341.1784">mosse in CSV</text></g><g id="elem_UC_RECHARGE"><ellipse cx="623.124" cy="425.9243" fill="#F8F9FA" rx="97.124" ry="27.9243" style="stroke:#2C3E50;stroke-width:0.5;"/><text fill="#000000" font-family="Helvetica" font-size="14" lengthAdjust="spacing" textLength="121" x="559.9015" y="421.569">Ricaricare il credito</text><text fill="#000000" font-family="Helvetica" font-size="14" lengthAdjust="spacing" textLength="75" x="582.9015" y="439.1784">di un utente</text></g><g id="elem_UC_AI"><ellipse cx="282.6837" cy="455.9509" fill="#F8F9FA" rx="102.1837" ry="27.9509" style="stroke:#2C3E50;stroke-width:0.5;"/><text fill="#000000" font-family="Helvetica" font-size="14" lengthAdjust="spacing" textLength="128" x="215.6837" y="451.6628">Rispondere con una</text><text fill="#000000" font-family="Helvetica" font-size="14" lengthAdjust="spacing" textLength="114" x="222.6837" y="469.2722">mossa automatica</text></g><g id="elem_UC_JWT"><ellipse cx="917.9325" cy="234.9034" fill="#F8F9FA" rx="65.9325" ry="27.9034" style="stroke:#2C3E50;stroke-width:0.5;"/><text fill="#000000" font-family="Helvetica" font-size="14" lengthAdjust="spacing" textLength="60" x="887.9325" y="229.8272">Verificare</text><text fill="#000000" font-family="Helvetica" font-size="14" lengthAdjust="spacing" textLength="77" x="879.4325" y="247.4366">il token JWT</text></g><g id="elem_UC_CREDIT"><ellipse cx="918.097" cy="525.1194" fill="#F8F9FA" rx="81.097" ry="18.6194" style="stroke:#2C3E50;stroke-width:0.5;"/><text fill="#000000" font-family="Helvetica" font-size="14" lengthAdjust="spacing" textLength="117" x="859.0843" y="528.9982">Verificare il credito</text></g><g id="elem_UC_CHARGE"><ellipse cx="917.7827" cy="355.9565" fill="#F8F9FA" rx="80.2827" ry="18.4565" style="stroke:#2C3E50;stroke-width:0.5;"/><text fill="#000000" font-family="Helvetica" font-size="14" lengthAdjust="spacing" textLength="115" x="859.4192" y="359.9341">Addebitare i token</text></g><!--entity G--><g id="elem_G"><ellipse cx="53" cy="218.5" fill="#F8F9FA" rx="8" ry="8" style="stroke:#2C3E50;stroke-width:0.5;"/><path d="M53,226.5 L53,253.5 M40,234.5 L66,234.5 M53,253.5 L40,268.5 M53,253.5 L66,268.5 " fill="none" style="stroke:#2C3E50;stroke-width:0.5;"/><text fill="#000000" font-family="Helvetica" font-size="14" lengthAdjust="spacing" textLength="62" x="22" y="284.5332">Giocatore</text></g><!--entity A--><g id="elem_A"><ellipse cx="53" cy="556.5" fill="#F8F9FA" rx="8" ry="8" style="stroke:#2C3E50;stroke-width:0.5;"/><path d="M53,564.5 L53,591.5 M40,572.5 L66,572.5 M53,591.5 L40,606.5 M53,591.5 L66,606.5 " fill="none" style="stroke:#2C3E50;stroke-width:0.5;"/><text fill="#000000" font-family="Helvetica" font-size="14" lengthAdjust="spacing" textLength="94" x="6" y="622.5332">Amministratore</text></g><!--entity IA--><g id="elem_IA"><ellipse cx="623" cy="618.6094" fill="#F8F9FA" rx="8" ry="8" style="stroke:#2C3E50;stroke-width:0.5;"/><path d="M623,626.6094 L623,653.6094 M610,634.6094 L636,634.6094 M623,653.6094 L610,668.6094 M623,653.6094 L636,668.6094 " fill="none" style="stroke:#2C3E50;stroke-width:0.5;"/><text fill="#000000" font-family="Helvetica" font-size="14" lengthAdjust="spacing" textLength="12" x="617" y="684.6426">IA</text><text fill="#000000" font-family="Helvetica" font-size="14" font-style="italic" lengthAdjust="spacing" textLength="60" x="593" y="607.0332">&#171;system&#187;</text></g><!--link G to UC_LOGIN--><g id="link_G_UC_LOGIN"><path d="M84.13,276.99 C97.47,288.33 113.78,300.88 130,310 C153.78,323.37 175.7506,332.5757 200.8606,341.2757 " fill="none" id="G-to-UC_LOGIN" style="stroke:#2C3E50;stroke-width:1.0;"/><polygon fill="#2C3E50" points="206.53,343.24,199.3355,336.514,201.8055,341.6031,196.7164,344.0731,206.53,343.24" style="stroke:#2C3E50;stroke-width:1.0;"/></g><!--link G to UC_CREATE--><g id="link_G_UC_CREATE"><path d="M54.4,288.3 C57.33,345.65 72.14,450.86 139,501 C260.87,592.39 446.8731,565.6293 548.2131,541.5093 " fill="none" id="G-to-UC_CREATE" style="stroke:#2C3E50;stroke-width:1.0;"/><polygon fill="#2C3E50" points="554.05,540.12,544.3684,538.3126,549.1859,541.2777,546.2207,546.0952,554.05,540.12" style="stroke:#2C3E50;stroke-width:1.0;"/></g><!--link G to UC_MOVE--><g id="link_G_UC_MOVE"><path d="M82.9,209.7 C95.9,196.78 112.5,185.91 131,187 C281.38,195.85 450.3957,218.9445 545.5557,233.1445 " fill="none" id="G-to-UC_MOVE" style="stroke:#2C3E50;stroke-width:1.0;"/><polygon fill="#2C3E50" points="551.49,234.03,543.1789,228.7455,546.5448,233.2921,541.9982,236.6579,551.49,234.03" style="stroke:#2C3E50;stroke-width:1.0;"/></g><!--link G to UC_SILENCE--><g id="link_G_UC_SILENCE"><path d="M78.76,209.72 C91.86,192.12 109.5,172.73 130,161 C258.88,87.26 429.1112,72.0019 531.9212,69.9119 " fill="none" id="G-to-UC_SILENCE" style="stroke:#2C3E50;stroke-width:1.0;"/><polygon fill="#2C3E50" points="537.92,69.79,528.8406,65.9737,532.921,69.8916,529.0032,73.9721,537.92,69.79" style="stroke:#2C3E50;stroke-width:1.0;"/></g><!--link G to UC_STATE--><g id="link_G_UC_STATE"><path d="M84.28,243.17 C98.19,240.56 114.91,237.51 130,235 C272.04,211.39 431.8478,188.3906 530.1478,174.6506 " fill="none" id="G-to-UC_STATE" style="stroke:#2C3E50;stroke-width:1.0;"/><polygon fill="#2C3E50" points="536.09,173.82,526.6229,171.1044,531.1381,174.5122,527.7304,179.0274,536.09,173.82" style="stroke:#2C3E50;stroke-width:1.0;"/></g><!--link G to UC_CSV--><g id="link_G_UC_CSV"><path d="M84.08,252.41 C155.61,260.62 341.48,282.56 496,306 C510.38,308.18 519.7356,309.6802 534.4956,312.2002 " fill="none" id="G-to-UC_CSV" style="stroke:#2C3E50;stroke-width:1.0;"/><polygon fill="#2C3E50" points="540.41,313.21,532.2116,307.7524,535.4813,312.3685,530.8652,315.6383,540.41,313.21" style="stroke:#2C3E50;stroke-width:1.0;"/></g><!--link A to UC_LOGIN--><g id="link_A_UC_LOGIN"><path d="M62.99,547.94 C74.18,507.83 97.15,446.3 139,410 C153.11,397.76 164.9248,390.9101 182.7048,384.4101 " fill="none" id="A-to-UC_LOGIN" style="stroke:#2C3E50;stroke-width:1.0;"/><polygon fill="#2C3E50" points="188.34,382.35,178.5137,381.6834,183.644,384.0668,181.2606,389.197,188.34,382.35" style="stroke:#2C3E50;stroke-width:1.0;"/></g><!--link A to UC_RECHARGE--><g id="link_A_UC_RECHARGE"><path d="M100.22,576.91 C167.2,562 294.96,532.41 402,501 C456.79,484.92 512.5718,465.7344 556.5718,449.9644 " fill="none" id="A-to-UC_RECHARGE" style="stroke:#2C3E50;stroke-width:1.0;"/><polygon fill="#2C3E50" points="562.22,447.94,552.3982,447.2111,557.5132,449.627,555.0973,454.742,562.22,447.94" style="stroke:#2C3E50;stroke-width:1.0;"/></g><!--link UC_AI to IA--><g id="link_UC_AI_IA"><path d="M329.5,481.01 C400.18,519.43 528.2181,589.0251 587.2881,621.1251 " fill="none" id="UC_AI-to-IA" style="stroke:#2C3E50;stroke-width:1.0;"/><polygon fill="#2C3E50" points="592.56,623.99,586.5621,616.1781,588.1668,621.6026,582.7423,623.2073,592.56,623.99" style="stroke:#2C3E50;stroke-width:1.0;"/></g><!--link UC_CREATE to UC_JWT--><g id="link_UC_CREATE_UC_JWT"><path d="M674.59,497.42 C689.62,489.69 705.85,480.6 720,471 C730.56,463.84 799.61,406.4 807,396 C828.03,366.4 817.54,350.66 837,320 C851.12,297.76 867.1818,280.3243 883.8518,264.4743 " fill="none" id="UC_CREATE-to-UC_JWT" style="stroke:#2C3E50;stroke-width:1.0;stroke-dasharray:7.0,7.0;"/><polygon fill="#2C3E50" points="888.2,260.34,878.9214,263.6427,884.5765,263.7853,884.4339,269.4403,888.2,260.34" style="stroke:#2C3E50;stroke-width:1.0;"/><text fill="#2C3E50" font-family="Helvetica" font-size="13" lengthAdjust="spacing" textLength="55" x="751" y="392.4951">&#171;include&#187;</text></g><!--link UC_MOVE to UC_JWT--><g id="link_UC_MOVE_UC_JWT"><path d="M677.49,229.87 C699.72,224.33 725.91,218.74 750,216 C775.17,213.14 781.76,213.84 807,216 C823.7,217.43 835.7678,219.0476 852.2478,221.8976 " fill="none" id="UC_MOVE-to-UC_JWT" style="stroke:#2C3E50;stroke-width:1.0;stroke-dasharray:7.0,7.0;"/><polygon fill="#2C3E50" points="858.16,222.92,849.9733,217.4448,853.2331,222.068,848.61,225.3278,858.16,222.92" style="stroke:#2C3E50;stroke-width:1.0;"/><text fill="#2C3E50" font-family="Helvetica" font-size="13" lengthAdjust="spacing" textLength="55" x="751" y="211.4951">&#171;include&#187;</text></g><!--link UC_SILENCE to UC_JWT--><g id="link_UC_SILENCE_UC_JWT"><path d="M680.56,91.64 C717.62,106.15 766.51,127.16 807,151 C836.2,168.19 861.9907,188.0889 883.4107,205.9389 " fill="none" id="UC_SILENCE-to-UC_JWT" style="stroke:#2C3E50;stroke-width:1.0;stroke-dasharray:7.0,7.0;"/><polygon fill="#2C3E50" points="888.02,209.78,883.6667,200.9455,884.1789,206.5791,878.5453,207.0912,888.02,209.78" style="stroke:#2C3E50;stroke-width:1.0;"/><text fill="#2C3E50" font-family="Helvetica" font-size="13" lengthAdjust="spacing" textLength="55" x="751" y="120.4951">&#171;include&#187;</text></g><!--link UC_STATE to UC_JWT--><g id="link_UC_STATE_UC_JWT"><path d="M713.82,170.71 C743.79,174.82 777.14,180.7 807,189 C829.73,195.32 848.5537,202.6884 868.5237,211.6284 " fill="none" id="UC_STATE-to-UC_JWT" style="stroke:#2C3E50;stroke-width:1.0;stroke-dasharray:7.0,7.0;"/><polygon fill="#2C3E50" points="874,214.08,867.42,206.7518,869.4364,212.037,864.1512,214.0535,874,214.08" style="stroke:#2C3E50;stroke-width:1.0;"/><text fill="#2C3E50" font-family="Helvetica" font-size="13" lengthAdjust="spacing" textLength="55" x="751" y="173.4951">&#171;include&#187;</text></g><!--link UC_CSV to UC_JWT--><g id="link_UC_CSV_UC_JWT"><path d="M714.42,318.29 C744.43,313.47 777.65,306.37 807,296 C833.35,286.69 855.7462,274.5945 876.6662,261.6645 " fill="none" id="UC_CSV-to-UC_JWT" style="stroke:#2C3E50;stroke-width:1.0;stroke-dasharray:7.0,7.0;"/><polygon fill="#2C3E50" points="881.77,258.51,872.0113,259.8392,877.5168,261.1388,876.2173,266.6443,881.77,258.51" style="stroke:#2C3E50;stroke-width:1.0;"/><text fill="#2C3E50" font-family="Helvetica" font-size="13" lengthAdjust="spacing" textLength="55" x="751" y="292.4951">&#171;include&#187;</text></g><!--link UC_RECHARGE to UC_JWT--><g id="link_UC_RECHARGE_UC_JWT"><path d="M681.68,403.63 C718.99,387.89 767.73,364.89 807,338 C839.81,315.53 868.3241,287.7957 889.4141,265.4257 " fill="none" id="UC_RECHARGE-to-UC_JWT" style="stroke:#2C3E50;stroke-width:1.0;stroke-dasharray:7.0,7.0;"/><polygon fill="#2C3E50" points="893.53,261.06,884.4457,264.8646,890.1001,264.6981,890.2666,270.3525,893.53,261.06" style="stroke:#2C3E50;stroke-width:1.0;"/><text fill="#2C3E50" font-family="Helvetica" font-size="13" lengthAdjust="spacing" textLength="55" x="751" y="334.4951">&#171;include&#187;</text></g><!--link UC_CREATE to UC_CREDIT--><g id="link_UC_CREATE_UC_CREDIT"><path d="M714.82,526.65 C726.65,527.21 738.61,527.68 750,528 C775.32,528.7 781.67,528.35 807,528 C816.93,527.86 821.3716,527.7994 831.7016,527.5594 " fill="none" id="UC_CREATE-to-UC_CREDIT" style="stroke:#2C3E50;stroke-width:1.0;stroke-dasharray:7.0,7.0;"/><polygon fill="#2C3E50" points="837.7,527.42,828.6095,523.6301,832.7013,527.5361,828.7953,531.628,837.7,527.42" style="stroke:#2C3E50;stroke-width:1.0;"/><text fill="#2C3E50" font-family="Helvetica" font-size="13" lengthAdjust="spacing" textLength="55" x="751" y="524.4951">&#171;include&#187;</text></g><!--link UC_CREATE to UC_CHARGE--><g id="link_UC_CREATE_UC_CHARGE"><path d="M706.09,507.86 C739.05,500.16 776.4,488.24 807,470 C849.05,444.93 882.2688,404.4535 900.7588,379.1635 " fill="none" id="UC_CREATE-to-UC_CHARGE" style="stroke:#2C3E50;stroke-width:1.0;stroke-dasharray:7.0,7.0;"/><polygon fill="#2C3E50" points="904.3,374.32,895.7592,379.2245,901.349,378.3563,902.2172,383.9461,904.3,374.32" style="stroke:#2C3E50;stroke-width:1.0;"/><text fill="#2C3E50" font-family="Helvetica" font-size="13" lengthAdjust="spacing" textLength="55" x="751" y="466.4951">&#171;include&#187;</text></g><!--link UC_MOVE to UC_CHARGE--><g id="link_UC_MOVE_UC_CHARGE"><path d="M706.95,249.62 C739.15,253.58 775.73,260.82 807,274 C843,289.17 873.6345,314.4652 894.1545,333.6252 " fill="none" id="UC_MOVE-to-UC_CHARGE" style="stroke:#2C3E50;stroke-width:1.0;stroke-dasharray:7.0,7.0;"/><polygon fill="#2C3E50" points="898.54,337.72,894.6917,328.6541,894.8854,334.3076,889.2319,334.5014,898.54,337.72" style="stroke:#2C3E50;stroke-width:1.0;"/><text fill="#2C3E50" font-family="Helvetica" font-size="13" lengthAdjust="spacing" textLength="55" x="751" y="254.4951">&#171;include&#187;</text></g><!--link UC_AI to UC_MOVE--><g id="link_UC_AI_UC_MOVE"><path d="M351.49,435.37 C368.7,428.62 386.64,420.19 402,410 C468,366.21 459.95,325.71 526,282 C539.26,273.23 549.2885,268.2038 564.0585,262.6138 " fill="none" id="UC_AI-to-UC_MOVE" style="stroke:#2C3E50;stroke-width:1.0;stroke-dasharray:7.0,7.0;"/><polygon fill="#2C3E50" points="569.67,260.49,559.8368,259.9347,564.9937,262.2598,562.6685,267.4167,569.67,260.49" style="stroke:#2C3E50;stroke-width:1.0;"/><text fill="#2C3E50" font-family="Helvetica" font-size="13" lengthAdjust="spacing" textLength="53" x="437.5" y="288.4951">&#171;extend&#187;</text><text fill="#2C3E50" font-family="Helvetica" font-size="13" lengthAdjust="spacing" textLength="62" x="433" y="304.8467">(solo PvAI)</text></g><!--SRC=[XLJRRjim37tNLt1zwOQX-O2Y262uHkQXQuCaoruA59hDPiHq2IIvMpVitqSfjc9lNVPcIkUGXuUYNv5fLDSYFFZmh72sxxGIvt1DSkUarX9Q96Ya9sZFEszdGk5ZW631qUvBW9OSDe6i4KB89bW7PmkoZUGlF0FfOJ4S5rgJ8H_SyQuOxkeYnNK1LrV-sGVKyxaGCRCqEuLCNjQmgjQRC_Wf03gFh2WUTm5De4OwJ_VcjR8xCe1QaeAti9VUVxEkVPDoVomVRkuMzUsONZgK3g4pai4kK92SPFcq10lBfwBEn79L5PjgpAmyxZhgkTfwBmViXxlj15au7Mkm8ayAJODSmbiLAonpWNLzKzsM4rvfZUzKY5m6-y2ktPiMbSfQCtdpXxWr-n4zwPcM0-P6bQp3GBdUviRMsp5nHPd9UXk7BQMgn6r2iXe7vgegtnMhHJMb-xrbZKnlh8dM7AfAa5smMiP13VoY5cFg5XqzfihtXai7-nKDlF-q6U3y-J9y97GqhUjw0Y_Q5ZzJyf8EkJFsqCGl8HPmSJ4_lf8SzhFFSPflZeR17Gys4tGqM1JJr3dC7efaI3gk2y7Rjq8bV_1I4Uz3lv_p-IMxglVM1QdZemUFUiyTONgAWKGM2xFPl3SDBiSPHA__9A1lwJHcyxyotFZ9-w7tVuF-xkSms1TgJL67l2SRVn4pyXtv0h_pWs-ZxMbTUN7wlKl_1b3ztlE5GT_8UE3Y0l2gGjpJSnxbOQvzqIJWSfJv-2VWVuqGlm40]--></g></svg>